<svg width="15" height="15" viewBox="0 0 15 15" fill="none" xmlns="http://www.w3.org/2000/svg">
<g id="Group 1000001203">
<path id="Vector (Stroke)" fill-rule="evenodd" clip-rule="evenodd" d="M0 7.36364C0 3.31211 3.31211 0 7.36364 0C11.4152 0 14.7273 3.31211 14.7273 7.36364C14.7273 11.4152 11.4152 14.7273 7.36364 14.7273C3.31211 14.7273 0 11.4152 0 7.36364ZM7.36364 1.33884C4.05153 1.33884 1.33884 4.05153 1.33884 7.36364C1.33884 10.6757 4.05153 13.3884 7.36364 13.3884C10.6757 13.3884 13.3884 10.6757 13.3884 7.36364C13.3884 4.05153 10.6757 1.33884 7.36364 1.33884Z" fill="#7D8695"/>
<path id="Vector (Stroke)_2" fill-rule="evenodd" clip-rule="evenodd" d="M9.72857 4.99612C9.99 5.25754 9.99 5.6814 9.72857 5.94282L5.93965 9.73175C5.67822 9.99317 5.25437 9.99317 4.99294 9.73175C4.73152 9.47032 4.73152 9.04647 4.99294 8.78504L8.78187 4.99612C9.04329 4.73469 9.46715 4.73469 9.72857 4.99612Z" fill="#7D8695"/>
<path id="Vector (Stroke)_3" fill-rule="evenodd" clip-rule="evenodd" d="M4.99294 4.99612C5.25437 4.73469 5.67822 4.73469 5.93965 4.99612L9.72857 8.78504C9.99 9.04647 9.99 9.47032 9.72857 9.73175C9.46715 9.99317 9.04329 9.99317 8.78187 9.73175L4.99294 5.94282C4.73152 5.6814 4.73152 5.25754 4.99294 4.99612Z" fill="#7D8695"/>
</g>
</svg>
