
<svg xmlns="http://www.w3.org/2000/svg" width="18" height="18" viewBox="0 0 18 18" fill="none">
  <path fill-rule="evenodd" clip-rule="evenodd" d="M7.5 4.71428C4.30464 4.71428 1.71428 7.30464 1.71428 10.5C1.71428 13.6954 4.30464 16.2857 7.5 16.2857C10.6954 16.2857 13.2857 13.6954 13.2857 10.5C13.2857 7.30464 10.6954 4.71428 7.5 4.71428ZM0 10.5C0 6.35786 3.35786 3 7.5 3C11.6421 3 15 6.35786 15 10.5C15 14.6421 11.6421 18 7.5 18C3.35786 18 0 14.6421 0 10.5Z" fill="#7D8695"/>
  <path fill-rule="evenodd" clip-rule="evenodd" d="M17.7498 0.251051C18.0845 0.585786 18.0845 1.1285 17.7498 1.46323L13.0355 6.17752C12.7008 6.51225 12.1581 6.51225 11.8233 6.17752C11.4886 5.84278 11.4886 5.30007 11.8233 4.96533L16.5376 0.251051C16.8723 -0.0836838 17.415 -0.0836838 17.7498 0.251051Z" fill="#7D8695"/>
  <path fill-rule="evenodd" clip-rule="evenodd" d="M10.7139 0.857142C10.7139 0.383756 11.0976 0 11.571 0H17.1424C17.6158 0 17.9996 0.383756 17.9996 0.857142V6.42857C17.9996 6.90195 17.6158 7.28571 17.1424 7.28571C16.669 7.28571 16.2853 6.90195 16.2853 6.42857V1.71428H11.571C11.0976 1.71428 10.7139 1.33053 10.7139 0.857142Z" fill="#7D8695"/>
</svg>