<svg width="193" height="64" viewBox="0 0 193 64" fill="none" xmlns="http://www.w3.org/2000/svg">
<path d="M49.6291 0H14.7964C6.62457 0 0 6.58082 0 14.6987V49.3013C0 57.4192 6.62457 64 14.7964 64H49.6291C57.8009 64 64.4255 57.4192 64.4255 49.3013V14.6987C64.4255 6.58082 57.8009 0 49.6291 0Z" fill="white"/>
<path d="M23.9402 33.6322H12.4241C11.9884 33.6322 11.5705 33.4602 11.2624 33.1542C10.9543 32.8481 10.7812 32.433 10.7812 32.0002C10.7812 31.5673 10.9543 31.1522 11.2624 30.8462C11.5705 30.5401 11.9884 30.3682 12.4241 30.3682H23.967C24.4027 30.3682 24.8206 30.5401 25.1287 30.8462C25.4368 31.1522 25.6099 31.5673 25.6099 32.0002C25.6099 32.433 25.4368 32.8481 25.1287 33.1542C24.8206 33.4602 24.4027 33.6322 23.967 33.6322H23.9402Z" fill="#F9795F"/>
<path d="M38.9521 49.4793C38.5193 49.4793 38.09 49.4016 37.6851 49.25C37.0057 49.0015 36.4199 48.5514 36.0069 47.9608C35.5939 47.3703 35.3738 46.6677 35.3765 45.9486V35.7353H31.9083C31.2245 35.7345 30.5554 35.5384 29.9808 35.1703C29.4061 34.8022 28.9501 34.2777 28.6672 33.6594C28.3842 33.041 28.2863 32.3549 28.385 31.6828C28.4837 31.0107 28.7749 30.3809 29.2239 29.8686L41.7653 15.714C42.2416 15.1738 42.8724 14.7907 43.5735 14.6158C44.2747 14.4409 45.0128 14.4826 45.6895 14.7353C46.3661 14.9879 46.9492 15.4395 47.3608 16.0299C47.7724 16.6202 47.993 17.3212 47.9932 18.0393V28.2526H51.4614C52.1461 28.2512 52.8167 28.446 53.3928 28.8136C53.9689 29.1813 54.426 29.7062 54.7094 30.3254C54.9927 30.9447 55.0903 31.6319 54.9903 32.3049C54.8903 32.9778 54.5971 33.6078 54.1458 34.1193L41.6097 48.2686C41.2796 48.6474 40.8715 48.9515 40.4131 49.1604C39.9546 49.3692 39.4565 49.478 38.9521 49.4793ZM44.4175 17.778C44.3825 17.7792 44.3483 17.7885 44.3175 17.8052C44.2868 17.8218 44.2604 17.8454 44.2404 17.874L31.6989 32.0233C31.6641 32.0621 31.6424 32.1106 31.6366 32.1622C31.6308 32.2138 31.6413 32.2659 31.6666 32.3113C31.6832 32.3609 31.716 32.4035 31.7598 32.4325C31.8035 32.4615 31.8558 32.4752 31.9083 32.4713H37.0247C37.4604 32.4713 37.8783 32.6432 38.1864 32.9493C38.4945 33.2554 38.6676 33.6705 38.6676 34.1033V45.9486C38.6641 46.0028 38.6791 46.0566 38.7103 46.1011C38.7415 46.1457 38.787 46.1784 38.8394 46.194C38.8881 46.2183 38.944 46.2247 38.9971 46.212C39.0502 46.1994 39.097 46.1684 39.1293 46.1246L51.6708 31.97C51.7081 31.933 51.7328 31.8853 51.7415 31.8337C51.7502 31.782 51.7423 31.729 51.7191 31.682C51.6979 31.6326 51.6616 31.5911 51.6154 31.5634C51.5691 31.5356 51.5152 31.523 51.4614 31.5273H46.3449C45.9087 31.5259 45.4909 31.3528 45.1829 31.0459C44.875 30.7389 44.7021 30.3233 44.7021 29.89V18.0446C44.7056 17.9905 44.6905 17.9367 44.6593 17.8922C44.6281 17.8476 44.5826 17.8149 44.5303 17.7993C44.4936 17.7882 44.4558 17.7811 44.4175 17.778Z" fill="#F9795F"/>
<path d="M30.5844 20.4768H18.9878C18.5676 20.453 18.1725 20.2704 17.8836 19.9664C17.5946 19.6625 17.4336 19.2602 17.4336 18.8422C17.4336 18.4241 17.5946 18.0219 17.8836 17.7179C18.1725 17.414 18.5676 17.2314 18.9878 17.2075H30.5844C31.0046 17.2314 31.3996 17.414 31.6886 17.7179C31.9776 18.0219 32.1386 18.4241 32.1386 18.8422C32.1386 19.2602 31.9776 19.6625 31.6886 19.9664C31.3996 20.2704 31.0046 20.453 30.5844 20.4768Z" fill="#F9795F"/>
<path d="M28.9008 46.7952H18.9632C18.5275 46.7952 18.1096 46.6233 17.8015 46.3172C17.4934 46.0112 17.3203 45.5961 17.3203 45.1632C17.3203 44.7304 17.4934 44.3153 17.8015 44.0092C18.1096 43.7032 18.5275 43.5312 18.9632 43.5312H28.9008C29.3365 43.5312 29.7544 43.7032 30.0625 44.0092C30.3706 44.3153 30.5437 44.7304 30.5437 45.1632C30.5437 45.5961 30.3706 46.0112 30.0625 46.3172C29.7544 46.6233 29.3365 46.7952 28.9008 46.7952Z" fill="#F9795F"/>
<path d="M77.9062 27.915V12.0537H81.4389V27.915H77.9062Z" fill="white"/>
<path d="M98.3414 22.3527L98.1159 17.3714V12.0381H101.692V27.9154H98.6367L90.707 17.7821L90.8412 22.9874V27.9154H87.2441V12.0541H90.299L98.3414 22.3527Z" fill="white"/>
<path d="M116.992 15.8767C116.106 14.9487 114.555 14.5434 113.304 14.5434C111.731 14.5434 110.453 15.1994 110.453 16.2874C110.453 17.7328 111.843 18.0048 113.894 18.1861C117.04 18.4581 120.025 19.6581 120.025 23.3274C120.025 26.8581 116.745 28.3994 113.304 28.4208C110.544 28.4208 107.672 27.3807 106.324 25.1621L108.472 22.9647C109.07 23.6701 109.816 24.2363 110.658 24.6234C111.501 25.0104 112.418 25.2089 113.347 25.2048C115.236 25.2048 116.536 24.4581 116.536 23.3274C116.536 21.9887 115.462 21.3807 113.314 21.1941C109.943 20.8741 106.931 20.0368 106.979 16.3034C106.979 13.1568 110.007 11.5034 113.293 11.5034C115.752 11.5034 117.588 12.0367 119.236 13.9461L116.992 15.8767Z" fill="white"/>
<path d="M128.203 15.2004H123.371V12.0537H136.611V15.2004H131.779V27.915H128.246L128.203 15.2004Z" fill="white"/>
<path d="M150.91 25.1833H142.712L141.552 27.9139H137.719L144.875 12.0686H148.762L155.908 27.9139H152.053L150.91 25.1833ZM146.813 15.6473L144.059 22.0473H149.552L146.813 15.6473Z" fill="white"/>
<path d="M170.986 22.3527L170.76 17.3714V12.0381H174.336V27.9154H171.281L163.352 17.7821L163.486 22.9874V27.9154H159.889V12.0541H162.944L170.986 22.3527Z" fill="white"/>
<path d="M183.599 15.2004H178.768V12.0537H192.007V15.2004H187.175V27.915H183.642L183.599 15.2004Z" fill="white"/>
<path d="M87.3333 39.9729C86.4421 39.0449 84.8959 38.6343 83.6396 38.6343C82.0665 38.6343 80.7941 39.2956 80.7941 40.3783C80.7941 41.829 82.1847 42.101 84.2355 42.2823C87.3763 42.5543 90.3613 43.7543 90.3613 47.4183C90.3613 50.9543 87.081 52.4903 83.6396 52.517C80.8854 52.517 78.0131 51.4503 76.6602 49.253L78.7808 47.061C79.3793 47.7654 80.1259 48.3311 80.9682 48.7181C81.8104 49.1051 82.7277 49.304 83.6557 49.3009C85.5509 49.3009 86.8501 48.5543 86.8501 47.4183C86.8501 46.085 85.7764 45.4716 83.6289 45.285C80.2573 44.965 77.2507 44.1276 77.2937 40.3943C77.2937 37.2476 80.327 35.5676 83.6074 35.5676C86.0663 35.5676 87.9024 36.101 89.556 38.0156L87.3333 39.9729Z" fill="white"/>
<path d="M98.6503 47.5101V51.9955H95.1016V36.1501H102.618C106.698 36.1501 108.728 38.7741 108.728 41.8301C108.728 44.9981 106.677 47.4675 102.618 47.5101H98.6503ZM98.6503 44.2728H102.618C104.331 44.2728 105.173 43.1635 105.173 41.8995C105.182 41.57 105.121 41.2424 104.994 40.9381C104.866 40.6337 104.676 40.3594 104.435 40.1329C104.194 39.9065 103.907 39.7331 103.594 39.624C103.281 39.5148 102.949 39.4724 102.618 39.4995H98.6557L98.6503 44.2728Z" fill="white"/>
<path d="M123.379 49.2808H115.197L114.037 51.9955H110.209L117.36 36.1501H121.237L128.372 51.9955H124.522L123.379 49.2808ZM119.298 39.7235L116.56 46.1555H122.036L119.298 39.7235Z" fill="white"/>
<path d="M145.558 50.0673C144.745 50.8425 143.784 51.4482 142.732 51.8485C141.68 52.2488 140.558 52.4356 139.432 52.398C133.344 52.398 130.928 48.5047 130.906 44.1793C130.906 40.0833 133.591 35.7847 139.432 35.7847C140.522 35.786 141.602 36.0027 142.607 36.422C143.613 36.8413 144.525 37.455 145.289 38.2273L143.056 40.4247C142.061 39.5441 140.764 39.0747 139.432 39.1127C135.808 39.1127 134.396 41.8967 134.417 44.206C134.439 46.5153 135.69 49.1393 139.432 49.1393C140.879 49.1162 142.269 48.5788 143.351 47.6247L145.558 50.0673Z" fill="white"/>
<path d="M162.068 51.9955H149.918V36.1501H161.729V39.3875H153.408V42.4435H161.268V45.5421H153.408V48.7421H162.068V51.9955Z" fill="white"/>
</svg>
