<svg width="109" height="36" viewBox="0 0 109 36" fill="none" xmlns="http://www.w3.org/2000/svg">
<path d="M27.9164 0H8.32297C3.72632 0 0 3.70171 0 8.268V27.732C0 32.2983 3.72632 36 8.32297 36H27.9164C32.513 36 36.2394 32.2983 36.2394 27.732V8.268C36.2394 3.70171 32.513 0 27.9164 0Z" fill="white"/>
<path d="M13.4663 18.918H6.98856C6.74347 18.918 6.50842 18.8213 6.33511 18.6492C6.16181 18.477 6.06445 18.2435 6.06445 18C6.06445 17.7566 6.16181 17.5231 6.33511 17.3509C6.50842 17.1787 6.74347 17.082 6.98856 17.082H13.4814C13.7265 17.082 13.9616 17.1787 14.1349 17.3509C14.3082 17.5231 14.4055 17.7566 14.4055 18C14.4055 18.2435 14.3082 18.477 14.1349 18.6492C13.9616 18.8213 13.7265 18.918 13.4814 18.918H13.4663Z" fill="#F9795F"/>
<path d="M21.9103 27.8321C21.6669 27.8321 21.4254 27.7884 21.1976 27.7031C20.8155 27.5634 20.4859 27.3102 20.2536 26.978C20.0213 26.6458 19.8975 26.2506 19.899 25.8461V20.1011H17.9481C17.5635 20.1007 17.1872 19.9903 16.8639 19.7833C16.5407 19.5763 16.2842 19.2812 16.125 18.9334C15.9659 18.5856 15.9108 18.1996 15.9663 17.8216C16.0218 17.4435 16.1856 17.0893 16.4382 16.8011L23.4928 8.83913C23.7607 8.53526 24.1155 8.31977 24.5099 8.2214C24.9043 8.12304 25.3195 8.14648 25.7001 8.2886C26.0807 8.43072 26.4087 8.68476 26.6402 9.01682C26.8717 9.34889 26.9958 9.74318 26.9959 10.1471V15.8921H28.9468C29.3319 15.8913 29.7092 16.0009 30.0332 16.2077C30.3573 16.4145 30.6144 16.7097 30.7738 17.0581C30.9332 17.4064 30.988 17.793 30.9318 18.1715C30.8756 18.55 30.7106 18.9044 30.4568 19.1921L23.4052 27.1511C23.2195 27.3642 22.99 27.5352 22.7321 27.6527C22.4742 27.7702 22.194 27.8314 21.9103 27.8321ZM24.9846 10.0001C24.9649 10.0008 24.9457 10.0061 24.9284 10.0154C24.9111 10.0248 24.8962 10.0381 24.885 10.0541L17.8304 18.0131C17.8108 18.0349 17.7986 18.0622 17.7954 18.0913C17.7921 18.1203 17.798 18.1496 17.8122 18.1751C17.8216 18.203 17.84 18.227 17.8646 18.2433C17.8892 18.2596 17.9186 18.2673 17.9481 18.2651H20.8262C21.0712 18.2651 21.3063 18.3618 21.4796 18.534C21.6529 18.7062 21.7503 18.9396 21.7503 19.1831V25.8461C21.7483 25.8766 21.7568 25.9068 21.7743 25.9319C21.7919 25.957 21.8175 25.9754 21.8469 25.9841C21.8743 25.9978 21.9058 26.0014 21.9356 25.9943C21.9655 25.9872 21.9918 25.9697 22.01 25.9451L29.0646 17.9831C29.0856 17.9623 29.0995 17.9355 29.1044 17.9065C29.1092 17.8774 29.1048 17.8476 29.0917 17.8211C29.0798 17.7934 29.0594 17.77 29.0334 17.7544C29.0074 17.7388 28.9771 17.7317 28.9468 17.7341H26.0688C25.8234 17.7333 25.5884 17.6359 25.4152 17.4633C25.2419 17.2907 25.1447 17.0569 25.1447 16.8131V10.1501C25.1466 10.1197 25.1382 10.0894 25.1206 10.0644C25.1031 10.0393 25.0775 10.0209 25.048 10.0121C25.0274 10.0059 25.0061 10.0019 24.9846 10.0001Z" fill="#F9795F"/>
<path d="M17.204 11.5182H10.6809C10.4445 11.5048 10.2223 11.4021 10.0598 11.2311C9.8972 11.0601 9.80664 10.8339 9.80664 10.5987C9.80664 10.3635 9.8972 10.1373 10.0598 9.9663C10.2223 9.79533 10.4445 9.69262 10.6809 9.6792H17.204C17.4403 9.69262 17.6625 9.79533 17.8251 9.9663C17.9876 10.1373 18.0782 10.3635 18.0782 10.5987C18.0782 10.8339 17.9876 11.0601 17.8251 11.2311C17.6625 11.4021 17.4403 11.5048 17.204 11.5182Z" fill="#F9795F"/>
<path d="M16.2562 26.3223H10.6663C10.4212 26.3223 10.1862 26.2256 10.0128 26.0534C9.83954 25.8813 9.74219 25.6478 9.74219 25.4043C9.74219 25.1609 9.83954 24.9274 10.0128 24.7552C10.1862 24.583 10.4212 24.4863 10.6663 24.4863H16.2562C16.5013 24.4863 16.7363 24.583 16.9096 24.7552C17.083 24.9274 17.1803 25.1609 17.1803 25.4043C17.1803 25.6478 17.083 25.8813 16.9096 26.0534C16.7363 26.2256 16.5013 26.3223 16.2562 26.3223Z" fill="#F9795F"/>
<path d="M43.8223 15.7023V6.78027H45.8094V15.7023H43.8223Z" fill="white"/>
<path d="M55.3164 12.5735L55.1896 9.77148V6.77148H57.2009V15.7025H55.4826L51.0221 10.0025L51.0976 12.9305V15.7025H49.0742V6.78048H50.7926L55.3164 12.5735Z" fill="white"/>
<path d="M65.8073 8.9307C65.309 8.4087 64.4362 8.1807 63.7326 8.1807C62.8477 8.1807 62.129 8.5497 62.129 9.1617C62.129 9.9747 62.9111 10.1277 64.0648 10.2297C65.8344 10.3827 67.5135 11.0577 67.5135 13.1217C67.5135 15.1077 65.6684 15.9747 63.7326 15.9867C62.1803 15.9867 60.5646 15.4017 59.8066 14.1537L61.0146 12.9177C61.3509 13.3144 61.7707 13.6329 62.2446 13.8507C62.7184 14.0684 63.2346 14.18 63.7567 14.1777C64.8197 14.1777 65.5506 13.7577 65.5506 13.1217C65.5506 12.3687 64.9466 12.0267 63.7386 11.9217C61.8421 11.7417 60.1479 11.2707 60.1751 9.1707C60.1751 7.4007 61.8783 6.4707 63.7265 6.4707C65.1097 6.4707 66.1425 6.7707 67.0696 7.8447L65.8073 8.9307Z" fill="white"/>
<path d="M72.1144 8.55027H69.3965V6.78027H76.8437V8.55027H74.1257V15.7023H72.1386L72.1144 8.55027Z" fill="white"/>
<path d="M84.8868 14.1656H80.2753L79.623 15.7016H77.4668L81.4924 6.78857H83.6788L87.6984 15.7016H85.5301L84.8868 14.1656ZM82.5826 8.80157L81.0334 12.4016H84.1228L82.5826 8.80157Z" fill="white"/>
<path d="M96.1797 12.5735L96.0529 9.77148V6.77148H98.0642V15.7025H96.3458L91.8854 10.0025L91.9609 12.9305V15.7025H89.9375V6.78048H91.6559L96.1797 12.5735Z" fill="white"/>
<path d="M103.275 8.55027H100.557V6.78027H108.004V8.55027H105.286V15.7023H103.299L103.275 8.55027Z" fill="white"/>
<path d="M49.1247 22.4848C48.6234 21.9628 47.7537 21.7318 47.047 21.7318C46.1622 21.7318 45.4465 22.1038 45.4465 22.7128C45.4465 23.5288 46.2286 23.6818 47.3822 23.7838C49.1489 23.9368 50.828 24.6118 50.828 26.6728C50.828 28.6618 48.9828 29.5258 47.047 29.5408C45.4978 29.5408 43.8821 28.9408 43.1211 27.7048L44.314 26.4718C44.6506 26.8681 45.0706 27.1863 45.5443 27.404C46.0181 27.6216 46.5341 27.7336 47.0561 27.7318C48.1221 27.7318 48.853 27.3118 48.853 26.6728C48.853 25.9228 48.249 25.5778 47.041 25.4728C45.1445 25.2928 43.4533 24.8218 43.4774 22.7218C43.4774 20.9518 45.1837 20.0068 47.0289 20.0068C48.412 20.0068 49.4449 20.3068 50.375 21.3838L49.1247 22.4848Z" fill="white"/>
<path d="M55.4903 26.7245V29.2475H53.4941V20.3345H57.7221C60.0172 20.3345 61.1588 21.8105 61.1588 23.5295C61.1588 25.3115 60.0051 26.7005 57.7221 26.7245H55.4903ZM55.4903 24.9035H57.7221C58.6854 24.9035 59.1596 24.2795 59.1596 23.5685C59.1644 23.3831 59.13 23.1989 59.0584 23.0277C58.9868 22.8565 58.8797 22.7022 58.7441 22.5748C58.6085 22.4474 58.4474 22.3499 58.2713 22.2885C58.0952 22.2271 57.9081 22.2032 57.7221 22.2185H55.4933L55.4903 24.9035Z" fill="white"/>
<path d="M69.4001 27.7205H64.7977L64.1454 29.2475H61.9922L66.0148 20.3345H68.1952L72.2087 29.2475H70.0434L69.4001 27.7205ZM67.105 22.3445L65.5648 25.9625H68.6451L67.105 22.3445Z" fill="white"/>
<path d="M81.8762 28.1629C81.4191 28.599 80.8787 28.9396 80.2869 29.1648C79.695 29.39 79.0638 29.4951 78.4304 29.4739C75.0058 29.4739 73.6468 27.2839 73.6348 24.8509C73.6348 22.5469 75.1447 20.1289 78.4304 20.1289C79.0439 20.1297 79.651 20.2515 80.2166 20.4874C80.7823 20.7233 81.295 21.0685 81.7252 21.5029L80.4689 22.7389C79.9091 22.2436 79.1798 21.9796 78.4304 22.0009C76.392 22.0009 75.5977 23.5669 75.6098 24.8659C75.6219 26.1649 76.3255 27.6409 78.4304 27.6409C79.2442 27.6279 80.0263 27.3256 80.635 26.7889L81.8762 28.1629Z" fill="white"/>
<path d="M91.1623 29.2475H84.3281V20.3345H90.972V22.1555H86.2911V23.8745H90.7123V25.6175H86.2911V27.4175H91.1623V29.2475Z" fill="white"/>
</svg>
