<svg width="60" height="60" viewBox="0 0 60 60" fill="none" xmlns="http://www.w3.org/2000/svg">
<rect width="59.8908" height="59.89" rx="18" fill="url(#paint0_linear_87_18642)"/>
<path d="M23.0769 30.6267H14.3555C14.0255 30.6267 13.7091 30.4971 13.4757 30.2665C13.2424 30.0359 13.1113 29.7231 13.1113 29.397C13.1113 29.0709 13.2424 28.7581 13.4757 28.5275C13.7091 28.2969 14.0255 28.1673 14.3555 28.1673H23.0972C23.4272 28.1673 23.7437 28.2969 23.977 28.5275C24.2103 28.7581 24.3414 29.0709 24.3414 29.397C24.3414 29.7231 24.2103 30.0359 23.977 30.2665C23.7437 30.4971 23.4272 30.6267 23.0972 30.6267H23.0769Z" fill="white"/>
<path d="M34.4578 42.571C34.13 42.571 33.8049 42.5125 33.4982 42.3982C32.9838 42.211 32.54 41.8719 32.2273 41.4269C31.9145 40.9819 31.7478 40.4526 31.7499 39.9107V32.2153H29.1233C28.6055 32.2147 28.0987 32.0669 27.6635 31.7896C27.2283 31.5122 26.883 31.117 26.6687 30.6511C26.4545 30.1852 26.3803 29.6682 26.455 29.1618C26.5298 28.6554 26.7503 28.1809 27.0903 27.7949L36.5883 17.1298C36.949 16.7227 37.4267 16.4341 37.9577 16.3023C38.4887 16.1705 39.0477 16.202 39.5602 16.3923C40.0726 16.5827 40.5142 16.923 40.8259 17.3678C41.1376 17.8126 41.3047 18.3407 41.3048 18.8818V26.5773H43.9314C44.45 26.5762 44.9578 26.723 45.3941 27C45.8304 27.277 46.1766 27.6725 46.3912 28.1391C46.6058 28.6057 46.6796 29.1235 46.6039 29.6305C46.5282 30.1376 46.3062 30.6122 45.9644 30.9977L36.4704 41.6588C36.2204 41.9442 35.9114 42.1733 35.5642 42.3307C35.217 42.4881 34.8397 42.57 34.4578 42.571ZM38.5969 18.6849C38.5704 18.6858 38.5445 18.6929 38.5212 18.7054C38.4979 18.718 38.4779 18.7357 38.4627 18.7572L28.9647 29.4184C28.9384 29.4476 28.9219 29.4842 28.9176 29.5231C28.9132 29.5619 28.9212 29.6012 28.9403 29.6354C28.9529 29.6727 28.9777 29.7049 29.0108 29.7267C29.044 29.7486 29.0836 29.7588 29.1233 29.7559H32.9981C33.3281 29.7559 33.6445 29.8855 33.8779 30.1161C34.1112 30.3467 34.2423 30.6595 34.2423 30.9856V39.9107C34.2396 39.9516 34.251 39.9921 34.2747 40.0256C34.2983 40.0592 34.3328 40.0839 34.3724 40.0956C34.4093 40.114 34.4517 40.1188 34.4919 40.1092C34.5321 40.0997 34.5675 40.0763 34.592 40.0434L44.09 29.3782C44.1182 29.3503 44.137 29.3144 44.1435 29.2755C44.1501 29.2366 44.1442 29.1966 44.1266 29.1612C44.1105 29.124 44.083 29.0928 44.048 29.0718C44.013 29.0509 43.9722 29.0414 43.9314 29.0447H40.0566C39.7262 29.0436 39.4098 28.9132 39.1766 28.6819C38.9434 28.4507 38.8124 28.1375 38.8124 27.811V18.8858C38.8151 18.845 38.8036 18.8045 38.78 18.771C38.7564 18.7374 38.7219 18.7127 38.6823 18.701C38.6545 18.6926 38.6259 18.6872 38.5969 18.6849Z" fill="white"/>
<path d="M28.0942 20.7129H19.3118C18.9936 20.6949 18.6944 20.5573 18.4755 20.3283C18.2567 20.0993 18.1348 19.7962 18.1348 19.4812C18.1348 19.1662 18.2567 18.8631 18.4755 18.6341C18.6944 18.4051 18.9936 18.2675 19.3118 18.2495H28.0942C28.4124 18.2675 28.7116 18.4051 28.9305 18.6341C29.1493 18.8631 29.2712 19.1662 29.2712 19.4812C29.2712 19.7962 29.1493 20.0993 28.9305 20.3283C28.7116 20.5573 28.4124 20.6949 28.0942 20.7129Z" fill="white"/>
<path d="M26.8376 40.546H19.3116C18.9816 40.546 18.6651 40.4164 18.4318 40.1858C18.1985 39.9552 18.0674 39.6425 18.0674 39.3163C18.0674 38.9902 18.1985 38.6774 18.4318 38.4468C18.6651 38.2162 18.9816 38.0867 19.3116 38.0867H26.8376C27.1676 38.0867 27.484 38.2162 27.7174 38.4468C27.9507 38.6774 28.0818 38.9902 28.0818 39.3163C28.0818 39.6425 27.9507 39.9552 27.7174 40.1858C27.484 40.4164 27.1676 40.546 26.8376 40.546Z" fill="white"/>
<defs>
<linearGradient id="paint0_linear_87_18642" x1="0" y1="29.945" x2="59.8908" y2="29.945" gradientUnits="userSpaceOnUse">
<stop stop-color="#FB7C5F"/>
<stop offset="1" stop-color="#DF525B"/>
</linearGradient>
</defs>
</svg>
