<svg width="236" height="60" viewBox="0 0 236 60" fill="none" xmlns="http://www.w3.org/2000/svg">
<path d="M76.1104 23.9333V2.16852H81.7882V23.9333H76.1104Z" fill="#171D25"/>
<path d="M104.623 16.308L104.313 9.47951V2.16852H109.231V23.9333H105.029L94.1219 10.0425L94.3065 17.178V23.9333H89.3587V2.19045H93.5607L104.623 16.308Z" fill="#171D25"/>
<path d="M130.591 7.33794C129.368 6.04021 127.224 5.47339 125.496 5.47339C123.323 5.47339 121.558 6.39076 121.558 7.91224C121.558 9.93341 123.479 10.3138 126.312 10.5674C130.658 10.9477 134.782 12.6258 134.782 17.757C134.782 22.6944 130.25 24.8498 125.496 24.8796C121.685 24.8796 117.717 23.4253 115.855 20.3227L118.822 17.2499C119.648 18.2362 120.679 19.028 121.842 19.5693C123.006 20.1106 124.274 20.3882 125.556 20.3824C128.166 20.3824 129.961 19.3382 129.961 17.757C129.961 15.885 128.478 15.0348 125.511 14.7738C120.854 14.3263 116.693 13.1554 116.76 7.93461C116.76 3.53427 120.943 1.22223 125.482 1.22223C128.878 1.22223 131.415 1.96804 133.691 4.63808L130.591 7.33794Z" fill="#171D25"/>
<path d="M146.42 6.48635H139.513V2.16852H158.439V6.48635H151.532V23.9333H146.482L146.42 6.48635Z" fill="#171D25"/>
<path d="M177.915 20.1826H166.399L164.77 23.9333H159.386L169.438 2.16852H174.898L184.936 23.9333H179.521L177.915 20.1826ZM172.161 7.0841L168.292 15.875H176.007L172.161 7.0841Z" fill="#171D25"/>
<path d="M205.878 16.308L205.568 9.47951V2.16852H210.486V23.9333H206.284L195.377 10.0425L195.562 17.178V23.9333H190.614V2.19045H194.816L205.878 16.308Z" fill="#171D25"/>
<path d="M223.072 6.48635H216.164V2.16852H235.09V6.48635H228.183V23.9333H223.133L223.072 6.48635Z" fill="#171D25"/>
<path d="M90.8538 40.4914C89.6227 39.1961 87.4868 38.623 85.7514 38.623C83.5785 38.623 81.8208 39.546 81.8208 41.0572C81.8208 43.082 83.7416 43.4616 86.5746 43.7147C90.9131 44.0944 95.0365 45.7693 95.0365 50.8834C95.0365 55.8189 90.5052 57.9628 85.7514 58C81.9469 58 77.9792 56.5112 76.1104 53.4442L79.0398 50.3847C79.8665 51.368 80.8978 52.1575 82.0612 52.6976C83.2247 53.2378 84.4918 53.5155 85.7737 53.5112C88.3916 53.5112 90.1863 52.469 90.1863 50.8834C90.1863 49.0224 88.7031 48.1663 85.7366 47.9058C81.0792 47.4591 76.9261 46.2904 76.9855 41.0795C76.9855 36.6875 81.1756 34.3426 85.7069 34.3426C89.1036 34.3426 91.6399 35.087 93.9241 37.7594L90.8538 40.4914Z" fill="#171D25"/>
<path d="M106.59 50.8927V57.0536H101.661V35.2888H112.101C117.768 35.2888 120.587 38.8931 120.587 43.0907C120.587 47.4422 117.738 50.8341 112.101 50.8927H106.59ZM106.59 46.4459H112.101C114.479 46.4459 115.65 44.9222 115.65 43.186C115.662 42.7334 115.577 42.2835 115.4 41.8654C115.224 41.4473 114.959 41.0705 114.624 40.7595C114.289 40.4485 113.892 40.2103 113.457 40.0604C113.022 39.9105 112.56 39.8522 112.101 39.8894H106.597L106.59 46.4459Z" fill="#171D25"/>
<path d="M141.006 53.3248H129.496L127.864 57.0536H122.479L132.54 35.2888H137.992L148.03 57.0536H142.615L141.006 53.3248ZM135.266 40.1971L131.414 49.0319H139.118L135.266 40.1971Z" fill="#171D25"/>
<path d="M171.688 54.8083C170.533 55.8677 169.168 56.6954 167.673 57.2425C166.178 57.7896 164.583 58.0449 162.983 57.9935C154.332 57.9935 150.899 52.6726 150.869 46.7614C150.869 41.1636 154.683 35.2888 162.983 35.2888C164.533 35.2907 166.067 35.5867 167.495 36.1598C168.924 36.7329 170.22 37.5716 171.306 38.6271L168.133 41.6301C166.718 40.4267 164.876 39.7852 162.983 39.837C157.834 39.837 155.827 43.6418 155.858 46.7978C155.888 49.9539 157.666 53.54 162.983 53.54C165.039 53.5084 167.015 52.774 168.552 51.47L171.688 54.8083Z" fill="#171D25"/>
<path d="M194.399 57.0536H177.365V35.2888H193.925V39.7356H182.258V43.9332H193.278V48.1895H182.258V52.5849H194.399V57.0536Z" fill="#171D25"/>
<rect width="59.8908" height="59.89" rx="18" fill="url(#paint0_linear_62_7783)"/>
<path d="M23.0768 30.6267H14.3554C14.0254 30.6267 13.7089 30.4971 13.4756 30.2665C13.2423 30.0359 13.1112 29.7231 13.1112 29.397C13.1112 29.0709 13.2423 28.7581 13.4756 28.5275C13.7089 28.2969 14.0254 28.1673 14.3554 28.1673H23.0971C23.4271 28.1673 23.7436 28.2969 23.9769 28.5275C24.2102 28.7581 24.3413 29.0709 24.3413 29.397C24.3413 29.7231 24.2102 30.0359 23.9769 30.2665C23.7436 30.4971 23.4271 30.6267 23.0971 30.6267H23.0768Z" fill="white"/>
<path d="M34.4574 42.571C34.1296 42.571 33.8045 42.5125 33.4978 42.3982C32.9833 42.211 32.5396 41.8719 32.2268 41.4269C31.9141 40.9819 31.7474 40.4526 31.7494 39.9107V32.2153H29.1229C28.605 32.2147 28.0983 32.0669 27.6631 31.7896C27.2279 31.5122 26.8826 31.117 26.6683 30.6511C26.454 30.1852 26.3799 29.6682 26.4546 29.1618C26.5294 28.6554 26.7499 28.1809 27.0899 27.7949L36.5879 17.1298C36.9486 16.7227 37.4263 16.4341 37.9573 16.3023C38.4883 16.1705 39.0473 16.202 39.5597 16.3923C40.0722 16.5827 40.5137 16.923 40.8255 17.3678C41.1372 17.8126 41.3042 18.3407 41.3044 18.8818V26.5773H43.931C44.4495 26.5762 44.9574 26.723 45.3937 27C45.83 27.277 46.1762 27.6725 46.3908 28.1391C46.6053 28.6057 46.6792 29.1235 46.6035 29.6305C46.5278 30.1376 46.3057 30.6122 45.9639 30.9977L36.47 41.6588C36.22 41.9442 35.911 42.1733 35.5638 42.3307C35.2166 42.4881 34.8393 42.57 34.4574 42.571ZM38.5965 18.6849C38.57 18.6858 38.544 18.6929 38.5207 18.7054C38.4975 18.718 38.4774 18.7357 38.4623 18.7572L28.9643 29.4184C28.938 29.4476 28.9215 29.4842 28.9171 29.5231C28.9128 29.5619 28.9207 29.6012 28.9399 29.6354C28.9525 29.6727 28.9773 29.7049 29.0104 29.7267C29.0436 29.7486 29.0831 29.7588 29.1229 29.7559H32.9977C33.3277 29.7559 33.6441 29.8855 33.8774 30.1161C34.1108 30.3467 34.2419 30.6595 34.2419 30.9856V39.9107C34.2392 39.9516 34.2506 39.9921 34.2743 40.0256C34.2979 40.0592 34.3323 40.0839 34.372 40.0956C34.4089 40.114 34.4512 40.1188 34.4914 40.1092C34.5316 40.0997 34.5671 40.0763 34.5915 40.0434L44.0895 29.3782C44.1178 29.3503 44.1366 29.3144 44.1431 29.2755C44.1497 29.2366 44.1437 29.1966 44.1261 29.1612C44.1101 29.124 44.0826 29.0928 44.0476 29.0718C44.0125 29.0509 43.9718 29.0414 43.931 29.0447H40.0561C39.7258 29.0436 39.4093 28.9132 39.1761 28.6819C38.9429 28.4507 38.812 28.1375 38.812 27.811V18.8858C38.8146 18.845 38.8032 18.8045 38.7796 18.771C38.756 18.7374 38.7215 18.7127 38.6819 18.701C38.6541 18.6926 38.6254 18.6872 38.5965 18.6849Z" fill="white"/>
<path d="M28.0944 20.7129H19.312C18.9938 20.6949 18.6946 20.5573 18.4757 20.3283C18.2569 20.0993 18.1349 19.7962 18.1349 19.4812C18.1349 19.1662 18.2569 18.8631 18.4757 18.6341C18.6946 18.4051 18.9938 18.2675 19.312 18.2495H28.0944C28.4126 18.2675 28.7118 18.4051 28.9306 18.6341C29.1495 18.8631 29.2714 19.1662 29.2714 19.4812C29.2714 19.7962 29.1495 20.0993 28.9306 20.3283C28.7118 20.5573 28.4126 20.6949 28.0944 20.7129Z" fill="white"/>
<path d="M26.8376 40.546H19.3116C18.9816 40.546 18.6651 40.4164 18.4318 40.1858C18.1985 39.9552 18.0674 39.6425 18.0674 39.3163C18.0674 38.9902 18.1985 38.6774 18.4318 38.4468C18.6651 38.2162 18.9816 38.0867 19.3116 38.0867H26.8376C27.1676 38.0867 27.484 38.2162 27.7174 38.4468C27.9507 38.6774 28.0818 38.9902 28.0818 39.3163C28.0818 39.6425 27.9507 39.9552 27.7174 40.1858C27.484 40.4164 27.1676 40.546 26.8376 40.546Z" fill="white"/>
<defs>
<linearGradient id="paint0_linear_62_7783" x1="0" y1="29.945" x2="59.8908" y2="29.945" gradientUnits="userSpaceOnUse">
<stop stop-color="#FB7C5F"/>
<stop offset="1" stop-color="#DF525B"/>
</linearGradient>
</defs>
</svg>
