<svg width="1056" height="412" viewBox="0 0 1056 412" fill="none" xmlns="http://www.w3.org/2000/svg">
<rect width="1056" height="412" fill="url(#paint0_linear_884_1570)"/>
<g opacity="0.05">
<path fill-rule="evenodd" clip-rule="evenodd" d="M495.085 198.899L477.642 208.97C480.841 208.466 482.788 210.065 484.208 211.188L495.422 204.714L507.13 224.993C507.217 225.144 507.289 225.304 507.343 225.47C507.372 225.551 507.395 225.634 507.411 225.719C507.424 225.786 507.438 225.853 507.448 225.922C507.467 226.054 507.478 226.187 507.481 226.32C507.478 226.776 507.356 227.224 507.127 227.619C506.897 228.014 506.568 228.343 506.172 228.573L483.5 241.663L480.768 236.931L476.231 239.551L480.257 246.525C480.602 247.123 481.173 247.558 481.842 247.736C482.512 247.913 483.226 247.817 483.828 247.47L508.769 233.07C510.488 232.08 511.767 230.475 512.345 228.583C512.383 228.461 512.417 228.337 512.45 228.213C512.484 228.09 512.546 227.82 512.582 227.62C512.761 226.605 512.738 225.565 512.515 224.561C512.463 224.311 512.396 224.064 512.314 223.822C512.144 223.32 511.922 222.837 511.654 222.38L498.654 199.863C498.484 199.565 498.258 199.304 497.987 199.094C497.716 198.884 497.406 198.73 497.074 198.641C496.743 198.551 496.396 198.528 496.055 198.573C495.714 198.617 495.384 198.728 495.085 198.899Z" fill="white"/>
<path fill-rule="evenodd" clip-rule="evenodd" d="M526.574 216.778L519.771 220.706L515.868 213.944L518.809 212.246C519.206 212.017 519.536 211.689 519.766 211.295C519.997 210.9 520.12 210.453 520.123 209.998C520.126 209.542 520.01 209.094 519.785 208.699C519.56 208.304 519.234 207.975 518.841 207.745L511.074 203.243C509.879 202.559 508.523 202.2 507.142 202.203C505.761 202.206 504.403 202.569 503.204 203.258L499.003 205.683C498.403 206.03 497.963 206.6 497.782 207.267C497.601 207.935 497.693 208.646 498.038 209.243L507.135 224.999C507.223 225.15 507.294 225.31 507.348 225.477C507.373 225.559 507.396 225.642 507.416 225.725C507.429 225.792 507.443 225.86 507.453 225.929C507.472 226.06 507.483 226.193 507.486 226.327C507.481 226.781 507.357 227.227 507.127 227.621C506.897 228.015 506.568 228.343 506.174 228.573L481.233 242.973C480.631 243.32 480.191 243.891 480.01 244.559C479.828 245.228 479.921 245.939 480.266 246.538L484.157 253.277C484.84 254.462 485.751 255.5 486.839 256.331C487.926 257.162 489.168 257.771 490.494 258.122C491.82 258.473 493.204 258.559 494.566 258.377C495.928 258.194 497.243 257.745 498.434 257.057L500.712 255.741C501.009 255.57 501.271 255.341 501.48 255.069C501.69 254.797 501.844 254.486 501.933 254.155C502.023 253.824 502.046 253.48 502.002 253.14C501.957 252.801 501.846 252.474 501.675 252.179C501.626 252.096 501.583 252.009 501.546 251.919C501.498 251.835 501.474 251.736 501.446 251.644C501.418 251.552 501.411 251.518 501.396 251.456C501.341 251.209 501.323 250.955 501.343 250.702C501.356 250.547 501.382 250.392 501.421 250.241C501.506 249.903 501.658 249.586 501.869 249.307C502.079 249.029 502.343 248.795 502.645 248.62C502.992 248.424 503.378 248.307 503.775 248.28C504.172 248.253 504.57 248.316 504.938 248.464C505.073 248.516 505.203 248.581 505.326 248.657C505.401 248.7 505.472 248.748 505.539 248.801C505.815 249.009 506.045 249.27 506.218 249.569C506.223 249.581 506.229 249.592 506.238 249.603C506.586 250.19 507.154 250.615 507.818 250.787C508.481 250.958 509.187 250.861 509.782 250.517L518.853 245.28C519.452 244.934 519.891 244.365 520.073 243.699C520.254 243.033 520.164 242.324 519.822 241.727C519.715 241.553 519.63 241.367 519.569 241.172C519.548 241.111 519.532 241.048 519.519 240.984C519.372 240.324 519.49 239.631 519.846 239.052C520.07 238.676 520.387 238.364 520.766 238.146C521.051 237.98 521.365 237.873 521.691 237.829C521.793 237.811 521.897 237.801 522.001 237.8C522.11 237.799 522.216 237.801 522.322 237.81C522.634 237.84 522.938 237.924 523.221 238.059C523.298 238.098 523.371 238.139 523.444 238.184C523.589 238.269 523.725 238.37 523.848 238.485C523.879 238.538 523.941 238.573 523.986 238.622C524.031 238.671 524.052 238.692 524.084 238.732C524.179 238.842 524.263 238.961 524.335 239.088C524.505 239.384 524.733 239.643 525.004 239.851C525.276 240.059 525.586 240.212 525.918 240.3C526.249 240.388 526.595 240.409 526.935 240.364C527.276 240.319 527.604 240.207 527.902 240.035L530.171 238.725C531.362 238.039 532.408 237.125 533.248 236.037C534.088 234.95 534.705 233.709 535.065 232.385C535.424 231.062 535.519 229.682 535.344 228.325C535.168 226.968 534.726 225.66 534.043 224.476L530.144 217.724C529.799 217.126 529.229 216.69 528.559 216.513C527.89 216.335 527.175 216.431 526.574 216.778ZM529.506 227.095C529.849 227.687 530.071 228.341 530.16 229.019C530.248 229.698 530.201 230.388 530.022 231.05C529.842 231.712 529.534 232.333 529.113 232.877C528.693 233.42 528.17 233.877 527.574 234.22L527.183 234.445C527.164 234.428 527.144 234.412 527.122 234.397C527.025 234.315 526.926 234.239 526.819 234.155C526.712 234.071 526.615 234.006 526.503 233.92C526.391 233.835 526.294 233.783 526.184 233.717C525.971 233.584 525.75 233.463 525.523 233.356L525.181 233.199L524.869 233.075C524.727 233.024 524.579 232.971 524.425 232.914C524.27 232.858 524.216 232.851 524.107 232.822L523.741 232.734L523.39 232.67C523.265 232.65 523.14 232.63 523.014 232.615C522.607 232.569 522.197 232.553 521.788 232.569C520.514 232.617 519.271 232.975 518.166 233.613C517.061 234.251 516.129 235.149 515.451 236.227C515.233 236.574 515.041 236.937 514.878 237.313C514.828 237.429 514.779 237.549 514.737 237.665L514.643 237.924C514.565 238.152 514.493 238.39 514.444 238.618C514.423 238.697 514.406 238.778 514.392 238.861C514.319 239.217 514.27 239.576 514.246 239.938C514.239 240.029 514.236 240.118 514.235 240.211C514.234 240.303 514.229 240.381 514.232 240.467C514.235 240.553 514.232 240.576 514.235 240.632C514.238 240.689 514.242 240.833 514.247 240.929C514.253 241.026 514.259 241.11 514.269 241.2L514.293 241.408C514.305 241.501 514.318 241.589 514.333 241.681C514.348 241.772 514.347 241.777 514.356 241.822L509.032 244.895C508.959 244.834 508.885 244.772 508.809 244.712L508.799 244.696C508.721 244.633 508.641 244.575 508.562 244.517C508.322 244.358 508.075 244.211 507.821 244.077C507.734 244.027 507.645 243.982 507.559 243.936C507.382 243.847 507.203 243.762 507.02 243.684C506.746 243.571 506.466 243.473 506.182 243.388C506.089 243.359 505.995 243.334 505.898 243.311C505.72 243.266 505.54 243.23 505.359 243.205C505.323 243.197 505.288 243.191 505.252 243.187C505.134 243.164 505.011 243.147 504.89 243.134L504.517 243.099C504.265 243.081 504.012 243.077 503.759 243.086C503.633 243.086 503.507 243.093 503.379 243.105C501.825 243.227 500.34 243.808 499.113 244.773C497.886 245.737 496.973 247.042 496.489 248.522L496.383 248.883C496.353 248.992 496.325 249.096 496.304 249.204C496.282 249.312 496.24 249.508 496.22 249.669L496.173 250.001L496.137 250.376C496.118 250.627 496.112 250.878 496.119 251.129C496.123 251.257 496.129 251.383 496.136 251.507C496.146 251.634 496.16 251.76 496.181 251.898C496.202 252.036 496.213 252.15 496.239 252.282C496.241 252.307 496.245 252.333 496.25 252.359L495.86 252.584C495.261 252.932 494.6 253.159 493.914 253.251C493.228 253.342 492.532 253.297 491.865 253.118C491.198 252.939 490.574 252.629 490.03 252.207C489.486 251.784 489.032 251.258 488.694 250.658L486.098 246.16L508.77 233.07C510.487 232.079 511.766 230.478 512.35 228.589C512.388 228.467 512.422 228.343 512.455 228.22C512.489 228.096 512.546 227.825 512.587 227.627C512.766 226.611 512.743 225.572 512.52 224.567C512.465 224.32 512.397 224.071 512.319 223.828C512.149 223.326 511.928 222.844 511.659 222.387L503.852 208.864L505.755 207.765C506.159 207.535 506.616 207.414 507.08 207.415C507.544 207.415 507.999 207.537 508.4 207.768L512.372 210.062C512.248 210.175 512.131 210.292 512.016 210.413C511.839 210.603 511.675 210.804 511.526 211.017L511.389 211.23C511.28 211.409 511.181 211.594 511.093 211.785C510.958 212.072 510.849 212.37 510.768 212.676C510.688 212.979 510.636 213.288 510.614 213.6C510.609 213.686 510.602 213.769 510.601 213.853L510.599 214.105C510.602 214.19 510.604 214.273 510.61 214.357C510.623 214.524 510.644 214.692 510.673 214.858C510.688 214.942 510.702 215.025 510.722 215.11C510.741 215.194 510.761 215.279 510.786 215.36C510.812 215.441 510.836 215.54 510.867 215.63C510.898 215.721 510.92 215.779 510.95 215.853L511.003 215.989C511.032 216.04 511.061 216.09 511.076 216.152C511.091 216.214 511.143 216.268 511.177 216.327C511.211 216.386 511.264 216.477 511.307 216.552L515.214 223.32C515.476 223.774 515.806 224.185 516.192 224.54C516.316 224.654 516.447 224.761 516.583 224.861C517.272 225.379 518.08 225.717 518.935 225.847C519.214 225.889 519.497 225.91 519.78 225.909C520.066 225.909 520.352 225.883 520.634 225.833L520.853 225.79C521.075 225.742 521.293 225.678 521.506 225.6C521.797 225.493 522.077 225.362 522.345 225.208L526.879 222.59L529.506 227.095Z" fill="white"/>
<path fill-rule="evenodd" clip-rule="evenodd" d="M509.044 244.924C508.97 244.862 508.897 244.801 508.817 244.742L508.808 244.727C508.73 244.664 508.65 244.605 508.57 244.547C508.328 244.374 508.074 244.217 507.812 244.076C507.724 244.026 507.635 243.982 507.55 243.935C507.372 243.846 507.194 243.761 507.01 243.684C506.737 243.568 506.458 243.469 506.172 243.388C506.08 243.358 505.986 243.333 505.888 243.31C505.711 243.265 505.531 243.23 505.349 243.204C505.314 243.196 505.278 243.19 505.242 243.187C505.124 243.163 505.001 243.147 504.88 243.133L504.507 243.098C504.255 243.081 504.002 243.077 503.749 243.085C503.624 243.086 503.497 243.092 503.37 243.104C501.816 243.227 500.331 243.807 499.104 244.772C497.877 245.736 496.963 247.042 496.479 248.521L496.373 248.883C496.344 248.991 496.316 249.095 496.294 249.203C496.273 249.312 496.231 249.507 496.211 249.669L496.163 250.001L496.128 250.375C496.109 250.626 496.103 250.877 496.109 251.128C496.114 251.257 496.119 251.383 496.126 251.506C496.137 251.634 496.151 251.759 496.172 251.897C496.193 252.035 496.204 252.15 496.229 252.281C496.386 253.184 496.701 254.053 497.161 254.846C497.601 255.612 498.17 256.296 498.844 256.868C499.625 257.533 500.531 258.038 501.51 258.353C502.489 258.668 503.521 258.788 504.548 258.705C505.575 258.622 506.577 258.338 507.496 257.87C508.416 257.402 509.234 256.758 509.905 255.975C510.577 255.193 511.088 254.287 511.409 253.31C511.73 252.332 511.855 251.303 511.778 250.279C511.7 249.255 511.421 248.258 510.956 247.344C510.491 246.43 509.849 245.617 509.068 244.952L509.044 244.924ZM505.239 253.142C504.941 253.315 504.613 253.427 504.273 253.473C503.932 253.519 503.586 253.498 503.255 253.41C502.923 253.323 502.613 253.171 502.341 252.963C502.069 252.756 501.841 252.496 501.67 252.2C501.62 252.113 501.569 252.025 501.52 251.941C501.472 251.856 501.448 251.757 501.42 251.665C501.392 251.573 501.385 251.539 501.37 251.477C501.319 251.23 501.302 250.976 501.317 250.724C501.33 250.568 501.356 250.414 501.394 250.262C501.539 249.713 501.858 249.224 502.304 248.87C502.75 248.515 503.299 248.314 503.867 248.296C504.225 248.285 504.582 248.35 504.912 248.486C505.047 248.538 505.177 248.602 505.3 248.678C505.374 248.722 505.446 248.77 505.513 248.822C505.793 249.031 506.027 249.295 506.2 249.598L506.215 249.623C506.545 250.218 506.628 250.919 506.446 251.577C506.263 252.235 505.83 252.797 505.239 253.142Z" fill="white"/>
<path fill-rule="evenodd" clip-rule="evenodd" d="M527.122 234.405C527.025 234.324 526.926 234.248 526.819 234.164C526.712 234.079 526.615 234.014 526.503 233.929C526.391 233.844 526.294 233.791 526.184 233.725C525.97 233.594 525.75 233.473 525.523 233.365L525.181 233.208L524.87 233.083C524.727 233.032 524.579 232.98 524.425 232.923C524.27 232.866 524.216 232.86 524.107 232.831L523.741 232.742L523.39 232.678C523.265 232.658 523.141 232.639 523.015 232.624C522.608 232.577 522.198 232.562 521.788 232.577C520.516 232.632 519.275 232.993 518.172 233.631C517.068 234.268 516.134 235.162 515.451 236.236C515.233 236.583 515.041 236.946 514.878 237.321C514.828 237.438 514.78 237.558 514.737 237.674L514.643 237.932C514.566 238.161 514.493 238.398 514.444 238.627C514.423 238.706 514.407 238.786 514.392 238.87C514.319 239.225 514.27 239.585 514.246 239.947C514.24 240.038 514.237 240.127 514.236 240.219C514.234 240.312 514.229 240.39 514.232 240.476C514.236 240.561 514.232 240.584 514.235 240.641C514.239 240.697 514.242 240.841 514.248 240.938C514.253 241.035 514.26 241.119 514.27 241.209L514.293 241.416C514.305 241.51 514.318 241.598 514.333 241.689C514.348 241.781 514.347 241.786 514.356 241.83C514.517 242.707 514.827 243.549 515.273 244.32C515.713 245.086 516.283 245.77 516.957 246.342C517.739 247.018 518.649 247.532 519.634 247.853C520.619 248.175 521.659 248.298 522.694 248.216C523.729 248.134 524.739 247.847 525.664 247.374C526.589 246.9 527.412 246.248 528.085 245.457C528.757 244.665 529.266 243.749 529.582 242.761C529.898 241.774 530.014 240.735 529.924 239.704C529.834 238.674 529.54 237.672 529.059 236.758C528.577 235.844 527.918 235.035 527.119 234.378L527.122 234.405ZM523.369 242.677C523.072 242.849 522.743 242.962 522.403 243.008C522.063 243.054 521.717 243.032 521.385 242.945C521.054 242.857 520.743 242.705 520.471 242.498C520.2 242.29 519.972 242.031 519.801 241.735C519.699 241.558 519.619 241.368 519.563 241.171C519.543 241.11 519.526 241.047 519.514 240.983C519.367 240.323 519.485 239.63 519.841 239.051C520.043 238.727 520.312 238.45 520.63 238.239C520.948 238.028 521.309 237.888 521.686 237.828C521.79 237.815 521.893 237.805 521.996 237.799C522.105 237.799 522.211 237.8 522.317 237.81C522.629 237.839 522.933 237.923 523.215 238.058C523.292 238.097 523.366 238.138 523.439 238.183C523.582 238.271 523.718 238.372 523.843 238.484C523.874 238.537 523.936 238.572 523.981 238.621C524.026 238.67 524.047 238.691 524.078 238.732C524.173 238.846 524.258 238.969 524.332 239.098C524.506 239.394 524.619 239.723 524.665 240.063C524.71 240.404 524.688 240.751 524.598 241.084C524.509 241.417 524.354 241.729 524.143 242.002C523.932 242.276 523.669 242.505 523.369 242.677Z" fill="white"/>
<path fill-rule="evenodd" clip-rule="evenodd" d="M526.6 212.273L518.822 207.752C518.424 207.523 517.973 207.402 517.513 207.403C517.053 207.403 516.6 207.525 516.201 207.756L513.279 209.443C512.961 209.626 512.663 209.84 512.389 210.082C512.265 210.195 512.148 210.312 512.034 210.433C511.856 210.622 511.692 210.824 511.543 211.037L511.406 211.25C511.297 211.429 511.198 211.614 511.11 211.805C510.975 212.092 510.866 212.39 510.785 212.696C510.705 212.999 510.653 213.308 510.631 213.62C510.626 213.706 510.619 213.789 510.618 213.873L510.616 214.125C510.619 214.21 510.621 214.293 510.627 214.377C510.64 214.544 510.661 214.711 510.69 214.878C510.705 214.962 510.719 215.045 510.739 215.129C510.758 215.214 510.778 215.299 510.804 215.38C510.829 215.461 510.853 215.56 510.884 215.65C510.915 215.741 510.937 215.799 510.967 215.873L511.02 216.009C511.049 216.059 511.078 216.11 511.093 216.172C511.108 216.234 511.16 216.287 511.194 216.347C511.228 216.406 511.281 216.497 511.324 216.572L515.232 223.34C515.493 223.794 515.823 224.205 516.209 224.56C516.333 224.674 516.464 224.781 516.6 224.881C517.289 225.399 518.097 225.737 518.952 225.867C519.231 225.912 519.514 225.933 519.797 225.929C520.083 225.929 520.369 225.903 520.651 225.853L520.87 225.81C521.092 225.762 521.31 225.698 521.524 225.62C521.816 225.515 522.098 225.384 522.367 225.229L529.17 221.302C529.468 221.13 529.729 220.901 529.938 220.629C530.148 220.357 530.302 220.046 530.391 219.716C530.481 219.385 530.504 219.04 530.46 218.701C530.416 218.361 530.305 218.035 530.133 217.739L527.526 213.223C527.305 212.831 526.986 212.504 526.6 212.273ZM524.308 218.091L519.774 220.709L515.871 213.947L517.475 213.021L523.351 216.434L524.308 218.091Z" fill="white"/>
<path d="M463.184 216.952L471.811 211.971C476.845 209.065 481.604 210.274 484.114 214.621C486.918 219.478 484.574 224.189 479.839 226.923L476.309 228.961L479.951 235.269L475.307 237.95L463.184 216.952ZM477.619 222.729C479.941 221.388 480.501 219.226 479.428 217.368C478.233 215.298 476.147 215.027 473.818 216.371L470.235 218.44L473.938 224.854L477.619 222.729Z" fill="white"/>
</g>
<g opacity="0.05">
<path fill-rule="evenodd" clip-rule="evenodd" d="M820.898 198.899L803.455 208.97C806.654 208.466 808.6 210.065 810.021 211.188L821.234 204.714L832.942 224.993C833.03 225.144 833.101 225.304 833.155 225.47C833.185 225.551 833.208 225.634 833.223 225.719C833.237 225.786 833.25 225.853 833.261 225.922C833.279 226.054 833.29 226.187 833.294 226.32C833.291 226.776 833.169 227.224 832.939 227.619C832.709 228.014 832.38 228.343 831.985 228.573L809.312 241.663L806.58 236.931L802.043 239.551L806.07 246.525C806.415 247.123 806.985 247.558 807.655 247.736C808.324 247.913 809.038 247.817 809.64 247.47L834.581 233.07C836.3 232.08 837.579 230.475 838.157 228.583C838.196 228.461 838.229 228.337 838.263 228.213C838.296 228.09 838.359 227.82 838.394 227.62C838.573 226.605 838.55 225.565 838.327 224.561C838.275 224.311 838.208 224.064 838.127 223.822C837.956 223.32 837.735 222.837 837.467 222.38L824.466 199.863C824.297 199.565 824.07 199.304 823.799 199.094C823.528 198.884 823.218 198.73 822.887 198.641C822.555 198.551 822.209 198.528 821.867 198.573C821.526 198.617 821.197 198.728 820.898 198.899Z" fill="white"/>
<path fill-rule="evenodd" clip-rule="evenodd" d="M852.386 216.778L845.584 220.706L841.68 213.944L844.622 212.246C845.018 212.017 845.348 211.689 845.579 211.295C845.809 210.9 845.932 210.453 845.936 209.998C845.939 209.542 845.822 209.094 845.597 208.699C845.372 208.304 845.047 207.975 844.654 207.745L836.886 203.243C835.691 202.559 834.336 202.2 832.955 202.203C831.574 202.206 830.216 202.569 829.016 203.258L824.816 205.683C824.215 206.03 823.776 206.6 823.595 207.267C823.414 207.935 823.506 208.646 823.851 209.243L832.947 224.999C833.035 225.15 833.106 225.31 833.16 225.477C833.186 225.559 833.208 225.642 833.228 225.725C833.242 225.792 833.255 225.86 833.266 225.929C833.285 226.06 833.296 226.193 833.299 226.327C833.293 226.781 833.169 227.227 832.939 227.621C832.709 228.015 832.381 228.343 831.986 228.573L807.045 242.973C806.443 243.32 806.004 243.891 805.822 244.559C805.641 245.228 805.733 245.939 806.078 246.538L809.97 253.277C810.652 254.462 811.564 255.5 812.651 256.331C813.738 257.162 814.981 257.771 816.307 258.122C817.633 258.473 819.016 258.559 820.379 258.377C821.741 258.194 823.055 257.745 824.246 257.057L826.524 255.741C826.822 255.57 827.083 255.341 827.293 255.069C827.502 254.797 827.656 254.486 827.746 254.155C827.835 253.824 827.858 253.48 827.814 253.14C827.77 252.801 827.659 252.474 827.488 252.179C827.438 252.096 827.395 252.009 827.359 251.919C827.31 251.835 827.287 251.736 827.259 251.644C827.23 251.552 827.224 251.518 827.209 251.456C827.153 251.209 827.135 250.955 827.156 250.702C827.169 250.547 827.195 250.392 827.233 250.241C827.318 249.903 827.471 249.586 827.681 249.307C827.891 249.029 828.156 248.795 828.458 248.62C828.804 248.424 829.191 248.307 829.588 248.28C829.985 248.253 830.382 248.316 830.751 248.464C830.886 248.516 831.016 248.581 831.139 248.657C831.213 248.7 831.284 248.748 831.352 248.801C831.627 249.009 831.858 249.27 832.03 249.569C832.035 249.581 832.042 249.592 832.05 249.603C832.399 250.19 832.967 250.615 833.63 250.787C834.293 250.958 834.999 250.861 835.594 250.517L844.665 245.28C845.265 244.934 845.704 244.365 845.885 243.699C846.067 243.033 845.977 242.324 845.634 241.727C845.527 241.553 845.442 241.367 845.381 241.172C845.361 241.111 845.344 241.048 845.331 240.984C845.185 240.324 845.302 239.631 845.659 239.052C845.883 238.676 846.199 238.364 846.579 238.146C846.863 237.98 847.177 237.873 847.503 237.829C847.606 237.811 847.71 237.801 847.814 237.8C847.923 237.799 848.028 237.801 848.134 237.81C848.447 237.84 848.751 237.924 849.033 238.059C849.11 238.098 849.184 238.139 849.256 238.184C849.402 238.269 849.537 238.37 849.661 238.485C849.691 238.538 849.754 238.573 849.799 238.622C849.844 238.671 849.864 238.692 849.896 238.732C849.992 238.842 850.076 238.961 850.147 239.088C850.318 239.384 850.545 239.643 850.817 239.851C851.089 240.059 851.399 240.212 851.73 240.3C852.061 240.388 852.407 240.409 852.748 240.364C853.088 240.319 853.417 240.207 853.715 240.035L855.983 238.725C857.175 238.039 858.221 237.125 859.06 236.037C859.9 234.95 860.518 233.709 860.877 232.385C861.237 231.062 861.332 229.682 861.156 228.325C860.981 226.968 860.539 225.66 859.855 224.476L855.957 217.724C855.611 217.126 855.041 216.69 854.372 216.513C853.702 216.335 852.988 216.431 852.386 216.778ZM855.318 227.095C855.661 227.687 855.883 228.341 855.972 229.019C856.061 229.698 856.014 230.388 855.834 231.05C855.655 231.712 855.346 232.333 854.926 232.877C854.506 233.42 853.983 233.877 853.386 234.22L852.996 234.445C852.977 234.428 852.956 234.412 852.935 234.397C852.837 234.315 852.739 234.239 852.631 234.155C852.524 234.071 852.428 234.006 852.316 233.92C852.203 233.835 852.106 233.783 851.997 233.717C851.783 233.584 851.563 233.463 851.335 233.356L850.993 233.199L850.682 233.075C850.539 233.024 850.392 232.971 850.237 232.914C850.083 232.858 850.029 232.851 849.92 232.822L849.554 232.734L849.202 232.67C849.077 232.65 848.953 232.63 848.827 232.615C848.42 232.569 848.01 232.553 847.6 232.569C846.327 232.617 845.083 232.975 843.979 233.613C842.874 234.251 841.941 235.149 841.263 236.227C841.045 236.574 840.853 236.937 840.69 237.313C840.64 237.429 840.592 237.549 840.55 237.665L840.456 237.924C840.378 238.152 840.305 238.39 840.257 238.618C840.235 238.697 840.219 238.778 840.204 238.861C840.131 239.217 840.083 239.576 840.058 239.938C840.052 240.029 840.049 240.118 840.048 240.211C840.047 240.303 840.041 240.381 840.045 240.467C840.048 240.553 840.044 240.576 840.048 240.632C840.051 240.689 840.054 240.833 840.06 240.929C840.065 241.026 840.072 241.11 840.082 241.2L840.105 241.408C840.117 241.501 840.13 241.589 840.145 241.681C840.16 241.772 840.159 241.777 840.168 241.822L834.845 244.895C834.771 244.834 834.698 244.772 834.621 244.712L834.612 244.696C834.534 244.633 834.454 244.575 834.374 244.517C834.135 244.358 833.888 244.211 833.634 244.077C833.546 244.027 833.457 243.982 833.372 243.936C833.194 243.847 833.016 243.762 832.832 243.684C832.558 243.571 832.279 243.473 831.994 243.388C831.902 243.359 831.808 243.334 831.71 243.311C831.533 243.266 831.353 243.23 831.171 243.205C831.136 243.197 831.1 243.191 831.064 243.187C830.946 243.164 830.823 243.147 830.702 243.134L830.329 243.099C830.077 243.081 829.824 243.077 829.571 243.086C829.446 243.086 829.319 243.093 829.192 243.105C827.638 243.227 826.153 243.808 824.926 244.773C823.699 245.737 822.785 247.042 822.301 248.522L822.195 248.883C822.166 248.992 822.138 249.096 822.116 249.204C822.095 249.312 822.053 249.508 822.033 249.669L821.985 250.001L821.95 250.376C821.931 250.627 821.924 250.878 821.931 251.129C821.936 251.257 821.941 251.383 821.948 251.507C821.959 251.634 821.973 251.76 821.994 251.898C822.015 252.036 822.026 252.15 822.051 252.282C822.053 252.307 822.057 252.333 822.062 252.359L821.672 252.584C821.074 252.932 820.412 253.159 819.726 253.251C819.041 253.342 818.344 253.297 817.677 253.118C817.011 252.939 816.387 252.629 815.843 252.207C815.298 251.784 814.844 251.258 814.507 250.658L811.91 246.16L834.583 233.07C836.299 232.079 837.578 230.478 838.162 228.589C838.201 228.467 838.234 228.343 838.268 228.22C838.301 228.096 838.359 227.825 838.4 227.627C838.578 226.611 838.555 225.572 838.332 224.567C838.277 224.32 838.209 224.071 838.132 223.828C837.961 223.326 837.74 222.844 837.472 222.387L829.664 208.864L831.568 207.765C831.972 207.535 832.428 207.414 832.893 207.415C833.357 207.415 833.812 207.537 834.213 207.768L838.184 210.062C838.061 210.175 837.944 210.292 837.829 210.413C837.651 210.603 837.488 210.804 837.339 211.017L837.201 211.23C837.093 211.409 836.994 211.594 836.905 211.785C836.77 212.072 836.662 212.37 836.581 212.676C836.5 212.979 836.448 213.288 836.426 213.6C836.421 213.686 836.415 213.769 836.413 213.853L836.411 214.105C836.415 214.19 836.416 214.273 836.423 214.357C836.435 214.524 836.456 214.692 836.486 214.858C836.5 214.942 836.515 215.025 836.534 215.11C836.554 215.194 836.573 215.279 836.599 215.36C836.625 215.441 836.648 215.54 836.68 215.63C836.711 215.721 836.732 215.779 836.762 215.853L836.816 215.989C836.845 216.04 836.873 216.09 836.888 216.152C836.903 216.214 836.955 216.268 836.99 216.327C837.024 216.386 837.076 216.477 837.12 216.552L841.027 223.32C841.289 223.774 841.618 224.185 842.004 224.54C842.129 224.654 842.259 224.761 842.395 224.861C843.084 225.379 843.892 225.717 844.747 225.847C845.027 225.889 845.309 225.91 845.593 225.909C845.879 225.909 846.165 225.883 846.446 225.833L846.665 225.79C846.887 225.742 847.106 225.678 847.319 225.6C847.609 225.493 847.89 225.362 848.158 225.208L852.692 222.59L855.318 227.095Z" fill="white"/>
<path fill-rule="evenodd" clip-rule="evenodd" d="M834.856 244.925C834.783 244.863 834.709 244.801 834.63 244.743L834.621 244.727C834.542 244.664 834.462 244.606 834.383 244.548C834.14 244.375 833.887 244.217 833.624 244.077C833.537 244.027 833.448 243.982 833.362 243.936C833.185 243.846 833.006 243.762 832.823 243.684C832.55 243.569 832.27 243.47 831.985 243.388C831.892 243.358 831.798 243.334 831.701 243.31C831.523 243.265 831.343 243.23 831.162 243.205C831.127 243.196 831.091 243.19 831.055 243.187C830.937 243.164 830.814 243.147 830.693 243.134L830.32 243.099C830.068 243.081 829.815 243.077 829.562 243.086C829.436 243.086 829.31 243.093 829.182 243.105C827.628 243.227 826.143 243.808 824.916 244.772C823.689 245.737 822.776 247.042 822.292 248.522L822.186 248.883C822.156 248.992 822.128 249.096 822.107 249.204C822.086 249.312 822.043 249.508 822.023 249.669L821.976 250.001L821.94 250.376C821.921 250.627 821.915 250.878 821.922 251.129C821.926 251.257 821.932 251.383 821.939 251.507C821.949 251.634 821.963 251.76 821.984 251.898C822.005 252.036 822.017 252.15 822.042 252.281C822.199 253.185 822.514 254.053 822.973 254.846C823.413 255.612 823.983 256.296 824.657 256.868C825.438 257.533 826.344 258.038 827.323 258.353C828.301 258.668 829.334 258.788 830.361 258.705C831.388 258.622 832.39 258.339 833.309 257.87C834.228 257.402 835.047 256.758 835.718 255.976C836.389 255.194 836.9 254.288 837.221 253.31C837.543 252.333 837.668 251.303 837.59 250.279C837.512 249.256 837.233 248.258 836.768 247.344C836.303 246.43 835.662 245.618 834.881 244.952L834.856 244.925ZM831.051 253.143C830.754 253.315 830.425 253.428 830.085 253.473C829.745 253.519 829.399 253.498 829.067 253.411C828.736 253.323 828.425 253.171 828.153 252.964C827.882 252.756 827.654 252.497 827.483 252.201C827.432 252.113 827.382 252.026 827.333 251.941C827.284 251.857 827.261 251.758 827.232 251.666C827.204 251.573 827.198 251.54 827.183 251.478C827.132 251.23 827.114 250.977 827.13 250.724C827.143 250.569 827.169 250.414 827.207 250.263C827.351 249.713 827.671 249.225 828.117 248.87C828.563 248.516 829.111 248.314 829.68 248.297C830.038 248.286 830.394 248.35 830.725 248.486C830.86 248.538 830.99 248.603 831.113 248.679C831.187 248.722 831.258 248.77 831.326 248.823C831.606 249.032 831.839 249.295 832.013 249.598L832.027 249.623C832.357 250.218 832.44 250.92 832.258 251.578C832.076 252.235 831.643 252.797 831.051 253.143Z" fill="white"/>
<path fill-rule="evenodd" clip-rule="evenodd" d="M852.935 234.405C852.838 234.324 852.739 234.248 852.632 234.164C852.524 234.079 852.428 234.014 852.316 233.929C852.204 233.844 852.106 233.791 851.997 233.725C851.783 233.594 851.562 233.473 851.336 233.365L850.993 233.208L850.682 233.083C850.539 233.032 850.392 232.98 850.237 232.923C850.083 232.866 850.029 232.86 849.92 232.831L849.554 232.742L849.202 232.678C849.078 232.658 848.953 232.639 848.827 232.624C848.42 232.577 848.01 232.562 847.6 232.577C846.329 232.632 845.088 232.993 843.984 233.631C842.88 234.268 841.947 235.162 841.264 236.236C841.045 236.583 840.854 236.946 840.691 237.321C840.64 237.438 840.592 237.558 840.55 237.674L840.456 237.932C840.378 238.161 840.306 238.398 840.257 238.627C840.236 238.706 840.219 238.786 840.204 238.87C840.132 239.225 840.083 239.585 840.058 239.947C840.052 240.038 840.049 240.127 840.048 240.219C840.047 240.312 840.042 240.39 840.045 240.476C840.048 240.561 840.045 240.584 840.048 240.641C840.051 240.697 840.055 240.841 840.06 240.938C840.066 241.035 840.072 241.119 840.082 241.209L840.106 241.416C840.117 241.51 840.131 241.598 840.146 241.689C840.161 241.781 840.159 241.786 840.168 241.83C840.33 242.707 840.64 243.549 841.086 244.32C841.526 245.086 842.095 245.77 842.769 246.342C843.551 247.018 844.461 247.532 845.446 247.853C846.431 248.175 847.471 248.298 848.506 248.216C849.542 248.134 850.551 247.847 851.476 247.374C852.402 246.9 853.225 246.248 853.897 245.457C854.57 244.665 855.079 243.749 855.394 242.761C855.71 241.774 855.827 240.735 855.737 239.704C855.647 238.674 855.353 237.672 854.871 236.758C854.39 235.844 853.73 235.035 852.932 234.378L852.935 234.405ZM849.182 242.677C848.884 242.849 848.556 242.962 848.216 243.008C847.875 243.054 847.529 243.032 847.198 242.945C846.866 242.857 846.556 242.705 846.284 242.498C846.012 242.29 845.784 242.031 845.613 241.735C845.511 241.558 845.431 241.368 845.376 241.171C845.356 241.11 845.339 241.047 845.326 240.983C845.18 240.323 845.297 239.63 845.654 239.051C845.855 238.727 846.124 238.45 846.443 238.239C846.761 238.028 847.121 237.888 847.498 237.828C847.602 237.815 847.706 237.805 847.809 237.799C847.917 237.799 848.023 237.8 848.129 237.81C848.441 237.839 848.746 237.923 849.028 238.058C849.105 238.097 849.179 238.138 849.251 238.183C849.395 238.271 849.53 238.372 849.656 238.484C849.686 238.537 849.748 238.572 849.793 238.621C849.839 238.67 849.859 238.691 849.891 238.732C849.986 238.846 850.071 238.969 850.144 239.098C850.318 239.394 850.431 239.723 850.477 240.063C850.523 240.404 850.5 240.751 850.411 241.084C850.321 241.417 850.166 241.729 849.956 242.002C849.745 242.276 849.482 242.505 849.182 242.677Z" fill="white"/>
<path fill-rule="evenodd" clip-rule="evenodd" d="M852.412 212.273L844.634 207.753C844.237 207.523 843.786 207.403 843.325 207.403C842.865 207.404 842.413 207.525 842.014 207.756L839.091 209.444C838.774 209.626 838.476 209.84 838.201 210.082C838.078 210.195 837.961 210.313 837.846 210.433C837.668 210.623 837.505 210.825 837.356 211.038L837.218 211.25C837.11 211.43 837.011 211.615 836.922 211.805C836.787 212.092 836.679 212.391 836.598 212.697C836.517 212.999 836.465 213.308 836.443 213.62C836.438 213.706 836.432 213.79 836.43 213.874L836.428 214.125C836.432 214.211 836.433 214.293 836.44 214.377C836.452 214.545 836.473 214.712 836.503 214.879C836.517 214.962 836.532 215.045 836.551 215.13C836.571 215.215 836.59 215.299 836.616 215.38C836.642 215.461 836.665 215.56 836.697 215.651C836.728 215.741 836.749 215.8 836.779 215.874L836.833 216.01C836.862 216.06 836.89 216.11 836.905 216.172C836.92 216.235 836.972 216.288 837.007 216.347C837.041 216.407 837.093 216.498 837.137 216.573L841.044 223.34C841.306 223.794 841.635 224.206 842.021 224.561C842.146 224.675 842.276 224.782 842.412 224.882C843.101 225.399 843.909 225.738 844.764 225.867C845.043 225.913 845.326 225.934 845.61 225.929C845.896 225.929 846.182 225.904 846.464 225.853L846.682 225.811C846.904 225.762 847.123 225.699 847.336 225.621C847.628 225.516 847.911 225.385 848.18 225.23L854.982 221.302C855.28 221.13 855.541 220.902 855.751 220.629C855.96 220.357 856.114 220.047 856.204 219.716C856.293 219.385 856.317 219.04 856.272 218.701C856.228 218.362 856.117 218.035 855.946 217.739L853.338 213.223C853.118 212.832 852.799 212.505 852.412 212.273ZM850.121 218.092L845.587 220.709L841.683 213.948L843.288 213.021L849.164 216.434L850.121 218.092Z" fill="white"/>
<path d="M788.996 216.952L797.623 211.971C802.658 209.065 807.417 210.274 809.927 214.621C812.731 219.478 810.387 224.189 805.651 226.923L802.121 228.961L805.763 235.269L801.119 237.95L788.996 216.952ZM803.432 222.729C805.754 221.388 806.313 219.226 805.241 217.368C804.046 215.298 801.959 215.027 799.631 216.371L796.047 218.44L799.75 224.854L803.432 222.729Z" fill="white"/>
</g>
<g opacity="0.05">
<path fill-rule="evenodd" clip-rule="evenodd" d="M587.821 110.752C590.645 110.686 593.608 111.402 595.978 113.064L612.155 124.412C612.156 124.413 612.157 124.413 612.158 124.414C613.889 125.623 615.317 127.46 616.308 129.361C617.299 131.263 617.989 133.489 617.989 135.607V154.692C617.989 162.192 611.872 168.35 604.348 168.35H574.028C566.499 168.35 560.387 162.188 560.387 154.666V135.24C560.387 133.25 561.011 131.135 561.905 129.311C562.799 127.486 564.09 125.694 565.665 124.468C565.665 124.467 565.665 124.468 565.665 124.468L579.776 113.458C582.066 111.675 584.997 110.819 587.821 110.752ZM582.993 117.595C582.993 117.596 582.993 117.595 582.993 117.595L568.882 128.604C568.101 129.213 567.256 130.293 566.606 131.62C565.955 132.949 565.623 134.267 565.623 135.24V154.666C565.623 159.308 569.408 163.107 574.028 163.107H604.348C608.972 163.107 612.753 159.304 612.753 154.692V135.607C612.753 134.553 612.382 133.162 611.665 131.787C610.948 130.412 610.021 129.314 609.161 128.714L609.155 128.71L592.975 117.359C591.68 116.452 589.865 115.949 587.943 115.994C586.022 116.039 584.237 116.627 582.993 117.595Z" fill="white"/>
<path fill-rule="evenodd" clip-rule="evenodd" d="M574.787 139.538C574.787 133.764 579.494 129.051 585.26 129.051H593.115C598.881 129.051 603.588 133.764 603.588 139.538V147.402C603.588 153.176 598.881 157.888 593.115 157.888H585.26C579.494 157.888 574.787 153.176 574.787 147.402V139.538ZM585.26 134.294C582.386 134.294 580.024 136.66 580.024 139.538V147.402C580.024 150.28 582.386 152.645 585.26 152.645H593.115C595.989 152.645 598.352 150.28 598.352 147.402V139.538C598.352 136.66 595.989 134.294 593.115 134.294H585.26Z" fill="white"/>
<path fill-rule="evenodd" clip-rule="evenodd" d="M589.189 129.051C590.635 129.051 591.807 130.225 591.807 131.673V155.267C591.807 156.715 590.635 157.888 589.189 157.888C587.743 157.888 586.57 156.715 586.57 155.267V131.673C586.57 130.225 587.743 129.051 589.189 129.051Z" fill="white"/>
<path fill-rule="evenodd" clip-rule="evenodd" d="M574.787 143.472C574.787 142.024 575.959 140.85 577.405 140.85H600.97C602.416 140.85 603.588 142.024 603.588 143.472C603.588 144.92 602.416 146.093 600.97 146.093H577.405C575.959 146.093 574.787 144.92 574.787 143.472Z" fill="white"/>
</g>
<g opacity="0.05">
<path fill-rule="evenodd" clip-rule="evenodd" d="M901.414 110.752C904.238 110.685 907.202 111.402 909.572 113.063L925.749 124.412C925.75 124.412 925.751 124.413 925.751 124.413C927.482 125.622 928.91 127.459 929.901 129.36C930.893 131.262 931.583 133.489 931.583 135.607V154.692C931.583 162.191 925.466 168.35 917.942 168.35H887.622C880.093 168.35 873.98 162.187 873.98 154.665V135.24C873.98 133.25 874.605 131.134 875.498 129.31C876.393 127.486 877.684 125.694 879.259 124.467C879.259 124.467 879.258 124.467 879.259 124.467L893.37 113.458C895.66 111.674 898.591 110.818 901.414 110.752ZM896.587 117.595C896.586 117.595 896.587 117.595 896.587 117.595L882.476 128.604C881.695 129.212 880.85 130.292 880.2 131.62C879.549 132.948 879.217 134.267 879.217 135.24V154.665C879.217 159.308 883.001 163.107 887.622 163.107H917.942C922.566 163.107 926.346 159.304 926.346 154.692V135.607C926.346 134.553 925.976 133.161 925.259 131.786C924.542 130.411 923.615 129.313 922.755 128.713L922.749 128.709L906.569 117.359C905.274 116.451 903.459 115.948 901.537 115.993C899.616 116.039 897.831 116.626 896.587 117.595Z" fill="white"/>
<path fill-rule="evenodd" clip-rule="evenodd" d="M888.381 139.537C888.381 133.764 893.088 129.051 898.854 129.051H906.709C912.475 129.051 917.182 133.764 917.182 139.537V147.402C917.182 153.175 912.475 157.888 906.709 157.888H898.854C893.088 157.888 888.381 153.175 888.381 147.402V139.537ZM898.854 134.294C895.98 134.294 893.617 136.659 893.617 139.537V147.402C893.617 150.279 895.98 152.645 898.854 152.645H906.709C909.583 152.645 911.945 150.279 911.945 147.402V139.537C911.945 136.659 909.583 134.294 906.709 134.294H898.854Z" fill="white"/>
<path fill-rule="evenodd" clip-rule="evenodd" d="M902.782 129.051C904.228 129.051 905.401 130.224 905.401 131.672V155.266C905.401 156.714 904.228 157.888 902.782 157.888C901.336 157.888 900.164 156.714 900.164 155.266V131.672C900.164 130.224 901.336 129.051 902.782 129.051Z" fill="white"/>
<path fill-rule="evenodd" clip-rule="evenodd" d="M888.381 143.471C888.381 142.023 889.553 140.85 890.999 140.85H914.564C916.01 140.85 917.182 142.023 917.182 143.471C917.182 144.919 916.01 146.093 914.564 146.093H890.999C889.553 146.093 888.381 144.919 888.381 143.471Z" fill="white"/>
</g>
<g opacity="0.05">
<path fill-rule="evenodd" clip-rule="evenodd" d="M671.758 167.12C673.034 166.412 674.685 166.871 675.446 168.147L688.705 190.373L714.403 190.73C715.888 190.751 717.112 191.95 717.137 193.409C717.162 194.868 715.978 196.034 714.493 196.014L687.238 195.635C686.275 195.622 685.377 195.103 684.884 194.276L670.827 170.713C670.066 169.437 670.483 167.829 671.758 167.12Z" fill="white"/>
<path fill-rule="evenodd" clip-rule="evenodd" d="M688.523 190.69C689.821 191.439 690.287 193.062 689.564 194.314L677.691 214.878C676.968 216.13 675.33 216.538 674.033 215.788C672.735 215.039 672.269 213.417 672.992 212.165L684.865 191.601C685.588 190.349 687.226 189.941 688.523 190.69Z" fill="white"/>
<path fill-rule="evenodd" clip-rule="evenodd" d="M707.552 171.658C707.553 171.658 707.552 171.658 707.552 171.658L716.208 185.63C716.208 185.631 716.208 185.63 716.208 185.63C717.504 187.715 718.111 190.288 718.171 192.706C718.231 195.124 717.753 197.688 716.56 199.754L709.165 212.564C707.972 214.63 705.991 216.326 703.866 217.483C701.742 218.64 699.213 219.401 696.759 219.321C696.758 219.321 696.76 219.321 696.759 219.321L680.328 218.811L680.32 218.811C677.999 218.733 675.578 217.878 673.527 216.694C671.476 215.51 669.526 213.841 668.297 211.869L659.638 197.89C659.637 197.889 659.638 197.891 659.638 197.89C658.341 195.805 657.735 193.233 657.675 190.814C657.614 188.396 658.092 185.833 659.285 183.766L666.681 170.956C667.874 168.89 669.855 167.194 671.98 166.037C674.104 164.88 676.633 164.119 679.086 164.199C679.087 164.2 679.085 164.199 679.086 164.199L695.513 164.709C697.844 164.774 700.266 165.618 702.32 166.804C704.376 167.991 706.321 169.67 707.552 171.658ZM699.702 171.338C698.227 170.487 696.708 170.023 695.525 169.991L695.514 169.991L679.08 169.481L679.075 169.481C677.809 169.439 676.217 169.85 674.698 170.677C673.178 171.505 671.993 172.607 671.38 173.669L663.984 186.479C663.371 187.542 663.009 189.119 663.052 190.848C663.095 192.578 663.536 194.162 664.204 195.237L664.207 195.242L672.862 209.213C672.862 209.213 672.861 209.212 672.862 209.213C673.487 210.216 674.661 211.303 676.145 212.16C677.629 213.016 679.155 213.489 680.336 213.53C680.337 213.53 680.336 213.53 680.336 213.53L696.771 214.04C698.036 214.081 699.629 213.67 701.148 212.843C702.667 212.016 703.852 210.914 704.466 209.851L711.862 197.041C712.475 195.979 712.837 194.402 712.794 192.672C712.751 190.943 712.31 189.358 711.641 188.283L702.98 174.301C702.347 173.279 701.175 172.189 699.702 171.338Z" fill="white"/>
<path fill-rule="evenodd" clip-rule="evenodd" d="M686.34 165.44C687.615 164.731 689.267 165.189 690.029 166.464L705.152 191.761C705.645 192.586 705.661 193.593 705.193 194.403L700.402 202.701C699.679 203.953 698.041 204.361 696.744 203.612C695.446 202.862 694.98 201.24 695.703 199.988L699.738 192.999L685.412 169.034C684.65 167.759 685.065 166.15 686.34 165.44Z" fill="white"/>
</g>
<g opacity="0.05">
<path fill-rule="evenodd" clip-rule="evenodd" d="M996.686 178.503C997.436 177.252 999.096 176.825 1000.39 177.549L1022.99 190.167L1045.42 177.628C1046.72 176.903 1048.38 177.33 1049.13 178.581C1049.88 179.832 1049.44 181.434 1048.14 182.159L1024.35 195.458C1023.51 195.928 1022.47 195.928 1021.63 195.459L997.675 182.081C996.378 181.356 995.935 179.755 996.686 178.503Z" fill="white"/>
<path fill-rule="evenodd" clip-rule="evenodd" d="M1022.98 190.535C1024.48 190.535 1025.7 191.707 1025.7 193.153V216.898C1025.7 218.344 1024.48 219.516 1022.98 219.516C1021.49 219.516 1020.27 218.344 1020.27 216.898V193.153C1020.27 191.707 1021.49 190.535 1022.98 190.535Z" fill="white"/>
<path fill-rule="evenodd" clip-rule="evenodd" d="M1029.95 164.537C1029.95 164.537 1029.95 164.537 1029.95 164.537L1044.43 172.31C1044.43 172.31 1044.43 172.31 1044.43 172.31C1046.6 173.467 1048.41 175.392 1049.67 177.456C1050.93 179.521 1051.8 181.979 1051.8 184.365V199.157C1051.8 201.543 1050.93 204.002 1049.67 206.066C1048.41 208.13 1046.6 210.054 1044.43 211.211C1044.43 211.212 1044.43 211.211 1044.43 211.211L1029.95 218.986L1029.94 218.989C1027.89 220.082 1025.37 220.553 1023 220.553C1020.63 220.553 1018.11 220.082 1016.06 218.989L1001.57 211.212C1001.57 211.212 1001.57 211.213 1001.57 211.212C999.405 210.055 997.594 208.13 996.332 206.066C995.071 204.002 994.203 201.543 994.203 199.157V184.365C994.203 181.979 995.071 179.521 996.332 177.456C997.593 175.392 999.403 173.469 1001.57 172.311C1001.57 172.311 1001.57 172.312 1001.57 172.311L1016.05 164.539C1018.1 163.43 1020.62 162.95 1022.99 162.95C1025.37 162.95 1027.89 163.431 1029.95 164.537ZM1022.99 168.186C1021.29 168.186 1019.74 168.544 1018.7 169.108L1018.69 169.113L1004.2 176.888L1004.2 176.891C1003.08 177.487 1001.91 178.639 1001.01 180.116C1000.1 181.592 999.629 183.139 999.629 184.365V199.157C999.629 200.384 1000.1 201.931 1001.01 203.407C1001.91 204.883 1003.08 206.035 1004.2 206.632L1004.2 206.634L1018.68 214.406C1018.68 214.407 1018.68 214.406 1018.68 214.406C1019.73 214.962 1021.29 215.317 1023 215.317C1024.71 215.317 1026.27 214.963 1027.32 214.407C1027.32 214.407 1027.32 214.408 1027.32 214.407L1041.8 206.632C1042.92 206.035 1044.09 204.883 1045 203.407C1045.9 201.931 1046.37 200.384 1046.37 199.157V184.365C1046.37 183.139 1045.9 181.592 1045 180.116C1044.09 178.639 1042.92 177.487 1041.8 176.891L1027.31 169.113C1026.25 168.544 1024.69 168.186 1022.99 168.186Z" fill="white"/>
<path fill-rule="evenodd" clip-rule="evenodd" d="M1008.47 169.758C1009.22 168.506 1010.88 168.077 1012.18 168.801L1037.92 183.147C1038.76 183.615 1039.28 184.479 1039.28 185.414V194.996C1039.28 196.442 1038.06 197.614 1036.57 197.614C1035.07 197.614 1033.85 196.442 1033.85 194.996V186.926L1009.46 173.335C1008.17 172.612 1007.72 171.011 1008.47 169.758Z" fill="white"/>
</g>
<g opacity="0.05">
<path fill-rule="evenodd" clip-rule="evenodd" d="M502.935 99.0345L503.19 98.6523L505.073 95.8218L507.462 92.239L509.386 89.3469C510.32 87.9396 511.343 86.1641 511.407 84.0861C511.474 81.8966 510.475 79.8424 508.461 77.828L504.339 73.7058C504.151 73.9168 503.95 74.1337 503.743 74.3407L503.712 74.3726C502.929 75.1561 502.065 75.8535 501.134 76.4526L505.481 80.7998C507.03 82.3484 507.292 83.4073 507.271 84.1099C507.251 84.926 506.839 85.8277 505.965 87.1474L500.959 94.6733L481.538 75.2524L482.209 74.8045C482.061 74.6572 481.904 74.5199 481.757 74.3726C480.937 73.5541 480.212 72.6468 479.593 71.6676L477.565 73.0151L477.183 73.2699C476.922 73.4418 476.703 73.6679 476.538 73.9328C476.373 74.1977 476.268 74.4951 476.229 74.8045C476.19 75.1063 476.22 75.413 476.318 75.7014C476.415 75.9897 476.577 76.2521 476.791 76.4685L499.741 99.4186C499.957 99.6328 500.22 99.7949 500.509 99.8925C500.797 99.9901 501.104 100.021 501.407 99.9819C501.714 99.9417 502.01 99.8364 502.273 99.673C502.537 99.5097 502.763 99.292 502.935 99.0345Z" fill="white"/>
<path fill-rule="evenodd" clip-rule="evenodd" d="M492.5 115.222L500.778 105.351C501.766 104.169 503.073 102.531 503.28 100.461C503.344 99.8564 503.311 99.2456 503.183 98.6515C502.866 97.1407 501.939 95.6996 500.514 94.2466L481.969 75.7014C480.515 74.2762 479.066 73.3566 477.564 73.0322C476.969 72.9041 476.359 72.8712 475.754 72.9347C473.692 73.1496 472.056 74.4594 470.874 75.4466L461.001 83.727C458.111 86.1394 457.93 90.4129 460.464 92.9468L463.159 95.6419C464.118 96.6013 465.199 97.2602 466.505 97.2681C467.389 97.233 468.252 96.9815 469.017 96.5356C469.042 96.5097 469.082 96.5018 469.112 96.4839L470.292 95.8768C471.124 95.4429 471.327 95.3951 471.469 95.3971C471.493 95.3971 471.867 95.3971 472.685 96.2152L480.008 103.538C480.302 103.812 480.556 104.127 480.762 104.472C480.811 104.546 480.843 104.63 480.854 104.718C480.846 104.82 480.82 104.92 480.778 105.013C480.649 105.327 480.504 105.634 480.344 105.933L479.741 107.105L479.691 107.203C479.241 107.971 478.988 108.839 478.953 109.728C478.961 111.034 479.62 112.115 480.577 113.072L483.274 115.77C484.457 116.923 486.05 117.561 487.702 117.543C489.355 117.524 490.933 116.852 492.09 115.672C492.235 115.527 492.371 115.379 492.5 115.222ZM486.262 112.782L483.565 110.085C483.386 109.919 483.232 109.729 483.107 109.519C483.116 109.512 483.124 109.504 483.131 109.496C483.215 109.293 483.31 109.096 483.416 108.904L484.025 107.722L484.035 107.712C484.056 107.667 484.08 107.619 484.106 107.569C484.463 106.874 485.03 105.761 485.01 104.492C484.978 102.999 484.19 101.753 483.01 100.572L475.665 93.2275C474.443 92.0053 473.155 91.2629 471.67 91.2509C470.386 91.237 469.285 91.8083 468.626 92.1486C468.599 92.1765 468.553 92.1865 468.519 92.2044L467.337 92.8135C467.032 92.9707 466.877 93.0463 466.745 93.0981L466.71 93.11C466.5 92.9854 466.31 92.8312 466.144 92.6522L463.433 89.9412C463.226 89.7347 463.065 89.4874 462.958 89.2149C462.852 88.9425 462.804 88.6509 462.817 88.3588C462.829 88.0667 462.903 87.7805 463.032 87.5183C463.162 87.2561 463.344 87.0238 463.569 86.8361L473.441 78.5558C474.695 77.5088 475.4 77.0908 476.013 77.0271C476.457 76.9813 477.357 77.0888 478.947 78.6314L497.56 97.2442C499.102 98.8346 499.21 99.7343 499.166 100.18C499.112 100.553 498.977 100.91 498.77 101.225C498.433 101.763 498.055 102.274 497.639 102.754L489.357 112.629C489.171 112.853 488.94 113.036 488.68 113.166C488.419 113.296 488.134 113.371 487.843 113.386C487.552 113.4 487.261 113.354 486.989 113.25C486.717 113.146 486.469 112.987 486.262 112.782Z" fill="white"/>
<path fill-rule="evenodd" clip-rule="evenodd" d="M504.256 92.0352C504.444 91.8393 504.669 91.6825 504.918 91.5738C505.167 91.465 505.435 91.4063 505.707 91.4011C505.979 91.396 506.249 91.4444 506.502 91.5436C506.755 91.6428 506.986 91.7909 507.182 91.9794L508.617 93.4145C509.013 93.8105 509.235 94.3475 509.235 94.9074C509.235 95.4673 509.013 96.0043 508.617 96.4002C508.221 96.7962 507.684 97.0186 507.124 97.0186C506.564 97.0186 506.027 96.7962 505.631 96.4002L504.196 94.9651C504.007 94.769 503.859 94.5376 503.759 94.2841C503.66 94.0306 503.612 93.7599 503.618 93.4877C503.623 93.2156 503.682 92.9471 503.792 92.6979C503.901 92.4486 504.059 92.2234 504.256 92.0352Z" fill="white"/>
<path fill-rule="evenodd" clip-rule="evenodd" d="M503.113 75.9659L500.127 78.9516C499.76 79.3335 499.259 79.5596 498.73 79.5834C498.2 79.6071 497.681 79.4265 497.281 79.079C497.227 79.0354 497.177 78.986 497.134 78.9317C496.987 78.7733 496.87 78.5899 496.787 78.3903C498.208 78.0065 499.567 77.4214 500.822 76.6526C500.926 76.589 501.029 76.5253 501.129 76.4576C502.06 75.8584 502.924 75.1611 503.706 74.3776L503.742 74.3417C503.757 74.6414 503.708 74.9408 503.6 75.2206C503.492 75.5003 503.326 75.7543 503.113 75.9659Z" fill="white"/>
<path fill-rule="evenodd" clip-rule="evenodd" d="M502.288 81.0977C502.1 81.2937 501.875 81.4507 501.627 81.5597C501.378 81.6687 501.11 81.7275 500.838 81.7329C500.567 81.7383 500.297 81.69 500.044 81.5909C499.791 81.4918 499.56 81.3439 499.364 81.1554L496.636 78.4265L496.791 78.3867C498.21 78.0038 499.567 77.42 500.821 76.653L502.344 78.1757C502.724 78.5709 502.931 79.1004 502.92 79.6482C502.91 80.196 502.683 80.7173 502.288 81.0977Z" fill="white"/>
<path fill-rule="evenodd" clip-rule="evenodd" d="M473.746 82.3818C473.934 82.186 474.159 82.0292 474.408 81.9204C474.658 81.8117 474.926 81.753 475.197 81.7478C475.469 81.7427 475.739 81.7911 475.992 81.8903C476.245 81.9895 476.476 82.1376 476.672 82.3261L480.985 86.6394C481.381 87.0354 481.604 87.5724 481.604 88.1323C481.604 88.6922 481.381 89.2292 480.985 89.6251C480.589 90.0211 480.052 90.2435 479.492 90.2435C478.932 90.2435 478.395 90.0211 477.999 89.6251L473.686 85.3118C473.497 85.1157 473.349 84.8843 473.25 84.6307C473.15 84.3772 473.102 84.1066 473.108 83.8344C473.113 83.5622 473.173 83.2938 473.282 83.0445C473.392 82.7953 473.549 82.5701 473.746 82.3818Z" fill="white"/>
<path fill-rule="evenodd" clip-rule="evenodd" d="M486.66 95.295C486.848 95.099 487.073 94.942 487.322 94.833C487.571 94.724 487.838 94.6651 488.11 94.6598C488.382 94.6544 488.652 94.7027 488.904 94.8017C489.157 94.9008 489.388 95.0488 489.584 95.2372L493.883 99.5367C494.279 99.9326 494.502 100.47 494.502 101.029C494.502 101.589 494.279 102.126 493.883 102.522C493.487 102.918 492.95 103.141 492.39 103.141C491.831 103.141 491.294 102.918 490.898 102.522L486.594 98.219C486.406 98.0228 486.259 97.7915 486.161 97.5383C486.062 97.2851 486.015 97.0149 486.021 96.7433C486.027 96.4718 486.086 96.204 486.196 95.9555C486.306 95.707 486.463 95.4825 486.66 95.295Z" fill="white"/>
<path d="M494.064 56.6797L497.357 59.9719C499.279 61.8947 499.301 64.1977 497.633 65.8657C495.768 67.7308 493.35 67.2471 491.543 65.4397L490.195 64.0922L487.777 66.5106L486.005 64.7391L494.064 56.6797ZM493.185 63.929C494.07 64.8147 495.117 64.8028 495.832 64.0882C496.628 63.292 496.501 62.3167 495.615 61.4309L494.236 60.0515L491.771 62.5157L493.185 63.929Z" fill="white"/>
<path d="M499.558 56.5709C500.91 57.922 501.83 59.6438 502.203 61.5183C502.577 63.3929 502.385 65.336 501.654 67.1018C500.922 68.8676 499.683 70.3767 498.094 71.4382C496.504 72.4997 494.636 73.0658 492.724 73.065C490.813 73.0642 488.945 72.4964 487.356 71.4335C485.768 70.3707 484.53 68.8605 483.8 67.094C483.07 65.3276 482.88 63.3843 483.255 61.5101C483.63 59.6358 484.552 57.9148 485.905 56.5649C487.718 54.7564 490.174 53.7408 492.734 53.7408C495.295 53.7408 497.751 54.7564 499.564 56.5649M502.549 53.5792C500.608 51.6375 498.134 50.3152 495.441 49.7796C492.747 49.2439 489.956 49.519 487.419 50.5699C484.882 51.6209 482.714 53.4006 481.188 55.6839C479.663 57.9672 478.849 60.6516 478.849 63.3976C478.849 66.1435 479.664 68.8278 481.19 71.1108C482.716 73.3938 484.884 75.173 487.421 76.2235C489.959 77.2739 492.75 77.5484 495.443 77.0122C498.136 76.476 500.61 75.1532 502.551 73.2112C503.84 71.9221 504.863 70.3917 505.561 68.7073C506.258 67.023 506.617 65.2178 506.617 63.3948C506.617 61.5717 506.257 59.7666 505.559 58.0824C504.862 56.3982 503.839 54.868 502.549 53.5792Z" fill="white"/>
</g>
<g opacity="0.05">
<path fill-rule="evenodd" clip-rule="evenodd" d="M830.929 100.834L831.184 100.452L833.067 97.6217L835.456 94.0388L837.381 91.1467C838.314 89.7394 839.337 87.9639 839.401 85.8859C839.469 83.6964 838.469 81.6422 836.455 79.6278L832.333 75.5056C832.146 75.7166 831.945 75.9335 831.738 76.1406L831.706 76.1724C830.923 76.9559 830.059 77.6533 829.128 78.2524L833.475 82.5996C835.024 84.1482 835.287 85.2071 835.265 85.9097C835.245 86.7258 834.833 87.6275 833.959 88.9472L828.953 96.4732L809.532 77.0522L810.203 76.6043C810.055 76.457 809.898 76.3197 809.751 76.1724C808.931 75.3539 808.206 74.4466 807.587 73.4674L805.559 74.8149L805.177 75.0697C804.917 75.2416 804.697 75.4677 804.532 75.7326C804.368 75.9975 804.262 76.2949 804.223 76.6043C804.184 76.9061 804.215 77.2128 804.312 77.5012C804.409 77.7895 804.571 78.0519 804.785 78.2684L827.735 101.218C827.951 101.433 828.214 101.595 828.503 101.692C828.791 101.79 829.099 101.82 829.401 101.782C829.708 101.742 830.004 101.636 830.267 101.473C830.531 101.309 830.757 101.092 830.929 100.834Z" fill="white"/>
<path fill-rule="evenodd" clip-rule="evenodd" d="M820.494 117.022L828.773 107.151C829.76 105.969 831.068 104.331 831.275 102.261C831.338 101.656 831.305 101.045 831.177 100.451C830.861 98.9405 829.933 97.4994 828.508 96.0464L809.963 77.5012C808.51 76.0761 807.061 75.1565 805.558 74.832C804.964 74.7039 804.353 74.671 803.748 74.7345C801.686 74.9494 800.05 76.2592 798.868 77.2464L788.995 85.5268C786.105 87.9392 785.924 92.2128 788.458 94.7466L791.153 97.4417C792.112 98.4011 793.193 99.06 794.499 99.0679C795.383 99.0328 796.246 98.7813 797.011 98.3354C797.037 98.3096 797.076 98.3016 797.106 98.2837L798.287 97.6766C799.119 97.2427 799.322 97.1949 799.463 97.1969C799.487 97.1969 799.861 97.1969 800.679 98.015L808.002 105.338C808.296 105.612 808.55 105.926 808.756 106.271C808.805 106.346 808.837 106.43 808.848 106.518C808.84 106.62 808.814 106.72 808.772 106.813C808.643 107.126 808.498 107.433 808.338 107.732L807.735 108.905L807.686 109.002C807.235 109.771 806.982 110.638 806.947 111.528C806.955 112.834 807.614 113.915 808.571 114.872L811.268 117.569C812.452 118.723 814.044 119.361 815.696 119.342C817.349 119.324 818.927 118.651 820.084 117.472C820.229 117.326 820.365 117.179 820.494 117.022ZM814.256 114.582L811.559 111.885C811.38 111.719 811.226 111.529 811.101 111.319C811.11 111.312 811.118 111.304 811.125 111.295C811.209 111.093 811.304 110.896 811.41 110.704L812.019 109.522L812.029 109.512C812.05 109.467 812.074 109.419 812.1 109.369C812.457 108.674 813.024 107.561 813.004 106.291C812.972 104.798 812.184 103.552 811.004 102.372L803.659 95.0273C802.437 93.8051 801.149 93.0627 799.664 93.0507C798.38 93.0368 797.279 93.6081 796.621 93.9484C796.593 93.9763 796.547 93.9863 796.513 94.0042L795.331 94.6133C795.026 94.7705 794.871 94.8462 794.74 94.8979L794.704 94.9098C794.494 94.7852 794.304 94.631 794.138 94.452L791.427 91.741C791.22 91.5345 791.059 91.2872 790.953 91.0147C790.846 90.7423 790.798 90.4507 790.811 90.1586C790.824 89.8665 790.897 89.5803 791.027 89.3181C791.156 89.0559 791.339 88.8236 791.563 88.6359L801.435 80.3556C802.689 79.3086 803.394 78.8906 804.007 78.8269C804.451 78.7811 805.351 78.8886 806.941 80.4312L825.554 99.044C827.097 100.634 827.204 101.534 827.16 101.98C827.106 102.353 826.971 102.71 826.764 103.025C826.427 103.563 826.049 104.074 825.634 104.554L817.351 114.428C817.165 114.653 816.934 114.836 816.674 114.966C816.413 115.096 816.128 115.171 815.837 115.185C815.546 115.2 815.256 115.154 814.983 115.05C814.711 114.946 814.463 114.786 814.256 114.582Z" fill="white"/>
<path fill-rule="evenodd" clip-rule="evenodd" d="M832.25 93.835C832.438 93.6391 832.663 93.4824 832.912 93.3736C833.161 93.2648 833.429 93.2061 833.701 93.2009C833.973 93.1958 834.243 93.2442 834.496 93.3434C834.749 93.4426 834.98 93.5907 835.176 93.7792L836.611 95.2144C837.007 95.6103 837.229 96.1473 837.229 96.7072C837.229 97.2671 837.007 97.8041 836.611 98.2C836.215 98.596 835.678 98.8184 835.118 98.8184C834.558 98.8184 834.021 98.596 833.625 98.2L832.19 96.7649C832.001 96.5688 831.853 96.3374 831.754 96.0839C831.654 95.8304 831.606 95.5597 831.612 95.2876C831.617 95.0154 831.676 94.7469 831.786 94.4977C831.895 94.2484 832.053 94.0232 832.25 93.835Z" fill="white"/>
<path fill-rule="evenodd" clip-rule="evenodd" d="M831.107 77.7653L828.122 80.751C827.754 81.1328 827.253 81.359 826.724 81.3827C826.194 81.4064 825.676 81.2258 825.275 80.8783C825.221 80.8347 825.172 80.7853 825.128 80.7311C824.981 80.5726 824.864 80.3892 824.782 80.1896C826.202 79.8059 827.561 79.2207 828.816 78.452C828.92 78.3883 829.023 78.3246 829.123 78.2569C830.054 77.6577 830.918 76.9604 831.7 76.1769L831.736 76.141C831.751 76.4407 831.702 76.7401 831.594 77.0199C831.486 77.2996 831.32 77.5536 831.107 77.7653Z" fill="white"/>
<path fill-rule="evenodd" clip-rule="evenodd" d="M830.283 82.8975C830.094 83.0935 829.87 83.2505 829.621 83.3595C829.372 83.4685 829.104 83.5273 828.833 83.5327C828.561 83.5381 828.291 83.4898 828.038 83.3907C827.785 83.2916 827.554 83.1437 827.359 82.9552L824.63 80.2263L824.785 80.1865C826.204 79.8036 827.562 79.2198 828.816 78.4528L830.338 79.9755C830.718 80.3707 830.925 80.9002 830.915 81.448C830.904 81.9958 830.677 82.5171 830.283 82.8975Z" fill="white"/>
<path fill-rule="evenodd" clip-rule="evenodd" d="M801.74 84.1816C801.928 83.9858 802.154 83.829 802.403 83.7202C802.652 83.6115 802.92 83.5528 803.191 83.5476C803.463 83.5425 803.733 83.5909 803.986 83.6901C804.239 83.7893 804.47 83.9374 804.666 84.1259L808.979 88.4392C809.375 88.8352 809.598 89.3722 809.598 89.9321C809.598 90.492 809.375 91.029 808.979 91.4249C808.583 91.8209 808.046 92.0433 807.486 92.0433C806.927 92.0433 806.39 91.8209 805.994 91.4249L801.68 87.1116C801.491 86.9155 801.343 86.6841 801.244 86.4305C801.145 86.177 801.096 85.9064 801.102 85.6342C801.107 85.362 801.167 85.0936 801.276 84.8443C801.386 84.5951 801.543 84.3699 801.74 84.1816Z" fill="white"/>
<path fill-rule="evenodd" clip-rule="evenodd" d="M814.654 97.0943C814.842 96.8983 815.067 96.7413 815.316 96.6323C815.565 96.5233 815.833 96.4645 816.104 96.4591C816.376 96.4537 816.646 96.502 816.899 96.6011C817.151 96.7001 817.382 96.8481 817.578 97.0366L821.877 101.336C822.273 101.732 822.496 102.269 822.496 102.829C822.496 103.389 822.273 103.926 821.877 104.322C821.482 104.718 820.945 104.94 820.385 104.94C819.825 104.94 819.288 104.718 818.892 104.322L814.588 100.018C814.4 99.8221 814.253 99.5908 814.155 99.3376C814.056 99.0844 814.009 98.8143 814.015 98.5427C814.021 98.2711 814.081 98.0033 814.19 97.7548C814.3 97.5063 814.458 97.2818 814.654 97.0943Z" fill="white"/>
<path d="M822.059 58.479L825.351 61.7712C827.274 63.694 827.296 65.997 825.628 67.665C823.762 69.5301 821.344 69.0464 819.537 67.2391L818.189 65.8915L815.771 68.3099L813.999 66.5384L822.059 58.479ZM821.179 65.7283C822.065 66.614 823.112 66.6021 823.826 65.8875C824.622 65.0913 824.495 64.116 823.609 63.2302L822.23 61.8509L819.766 64.3151L821.179 65.7283Z" fill="white"/>
<path d="M827.552 58.3707C828.904 59.7218 829.825 61.4436 830.198 63.3181C830.571 65.1927 830.379 67.1359 829.648 68.9016C828.916 70.6674 827.677 72.1765 826.088 73.238C824.498 74.2995 822.63 74.8656 820.718 74.8648C818.807 74.864 816.939 74.2962 815.35 73.2333C813.762 72.1705 812.524 70.6603 811.794 68.8938C811.064 67.1274 810.874 65.1841 811.249 63.3099C811.624 61.4356 812.546 59.7146 813.899 58.3647C815.712 56.5562 818.168 55.5406 820.729 55.5406C823.289 55.5406 825.745 56.5562 827.558 58.3647M830.544 55.379C828.602 53.4373 826.128 52.115 823.435 51.5794C820.741 51.0437 817.95 51.3188 815.413 52.3697C812.876 53.4207 810.708 55.2004 809.182 57.4837C807.657 59.767 806.843 62.4514 806.843 65.1974C806.844 67.9434 807.658 70.6276 809.184 72.9106C810.71 75.1936 812.878 76.9728 815.416 78.0233C817.953 79.0737 820.744 79.3482 823.437 78.812C826.131 78.2758 828.604 76.9531 830.546 75.011C831.835 73.7219 832.857 72.1915 833.555 70.5072C834.252 68.8228 834.611 67.0176 834.611 65.1946C834.611 63.3715 834.252 61.5664 833.554 59.8822C832.856 58.198 831.833 56.6678 830.544 55.379Z" fill="white"/>
</g>
<g opacity="0.05">
<path fill-rule="evenodd" clip-rule="evenodd" d="M642.586 36.7866C642.517 32.2184 644.869 27.7195 649.125 25.2624L669.532 13.4803C670.784 12.7573 672.385 13.1864 673.109 14.4387L686.2 37.1133C688.363 40.8599 687.071 45.6801 683.325 47.8431L681.057 49.1523C679.805 49.8753 678.204 49.4462 677.481 48.1939C676.758 46.9416 677.187 45.3403 678.439 44.6173L680.706 43.3082C681.948 42.5912 682.382 40.9735 681.665 39.7316L669.883 19.3244L651.743 29.7974C649.196 31.2677 647.781 33.9626 647.822 36.7075C647.844 38.1533 646.689 39.3431 645.244 39.365C643.798 39.3868 642.608 38.2324 642.586 36.7866Z" fill="white"/>
<path fill-rule="evenodd" clip-rule="evenodd" d="M672.499 23.8534C671.776 22.6011 672.205 20.9998 673.457 20.2768L677.63 17.8679C680.09 16.4474 683.093 16.4894 685.51 17.877L685.525 17.8856L685.525 17.8856L693.316 22.4268C694.123 22.8968 694.618 23.7607 694.616 24.6942C694.614 25.6277 694.115 26.4896 693.307 26.9563L690.382 28.6451L694.309 35.4475L701.112 31.5201C702.364 30.7971 703.965 31.2262 704.688 32.4785L708.616 39.2809C711.512 44.2971 709.799 50.6911 704.782 53.5872L702.515 54.8964C701.263 55.6194 699.661 55.1903 698.938 53.938C698.221 52.6961 696.604 52.2626 695.362 52.9797C694.12 53.6967 693.686 55.3143 694.403 56.5563C695.126 57.8085 694.697 59.4098 693.445 60.1328L684.375 65.3693C683.123 66.0924 681.522 65.6633 680.799 64.411C680.082 63.1691 678.464 62.7356 677.222 63.4527C675.98 64.1697 675.547 65.7873 676.264 67.0292C676.987 68.2815 676.558 69.8828 675.305 70.6058L673.038 71.915C668.022 74.8111 661.628 73.0979 658.731 68.0816C658.008 66.8293 658.438 65.228 659.69 64.505C660.942 63.782 662.543 64.211 663.266 65.4633C664.717 67.975 667.908 68.8302 670.42 67.38L670.809 67.1551C670.224 63.9763 671.652 60.6221 674.604 58.9177C677.556 57.2133 681.175 57.6538 683.635 59.7502L688.949 56.6821C688.364 53.5034 689.791 50.1491 692.744 48.4447C695.696 46.7403 699.314 47.1809 701.775 49.2772L702.164 49.0523C704.676 47.6022 705.531 44.4108 704.081 41.8991L701.463 37.3642L696.928 39.9824C694.428 41.4254 691.218 40.5651 689.775 38.0657L685.847 31.2633C684.588 29.0822 685.083 26.3594 686.89 24.7423L682.903 22.4184C682.901 22.4172 682.899 22.416 682.897 22.4148C682.059 21.9369 681.051 21.9395 680.248 22.4029L678.343 23.5026L686.198 37.1074C688.361 40.8539 687.069 45.6741 683.323 47.8372L681.055 49.1463C679.803 49.8693 678.202 49.4402 677.479 48.1879C676.756 46.9357 677.185 45.3344 678.437 44.6113L680.705 43.3022C681.947 42.5852 682.38 40.9676 681.663 39.7256L672.499 23.8534Z" fill="white"/>
<path fill-rule="evenodd" clip-rule="evenodd" d="M677.21 63.4689C675.957 64.1919 675.528 65.7932 676.251 67.0455C676.974 68.2978 678.576 68.7268 679.828 68.0038C681.08 67.2808 681.509 65.6795 680.786 64.4272C680.063 63.175 678.462 62.7459 677.21 63.4689ZM671.716 69.6637C669.547 65.9069 670.835 61.103 674.591 58.934C678.348 56.7649 683.152 58.0521 685.321 61.809C687.49 65.5659 686.203 70.3697 682.446 72.5388C678.689 74.7078 673.885 73.4206 671.716 69.6637Z" fill="white"/>
<path fill-rule="evenodd" clip-rule="evenodd" d="M695.358 52.9918C694.106 53.7149 693.677 55.3161 694.4 56.5684C695.123 57.8207 696.724 58.2498 697.976 57.5268C699.229 56.8038 699.658 55.2025 698.935 53.9502C698.212 52.6979 696.61 52.2688 695.358 52.9918ZM689.865 59.1867C687.696 55.4298 688.983 50.6259 692.74 48.4569C696.497 46.2879 701.301 47.5751 703.47 51.3319C705.639 55.0888 704.352 59.8927 700.595 62.0617C696.838 64.2307 692.034 62.9435 689.865 59.1867Z" fill="white"/>
<path fill-rule="evenodd" clip-rule="evenodd" d="M685.86 31.2591C684.417 28.7597 685.278 25.5489 687.777 24.1059L690.702 22.4171C691.517 21.9468 692.521 21.9496 693.333 22.4244L701.138 26.9882C701.53 27.2177 701.856 27.5455 702.083 27.9393L704.702 32.4742C705.425 33.7265 704.996 35.3278 703.743 36.0508L696.941 39.9782C694.442 41.4212 691.231 40.5609 689.788 38.0615L685.86 31.2591ZM692.003 27.7127L690.395 28.6408L694.323 35.4432L698.858 32.825L697.895 31.1584L692.003 27.7127Z" fill="white"/>
<path fill-rule="evenodd" clip-rule="evenodd" d="M646.952 47.6796C646.229 46.4273 646.658 44.826 647.91 44.103L661.515 36.2482C662.767 35.5252 664.368 35.9543 665.091 37.2066C665.814 38.4589 665.385 40.0602 664.133 40.7832L650.528 48.6379C649.276 49.3609 647.675 48.9319 646.952 47.6796Z" fill="white"/>
<path fill-rule="evenodd" clip-rule="evenodd" d="M650.881 54.4877C650.158 53.2354 650.587 51.6341 651.84 50.9111L660.91 45.6746C662.162 44.9516 663.763 45.3807 664.486 46.6329C665.209 47.8852 664.78 49.4865 663.528 50.2095L654.458 55.446C653.206 56.169 651.604 55.74 650.881 54.4877Z" fill="white"/>
<path fill-rule="evenodd" clip-rule="evenodd" d="M654.811 61.2894C654.088 60.0372 654.517 58.4359 655.769 57.7128L660.304 55.0946C661.557 54.3716 663.158 54.8007 663.881 56.0529C664.604 57.3052 664.175 58.9065 662.923 59.6295L658.388 62.2478C657.135 62.9708 655.534 62.5417 654.811 61.2894Z" fill="white"/>
</g>
<g opacity="0.05">
<path fill-rule="evenodd" clip-rule="evenodd" d="M941.785 36.7861C941.716 32.2179 944.068 27.719 948.324 25.2619L968.731 13.4798C969.983 12.7568 971.585 13.1859 972.308 14.4382L985.399 37.1129C987.562 40.8594 986.27 45.6796 982.524 47.8426L980.256 49.1518C979.004 49.8748 977.403 49.4457 976.68 48.1934C975.957 46.9411 976.386 45.3398 977.638 44.6168L979.906 43.3077C981.148 42.5907 981.581 40.973 980.864 39.7311L969.082 19.3239L950.942 29.7969C948.396 31.2672 946.98 33.9621 947.021 36.707C947.043 38.1528 945.889 39.3426 944.443 39.3645C942.997 39.3863 941.807 38.2319 941.785 36.7861Z" fill="white"/>
<path fill-rule="evenodd" clip-rule="evenodd" d="M971.698 23.8529C970.975 22.6006 971.404 20.9993 972.657 20.2763L976.829 17.8674C979.289 16.4469 982.292 16.489 984.709 17.8765L984.724 17.8851L984.724 17.8851L992.516 22.4263C993.322 22.8964 993.817 23.7603 993.815 24.6937C993.813 25.6272 993.315 26.4891 992.506 26.9558L989.581 28.6446L993.509 35.447L1000.31 31.5196C1001.56 30.7966 1003.16 31.2257 1003.89 32.478L1007.82 39.2804C1010.71 44.2967 1009 50.6906 1003.98 53.5867L1001.71 54.8959C1000.46 55.6189 998.861 55.1898 998.138 53.9375C997.421 52.6956 995.803 52.2621 994.561 52.9792C993.319 53.6962 992.886 55.3138 993.603 56.5558C994.326 57.8081 993.897 59.4094 992.644 60.1324L983.574 65.3689C982.322 66.0919 980.721 65.6628 979.998 64.4105C979.281 63.1686 977.663 62.7351 976.421 63.4522C975.179 64.1692 974.746 65.7868 975.463 67.0288C976.186 68.281 975.757 69.8823 974.505 70.6054L972.237 71.9145C967.221 74.8106 960.827 73.0974 957.931 68.0811C957.208 66.8288 957.637 65.2275 958.889 64.5045C960.141 63.7815 961.743 64.2106 962.466 65.4628C963.916 67.9746 967.107 68.8297 969.619 67.3795L970.008 67.1546C969.423 63.9759 970.851 60.6216 973.803 58.9172C976.755 57.2128 980.374 57.6534 982.834 59.7497L988.148 56.6816C987.563 53.5029 988.991 50.1486 991.943 48.4442C994.895 46.7398 998.514 47.1804 1000.97 49.2767L1001.36 49.0518C1003.88 47.6017 1004.73 44.4103 1003.28 41.8986L1000.66 37.3637L996.127 39.9819C993.628 41.425 990.417 40.5646 988.974 38.0652L985.046 31.2628C983.787 29.0817 984.282 26.3589 986.089 24.7418L982.102 22.4179C982.1 22.4167 982.098 22.4155 982.096 22.4143C981.258 21.9364 980.25 21.939 979.447 22.4024L977.542 23.5021L985.397 37.1069C987.56 40.8534 986.269 45.6736 982.522 47.8367L980.255 49.1458C979.002 49.8688 977.401 49.4397 976.678 48.1875C975.955 46.9352 976.384 45.3339 977.636 44.6109L979.904 43.3017C981.146 42.5847 981.579 40.9671 980.862 39.7251L971.698 23.8529Z" fill="white"/>
<path fill-rule="evenodd" clip-rule="evenodd" d="M976.409 63.4684C975.157 64.1914 974.728 65.7927 975.451 67.045C976.174 68.2973 977.775 68.7264 979.027 68.0033C980.279 67.2803 980.709 65.679 979.986 64.4268C979.263 63.1745 977.661 62.7454 976.409 63.4684ZM970.916 69.6632C968.747 65.9064 970.034 61.1025 973.791 58.9335C977.548 56.7644 982.351 58.0516 984.52 61.8085C986.689 65.5654 985.402 70.3693 981.645 72.5383C977.889 74.7073 973.085 73.4201 970.916 69.6632Z" fill="white"/>
<path fill-rule="evenodd" clip-rule="evenodd" d="M994.557 52.9914C993.305 53.7144 992.876 55.3157 993.599 56.5679C994.322 57.8202 995.923 58.2493 997.176 57.5263C998.428 56.8033 998.857 55.202 998.134 53.9497C997.411 52.6974 995.81 52.2683 994.557 52.9914ZM989.064 59.1862C986.895 55.4293 988.182 50.6254 991.939 48.4564C995.696 46.2874 1000.5 47.5746 1002.67 51.3315C1004.84 55.0883 1003.55 59.8922 999.794 62.0612C996.037 64.2303 991.233 62.9431 989.064 59.1862Z" fill="white"/>
<path fill-rule="evenodd" clip-rule="evenodd" d="M985.06 31.2586C983.617 28.7592 984.477 25.5484 986.976 24.1054L989.901 22.4166C990.716 21.9464 991.72 21.9491 992.532 22.4239L1000.34 26.9877C1000.73 27.2172 1001.06 27.545 1001.28 27.9388L1003.9 32.4737C1004.62 33.726 1004.19 35.3273 1002.94 36.0503L996.14 39.9777C993.641 41.4207 990.43 40.5604 988.987 38.061L985.06 31.2586ZM991.202 27.7122L989.595 28.6403L993.522 35.4427L998.057 32.8245L997.095 31.1579L991.202 27.7122Z" fill="white"/>
<path fill-rule="evenodd" clip-rule="evenodd" d="M946.151 47.6791C945.428 46.4268 945.857 44.8255 947.109 44.1025L960.714 36.2478C961.966 35.5247 963.568 35.9538 964.291 37.2061C965.014 38.4584 964.585 40.0597 963.332 40.7827L949.728 48.6374C948.475 49.3604 946.874 48.9314 946.151 47.6791Z" fill="white"/>
<path fill-rule="evenodd" clip-rule="evenodd" d="M950.081 54.4872C949.358 53.2349 949.787 51.6336 951.039 50.9106L960.109 45.6741C961.361 44.9511 962.962 45.3802 963.685 46.6325C964.408 47.8847 963.979 49.486 962.727 50.209L953.657 55.4455C952.405 56.1685 950.804 55.7395 950.081 54.4872Z" fill="white"/>
<path fill-rule="evenodd" clip-rule="evenodd" d="M954.01 61.289C953.287 60.0367 953.716 58.4354 954.969 57.7124L959.504 55.0941C960.756 54.3711 962.357 54.8002 963.08 56.0525C963.803 57.3047 963.374 58.906 962.122 59.6291L957.587 62.2473C956.335 62.9703 954.733 62.5412 954.01 61.289Z" fill="white"/>
</g>
<path d="M484.196 324C481.616 324 479.058 323.5 476.645 322.524C472.597 320.926 469.105 318.03 466.644 314.23C464.183 310.43 462.871 305.91 462.887 301.283V235.569H442.219C438.144 235.564 434.157 234.302 430.732 231.934C427.308 229.566 424.59 226.191 422.904 222.213C421.218 218.234 420.634 213.819 421.223 209.495C421.811 205.17 423.546 201.119 426.222 197.823L500.961 106.75C503.799 103.274 507.558 100.809 511.736 99.6838C515.915 98.5587 520.313 98.8269 524.346 100.452C528.378 102.078 531.853 104.984 534.306 108.782C536.759 112.58 538.073 117.091 538.074 121.711V187.425H558.743C562.823 187.416 566.82 188.669 570.253 191.034C573.686 193.4 576.41 196.777 578.099 200.761C579.787 204.746 580.368 209.168 579.773 213.497C579.177 217.827 577.43 221.881 574.74 225.172L500.033 316.21C498.066 318.648 495.634 320.604 492.902 321.948C490.17 323.292 487.201 323.991 484.196 324ZM516.766 120.03C516.557 120.038 516.353 120.098 516.17 120.205C515.987 120.312 515.829 120.463 515.71 120.647L440.971 211.686C440.764 211.935 440.634 212.248 440.6 212.58C440.566 212.912 440.628 213.247 440.779 213.539C440.878 213.858 441.073 214.132 441.334 214.319C441.595 214.505 441.906 214.593 442.219 214.568H472.71C475.306 214.568 477.796 215.675 479.632 217.644C481.468 219.613 482.5 222.284 482.5 225.069V301.283C482.479 301.632 482.569 301.978 482.755 302.264C482.941 302.551 483.212 302.762 483.524 302.862C483.814 303.019 484.147 303.06 484.464 302.978C484.78 302.896 485.059 302.697 485.251 302.416L559.991 211.343C560.213 211.105 560.36 210.798 560.412 210.466C560.464 210.134 560.417 209.792 560.278 209.49C560.152 209.172 559.936 208.905 559.66 208.727C559.385 208.548 559.064 208.467 558.743 208.495H528.252C525.652 208.485 523.162 207.372 521.327 205.397C519.492 203.422 518.462 200.748 518.462 197.96V121.745C518.483 121.397 518.393 121.051 518.207 120.764C518.021 120.478 517.75 120.267 517.438 120.167C517.219 120.096 516.994 120.05 516.766 120.03Z" fill="#F9795F" fill-opacity="0.45"/>
<path d="M47.6626 0H593.554C614.389 0 -102.353 418.5 47.6626 0Z" fill="#E11204" fill-opacity="0.2"/>
<defs>
<linearGradient id="paint0_linear_884_1570" x1="0" y1="206" x2="1056" y2="206" gradientUnits="userSpaceOnUse">
<stop offset="0.011957" stop-color="#FB7C5F"/>
<stop offset="1" stop-color="#DF525B"/>
</linearGradient>
</defs>
</svg>
