<svg width="17" height="17" viewBox="0 0 17 17" fill="none" xmlns="http://www.w3.org/2000/svg">
<path id="Vector" d="M8.71429 15.5714V9.57143M8.71429 15.5714C6.34735 15.5714 4.42857 13.6526 4.42857 11.2857V7.85714C4.42857 6.91037 5.19608 6.14286 6.14286 6.14286H11.2857C12.2325 6.14286 13 6.91037 13 7.85714V11.2857C13 13.6526 11.0812 15.5714 8.71429 15.5714ZM13 10.4286H16M4.42857 10.4286H1.42857M13 7.42857C15.4 7.42857 16 5.42857 16 4.85714M12.5714 13.4286C14.9714 13.4286 15.5714 15.4285 15.5714 16M4 7.42857C1.6 7.42857 1 5.42857 1 4.85714M4.85714 13.4286C2.45714 13.4286 1.85714 15.4285 1.85714 16M8.71429 1C6.82074 1 5.28571 2.53502 5.28571 4.42857V5.11429C5.28571 5.68235 5.74622 6.14286 6.31429 6.14286H11.1143C11.6823 6.14286 12.1429 5.68235 12.1429 5.11429V4.42857C12.1429 2.53502 10.6078 1 8.71429 1Z" stroke="#7D8695" stroke-linecap="round"/>
</svg>
