<svg xmlns="http://www.w3.org/2000/svg" width="33" height="32" viewBox="0 0 33 32" fill="none">
  <path fill-rule="evenodd" clip-rule="evenodd" d="M1.38858 8.2241C2.81075 6.5716 5.20676 5.81482 8.55907 5.81482H23.4424C26.7948 5.81482 29.1908 6.5716 30.6129 8.2241C32.0179 9.85656 32.1303 11.9754 31.9184 13.8609L30.8014 25.5053C30.6349 27.024 30.2381 28.7773 28.7681 30.0898C27.3116 31.3903 25.0982 31.9979 21.9541 31.9979H10.0474C6.90334 31.9979 4.68994 31.3903 3.23344 30.0898C1.76346 28.7773 1.36676 27.024 1.20026 25.5053L1.19816 25.4861L0.0831683 13.861C-0.12878 11.9755 -0.0163588 9.85657 1.38858 8.2241ZM3.66657 10.0968C3.06533 10.7954 2.85516 11.8928 3.04318 13.5534L3.04572 13.5776L4.16103 25.2047C4.30744 26.5315 4.60292 27.3721 5.24117 27.942C5.89439 28.5252 7.20835 29.0886 10.0474 29.0886H21.9541C24.7932 29.0886 26.1071 28.5252 26.7603 27.942C27.3986 27.3721 27.6941 26.5316 27.8405 25.2047L28.9558 13.5776L28.9583 13.5534C29.1463 11.8928 28.9362 10.7954 28.3349 10.0968C27.7479 9.41461 26.4453 8.72405 23.4424 8.72405H8.55907C5.55617 8.72405 4.25365 9.41461 3.66657 10.0968Z" fill="#8F8F8F"/>
  <path fill-rule="evenodd" clip-rule="evenodd" d="M11.5979 4.4842C11.5384 4.9296 11.536 5.44253 11.536 6.10938V7.27307C11.536 8.07643 10.8697 8.72769 10.0477 8.72769C9.22568 8.72769 8.55933 8.07643 8.55933 7.27307V6.10938C8.55933 6.09366 8.55933 6.07788 8.55933 6.06205C8.55927 5.45283 8.5592 4.75937 8.64627 4.10757C8.73736 3.42573 8.93608 2.67184 9.41864 1.98946C10.4441 0.539403 12.2891 0 14.8104 0H17.1917C19.7129 0 21.558 0.539403 22.5834 1.98946C23.066 2.67184 23.2647 3.42573 23.3558 4.10757C23.4428 4.75937 23.4428 5.45282 23.4427 6.06205L23.4427 7.27307C23.4427 8.07643 22.7764 8.72769 21.9544 8.72769C21.1324 8.72769 20.466 8.07643 20.466 7.27307V6.10938C20.466 5.44253 20.4636 4.9296 20.4041 4.4842C20.3464 4.0519 20.2475 3.80301 20.1347 3.64354C19.9694 3.40988 19.4332 2.90923 17.1917 2.90923H14.8104C12.5689 2.90923 12.0326 3.40988 11.8674 3.64354C11.7546 3.80301 11.6557 4.0519 11.5979 4.4842Z" fill="#8F8F8F"/>
  <path fill-rule="evenodd" clip-rule="evenodd" d="M14.5126 17.4503V18.9485C14.5126 19.3624 14.5168 19.6383 14.5491 19.8647C14.5793 20.0771 14.6212 20.134 14.6218 20.1347L14.6233 20.1365C14.624 20.1372 14.6276 20.1407 14.6359 20.1466C14.652 20.1579 14.6968 20.186 14.7906 20.2186C14.9903 20.2879 15.3596 20.3595 16.0009 20.3595C16.6455 20.3595 17.0152 20.2871 17.2141 20.2175C17.3074 20.1849 17.3516 20.1568 17.3672 20.1457C17.3753 20.14 17.3787 20.1366 17.3793 20.136L17.3808 20.1342C17.382 20.1326 17.4242 20.0738 17.4541 19.8578C17.4859 19.628 17.4893 19.3506 17.4893 18.934V17.4503H14.5126ZM14.4555 14.541C14.4747 14.541 14.4937 14.541 14.5126 14.541H17.4893C17.5082 14.541 17.5272 14.541 17.5464 14.541C17.8673 14.5409 18.2205 14.5408 18.5141 14.5727C18.8142 14.6053 19.3821 14.6975 19.844 15.1489C20.3059 15.6003 20.4002 16.1554 20.4336 16.4487C20.4662 16.7356 20.4661 17.0808 20.466 17.3945C20.466 17.4132 20.4659 17.4318 20.4659 17.4503L20.466 18.9591C20.466 19.3313 20.466 19.7993 20.4039 20.2479C20.3386 20.7199 20.1922 21.2824 19.819 21.8031C19.015 22.925 17.6235 23.2687 16.0009 23.2687C14.3874 23.2687 13.0001 22.9296 12.1932 21.817C11.8176 21.299 11.6681 20.7383 11.6008 20.2657C11.5359 19.8098 11.5359 19.3351 11.5359 18.9576V17.4503C11.5359 17.4318 11.5359 17.4132 11.5359 17.3945C11.5358 17.0808 11.5357 16.7356 11.5683 16.4487C11.6016 16.1554 11.696 15.6003 12.1579 15.1489C12.6198 14.6975 13.1877 14.6053 13.4878 14.5727C13.7814 14.5408 14.1345 14.5409 14.4555 14.541Z" fill="#8F8F8F"/>
  <path fill-rule="evenodd" clip-rule="evenodd" d="M31.5672 13.6885C32.0507 14.3382 31.9037 15.248 31.2389 15.7205C27.5902 18.3139 23.422 19.8562 19.1637 20.3802C18.3482 20.4806 17.6038 19.9158 17.5011 19.1187C17.3984 18.3217 17.9763 17.5942 18.7918 17.4938C22.5706 17.0287 26.2607 15.6617 29.4881 13.3677C30.1529 12.8952 31.0837 13.0388 31.5672 13.6885Z" fill="#8F8F8F"/>
  <path fill-rule="evenodd" clip-rule="evenodd" d="M0.812768 14.1257C1.27704 13.4628 2.20329 13.2932 2.88161 13.7469C6.02973 15.8528 9.57841 17.1212 13.1905 17.5165C14.0074 17.6059 14.5955 18.3255 14.504 19.1239C14.4125 19.9223 13.6762 20.497 12.8593 20.4076C8.76182 19.9592 4.74973 18.522 1.20033 16.1477C0.522016 15.6939 0.348497 14.7887 0.812768 14.1257Z" fill="#8F8F8F"/>
</svg>