<svg width="15" height="15" viewBox="0 0 15 15" fill="none" xmlns="http://www.w3.org/2000/svg">
<g id="&#240;&#159;&#166;&#134; icon &#34;tick circle&#34;">
<g id="Group">
<path id="Vector" d="M7.36364 14.7273C3.30165 14.7273 0 11.4256 0 7.36364C0 3.30165 3.30165 0 7.36364 0C11.4256 0 14.7273 3.30165 14.7273 7.36364C14.7273 11.4256 11.4256 14.7273 7.36364 14.7273ZM7.36364 1.02748C3.87019 1.02748 1.02748 3.87019 1.02748 7.36364C1.02748 10.8571 3.87019 13.6998 7.36364 13.6998C10.8571 13.6998 13.6998 10.8571 13.6998 7.36364C13.6998 3.87019 10.8571 1.02748 7.36364 1.02748Z" fill="#7D8695"/>
<path id="Vector_2" d="M6.39199 9.81573C6.25499 9.81573 6.12484 9.76093 6.02895 9.66503L4.09039 7.72651C3.89174 7.52786 3.89174 7.19907 4.09039 7.00042C4.28904 6.80178 4.61783 6.80178 4.81648 7.00042L6.39199 8.5759L9.91284 5.05505C10.1115 4.85641 10.4403 4.85641 10.6389 5.05505C10.8376 5.2537 10.8376 5.58249 10.6389 5.78114L6.75503 9.66503C6.65914 9.76093 6.52899 9.81573 6.39199 9.81573Z" fill="#7D8695"/>
</g>
</g>
</svg>
