<svg width="18" height="18" viewBox="0 0 18 18" fill="none" xmlns="http://www.w3.org/2000/svg">
<path fill-rule="evenodd" clip-rule="evenodd" d="M3.49921 0.944629C4.10393 0.301734 4.97116 0 6.12464 0H11.8683C13.0218 0 13.889 0.301734 14.4937 0.944628C15.0686 1.55583 15.2828 2.35452 15.418 3.02183L15.4183 3.02314L16.3428 7.62307C16.3932 7.87366 16.3322 8.1345 16.1768 8.33316C16.0215 8.53183 15.7883 8.64717 15.5419 8.64717H2.451C2.20466 8.64717 1.97143 8.53183 1.81606 8.33316C1.6607 8.1345 1.59974 7.87366 1.6501 7.62307L2.57492 3.02183C2.7101 2.35452 2.9243 1.55583 3.49921 0.944629ZM4.17618 3.37215C4.17613 3.37238 4.17622 3.37192 4.17618 3.37215L3.45774 6.94665H14.5352L13.8167 3.37215C13.8167 3.37193 13.8168 3.37237 13.8167 3.37215C13.6901 2.74745 13.5483 2.3723 13.3235 2.13332C13.1285 1.92596 12.7521 1.70053 11.8683 1.70053H6.12464C5.24085 1.70053 4.86444 1.92596 4.66938 2.13332C4.4446 2.3723 4.30278 2.74747 4.17618 3.37215Z" fill="#7D8695"/>
<path fill-rule="evenodd" clip-rule="evenodd" d="M2.09834 10.1958C2.09832 10.196 2.09836 10.1956 2.09834 10.1958L1.64026 15.3728L1.6401 15.3745C1.59692 15.8518 1.96853 16.2982 2.48642 16.2982H4.0246C4.19287 16.2982 4.27887 16.2794 4.31615 16.2672C4.31802 16.2634 4.32012 16.2589 4.32243 16.2538C4.34572 16.2021 4.36774 16.1363 4.41023 16.0038L4.57386 15.4937C4.57866 15.4787 4.58363 15.463 4.5888 15.4468C4.67924 15.162 4.83064 14.6853 5.20085 14.3224C5.62879 13.903 6.20789 13.7474 6.9046 13.7474H11.0937C11.7674 13.7474 12.3478 13.8776 12.7818 14.2939C13.1503 14.6473 13.3056 15.127 13.4026 15.4264C13.4095 15.4478 13.4161 15.4683 13.4225 15.4878L13.4245 15.4937L13.5881 16.0038C13.6306 16.1363 13.6526 16.2021 13.6759 16.2538C13.6782 16.2589 13.6803 16.2634 13.6821 16.2672C13.7194 16.2794 13.8054 16.2982 13.9737 16.2982H15.5119C16.0298 16.2982 16.4014 15.8518 16.3582 15.3745L15.9 10.1958C15.9 10.1957 15.9 10.1959 15.9 10.1958C15.841 9.53941 15.7589 9.21895 15.6024 9.0261C15.485 8.8815 15.1821 8.64584 14.2191 8.64584H3.77915C2.81619 8.64584 2.5133 8.8815 2.39594 9.0261C2.23944 9.21893 2.15731 9.53956 2.09834 10.1958ZM13.6584 16.257C13.6586 16.2568 13.6612 16.258 13.6656 16.261C13.6603 16.2586 13.6581 16.2571 13.6584 16.257ZM4.33994 16.257C4.34016 16.2571 4.33795 16.2586 4.33266 16.261C4.33707 16.258 4.33972 16.2568 4.33994 16.257ZM1.14509 7.92972C1.71091 7.23256 2.59847 6.94531 3.77915 6.94531H14.2191C15.3998 6.94531 16.2874 7.23256 16.8532 7.92972C17.3798 8.57859 17.4737 9.41905 17.5292 10.0378L17.5293 10.0389L17.9874 15.2153C17.9874 15.2151 17.9874 15.2155 17.9874 15.2153C18.1238 16.7273 16.9574 17.9987 15.5119 17.9987H13.9737C13.4267 17.9987 12.9309 17.8783 12.5565 17.5091C12.243 17.1998 12.1154 16.7946 12.049 16.5835C12.0442 16.5685 12.0398 16.5545 12.0357 16.5416L11.873 16.0344C11.812 15.8489 11.7751 15.7389 11.7344 15.6493C11.6983 15.5697 11.6768 15.5481 11.6719 15.5434C11.67 15.5415 11.6499 15.5211 11.5752 15.4988C11.4893 15.4731 11.341 15.4479 11.0937 15.4479H6.9046C6.43207 15.4479 6.33092 15.552 6.32389 15.5592C6.32375 15.5594 6.32395 15.5592 6.32389 15.5592C6.28367 15.5986 6.24201 15.6705 6.12625 16.0314L5.96262 16.5416C5.95847 16.5545 5.95406 16.5685 5.94934 16.5835C5.88291 16.7946 5.75535 17.1998 5.44181 17.5091C5.06741 17.8783 4.5716 17.9987 4.0246 17.9987H2.48642C1.04099 17.9987 -0.125392 16.7281 0.0108363 15.2163C0.0108654 15.216 0.0108946 15.2156 0.0109238 15.2153L0.469054 10.0378C0.524622 9.41905 0.618453 8.5786 1.14509 7.92972Z" fill="#7D8695"/>
<path fill-rule="evenodd" clip-rule="evenodd" d="M0.816406 5.2487C0.816406 4.77911 1.18272 4.39844 1.63459 4.39844H2.45277C2.90464 4.39844 3.27095 4.77911 3.27095 5.2487C3.27095 5.71829 2.90464 6.09896 2.45277 6.09896H1.63459C1.18272 6.09896 0.816406 5.71829 0.816406 5.2487Z" fill="#7D8695"/>
<path fill-rule="evenodd" clip-rule="evenodd" d="M14.7266 5.2487C14.7266 4.77911 15.0929 4.39844 15.5447 4.39844H16.3629C16.8148 4.39844 17.1811 4.77911 17.1811 5.2487C17.1811 5.71829 16.8148 6.09896 16.3629 6.09896H15.5447C15.0929 6.09896 14.7266 5.71829 14.7266 5.2487Z" fill="#7D8695"/>
<path fill-rule="evenodd" clip-rule="evenodd" d="M8.99787 0.140625C9.44974 0.140625 9.81605 0.521301 9.81605 0.990888V2.69141C9.81605 3.161 9.44974 3.54168 8.99787 3.54168C8.546 3.54168 8.17969 3.161 8.17969 2.69141V0.990888C8.17969 0.521301 8.546 0.140625 8.99787 0.140625Z" fill="#7D8695"/>
<path fill-rule="evenodd" clip-rule="evenodd" d="M6.95312 2.69401C6.95312 2.22443 7.31944 1.84375 7.77131 1.84375H10.2259C10.6777 1.84375 11.044 2.22443 11.044 2.69401C11.044 3.1636 10.6777 3.54428 10.2259 3.54428H7.77131C7.31944 3.54428 6.95312 3.1636 6.95312 2.69401Z" fill="#7D8695"/>
<path fill-rule="evenodd" clip-rule="evenodd" d="M3.27344 11.194C3.27344 10.7244 3.63975 10.3438 4.09162 10.3438H6.54616C6.99803 10.3438 7.36435 10.7244 7.36435 11.194C7.36435 11.6636 6.99803 12.0443 6.54616 12.0443H4.09162C3.63975 12.0443 3.27344 11.6636 3.27344 11.194Z" fill="#7D8695"/>
<path fill-rule="evenodd" clip-rule="evenodd" d="M10.6367 11.194C10.6367 10.7244 11.003 10.3438 11.4549 10.3438H13.9094C14.3613 10.3438 14.7276 10.7244 14.7276 11.194C14.7276 11.6636 14.3613 12.0443 13.9094 12.0443H11.4549C11.003 12.0443 10.6367 11.6636 10.6367 11.194Z" fill="#7D8695"/>
</svg>
