<svg width="20" height="18" viewBox="0 0 20 18" fill="none" xmlns="http://www.w3.org/2000/svg">
<path fill-rule="evenodd" clip-rule="evenodd" d="M2.46101 2.4364C2.06829 2.82519 1.81818 3.59357 1.81818 5.4V12.6C1.81818 14.4064 2.06829 15.1748 2.46101 15.5636C2.85373 15.9524 3.62987 16.2 5.45455 16.2H14.5455C16.3701 16.2 17.1463 15.9524 17.539 15.5636C17.9317 15.1748 18.1818 14.4064 18.1818 12.6V5.4C18.1818 3.59357 17.9317 2.82519 17.539 2.4364C17.1463 2.0476 16.3701 1.8 14.5455 1.8H5.45455C3.62987 1.8 2.85373 2.0476 2.46101 2.4364ZM1.17536 1.1636C2.14627 0.202397 3.64286 0 5.45455 0H14.5455C16.3571 0 17.8537 0.202397 18.8246 1.1636C19.7956 2.12481 20 3.60643 20 5.4V12.6C20 14.3936 19.7956 15.8752 18.8246 16.8364C17.8537 17.7976 16.3571 18 14.5455 18H5.45455C3.64286 18 2.14627 17.7976 1.17536 16.8364C0.204442 15.8752 0 14.3936 0 12.6V5.4C0 3.60643 0.204442 2.12481 1.17536 1.1636Z" fill="#7D8695"/>
<path fill-rule="evenodd" clip-rule="evenodd" d="M10.9102 5.4C10.9102 4.90294 11.3172 4.5 11.8192 4.5H16.3647C16.8668 4.5 17.2738 4.90294 17.2738 5.4C17.2738 5.89706 16.8668 6.3 16.3647 6.3H11.8192C11.3172 6.3 10.9102 5.89706 10.9102 5.4Z" fill="#7D8695"/>
<path fill-rule="evenodd" clip-rule="evenodd" d="M11.8203 9.00156C11.8203 8.50451 12.2273 8.10156 12.7294 8.10156H16.3658C16.8678 8.10156 17.2749 8.50451 17.2749 9.00156C17.2749 9.49862 16.8678 9.90156 16.3658 9.90156H12.7294C12.2273 9.90156 11.8203 9.49862 11.8203 9.00156Z" fill="#7D8695"/>
<path fill-rule="evenodd" clip-rule="evenodd" d="M13.6367 12.6031C13.6367 12.1061 14.0437 11.7031 14.5458 11.7031H16.364C16.8661 11.7031 17.2731 12.1061 17.2731 12.6031C17.2731 13.1002 16.8661 13.5031 16.364 13.5031H14.5458C14.0437 13.5031 13.6367 13.1002 13.6367 12.6031Z" fill="#7D8695"/>
<path fill-rule="evenodd" clip-rule="evenodd" d="M6.82017 6.00312C6.41349 6.00312 6.08381 6.32951 6.08381 6.73212C6.08381 7.13474 6.41349 7.46112 6.82017 7.46112C7.22685 7.46112 7.55653 7.13474 7.55653 6.73212C7.55653 6.32951 7.22685 6.00312 6.82017 6.00312ZM4.26562 6.73212C4.26562 5.3354 5.40933 4.20312 6.82017 4.20312C8.23101 4.20312 9.37472 5.3354 9.37472 6.73212C9.37472 8.12885 8.23101 9.26112 6.82017 9.26112C5.40933 9.26112 4.26562 8.12885 4.26562 6.73212Z" fill="#7D8695"/>
<path fill-rule="evenodd" clip-rule="evenodd" d="M7.59444 9.5534C9.34526 9.71108 10.735 11.0758 10.9042 12.8109C10.9525 13.3056 10.5865 13.7454 10.0867 13.7932C9.58697 13.841 9.14272 13.4786 9.09447 12.9839C9.0093 12.1106 8.31055 11.4242 7.42727 11.3458L7.41798 11.345L7.41799 11.3449C7.02418 11.3059 6.62057 11.3057 6.21533 11.3451L6.21399 11.3452C5.32071 11.4306 4.62529 12.1155 4.5406 12.9839C4.49235 13.4786 4.0481 13.841 3.54835 13.7932C3.0486 13.7454 2.68258 13.3056 2.73083 12.8109C2.90067 11.0695 4.29582 9.7205 6.03859 9.5536C6.5589 9.50315 7.08082 9.50285 7.59444 9.5534Z" fill="#7D8695"/>
</svg>
