<svg width="18" height="19" viewBox="0 0 18 19" fill="none" xmlns="http://www.w3.org/2000/svg">
<path fill-rule="evenodd" clip-rule="evenodd" d="M12.0376 6.17161C10.3598 4.43803 7.63613 4.43803 5.95827 6.17161C4.2804 7.9052 4.2804 10.7192 5.95827 12.4528C7.63613 14.1864 10.3598 14.1864 12.0376 12.4528C13.7155 10.7192 13.7155 7.9052 12.0376 6.17161ZM4.80047 4.97538C7.11777 2.58113 10.8781 2.58113 13.1954 4.97538C15.5127 7.36963 15.5127 11.2548 13.1954 13.6491C10.8781 16.0433 7.11777 16.0433 4.80047 13.6491C2.48318 11.2548 2.48318 7.36963 4.80047 4.97538Z" fill="#7D8695"/>
<path fill-rule="evenodd" clip-rule="evenodd" d="M0.991632 7.42113C1.44005 7.48098 1.7566 7.90509 1.69868 8.3684C1.49958 9.96069 1.77961 11.6249 2.61868 13.123L2.61916 13.1239C3.47404 14.6544 4.76145 15.7562 6.23387 16.3647C6.65368 16.5382 6.85787 17.0305 6.68995 17.4643C6.52203 17.898 6.04558 18.109 5.62577 17.9355C3.82347 17.1906 2.24548 15.8394 1.20102 13.9695C0.173876 12.1351 -0.168152 10.0948 0.0748061 8.15165C0.132736 7.68834 0.543213 7.36127 0.991632 7.42113Z" fill="#7D8695"/>
<path fill-rule="evenodd" clip-rule="evenodd" d="M9.00204 1.69174C7.29245 1.69174 5.72488 2.29226 4.47161 3.30531C4.1155 3.59317 3.60096 3.52825 3.32236 3.16031C3.04375 2.79238 3.10659 2.26075 3.4627 1.9729C4.99295 0.735943 6.91296 0 9.00204 0C11.0492 0 12.9328 0.718186 14.443 1.90706C14.8027 2.19018 14.8721 2.72093 14.5981 3.09252C14.3241 3.46411 13.8104 3.53584 13.4507 3.25272C12.2102 2.27617 10.6717 1.69174 9.00204 1.69174Z" fill="#7D8695"/>
<path fill-rule="evenodd" clip-rule="evenodd" d="M17.0071 7.42894C17.4555 7.36909 17.866 7.69615 17.9239 8.15946C18.1669 10.1027 17.8248 12.1433 16.7975 13.9777C15.753 15.8474 14.1751 17.1985 12.373 17.9433C11.9531 18.1168 11.4767 17.9058 11.3088 17.4721C11.1408 17.0383 11.345 16.546 11.7648 16.3725C13.2373 15.764 14.5247 14.6622 15.3796 13.1317L15.38 13.1308C16.2191 11.6327 16.4991 9.96851 16.3 8.37621C16.2421 7.9129 16.5587 7.48879 17.0071 7.42894Z" fill="#7D8695"/>
</svg>
