<svg width="18" height="18" viewBox="0 0 18 18" fill="none" xmlns="http://www.w3.org/2000/svg">
<path fill-rule="evenodd" clip-rule="evenodd" d="M4.09091 1.63568C2.7346 1.63568 1.63636 2.73345 1.63636 4.0892V9.81407H9.81818C10.2663 9.81407 10.6364 9.44418 10.6364 8.99623V1.63568H4.09091ZM0 4.0892C0 1.83009 1.83086 0 4.09091 0H11.4545C11.9064 0 12.2727 0.366159 12.2727 0.817839V8.99623C12.2727 10.3475 11.1701 11.4498 9.81818 11.4498H0.818182C0.366312 11.4498 0 11.0836 0 10.6319V4.0892Z" fill="#7D8695"/>
<path fill-rule="evenodd" clip-rule="evenodd" d="M10.6364 3.26315C10.6364 2.81147 11.0027 2.44531 11.4545 2.44531H12.96C13.8478 2.44531 14.6539 2.92565 15.0912 3.67851L15.0939 3.68315L15.0939 3.68315L16.493 6.12849C16.6378 6.3816 16.6368 6.69265 16.4905 6.94487C16.3441 7.1971 16.0744 7.35235 15.7827 7.35235H14.7273V9.80587H17.1818C17.6337 9.80587 18 10.172 18 10.6237V13.0772C18 14.8865 16.5373 16.3486 14.7273 16.3486H13.9091C13.4572 16.3486 13.0909 15.9824 13.0909 15.5307C13.0909 15.0828 12.7209 14.7129 12.2727 14.7129C11.8246 14.7129 11.4545 15.0828 11.4545 15.5307C11.4545 15.9824 11.0882 16.3486 10.6364 16.3486H7.36364C6.91177 16.3486 6.54545 15.9824 6.54545 15.5307C6.54545 15.0828 6.1754 14.7129 5.72727 14.7129C5.27914 14.7129 4.90909 15.0828 4.90909 15.5307C4.90909 15.9824 4.54278 16.3486 4.09091 16.3486H3.27273C1.46268 16.3486 0 14.8865 0 13.0772V10.6237C0 10.172 0.366312 9.80587 0.818182 9.80587H9.81818C10.2663 9.80587 10.6364 9.43597 10.6364 8.98803V3.26315ZM12.2727 4.08099V8.98803C12.2727 10.3393 11.1701 11.4415 9.81818 11.4415H1.63636V13.0772C1.63636 13.9832 2.36641 14.7129 3.27273 14.7129H3.41332C3.75154 13.7616 4.66205 13.0772 5.72727 13.0772C6.7925 13.0772 7.703 13.7616 8.04123 14.7129H9.95877C10.297 13.7616 11.2075 13.0772 12.2727 13.0772C13.338 13.0772 14.2485 13.7616 14.5867 14.7129H14.7273C15.6336 14.7129 16.3636 13.9832 16.3636 13.0772V11.4415H14.7273C13.8254 11.4415 13.0909 10.7074 13.0909 9.80587V7.35235C13.0909 6.56566 13.6502 5.90638 14.392 5.75122L13.6761 4.49984C13.6757 4.4992 13.6753 4.49855 13.6749 4.49791C13.523 4.23781 13.2496 4.08099 12.96 4.08099H12.2727Z" fill="#7D8695"/>
<path fill-rule="evenodd" clip-rule="evenodd" d="M5.72017 14.7294C5.2683 14.7294 4.90199 15.0956 4.90199 15.5473C4.90199 15.9989 5.2683 16.3651 5.72017 16.3651C6.17204 16.3651 6.53835 15.9989 6.53835 15.5473C6.53835 15.0956 6.17204 14.7294 5.72017 14.7294ZM3.26562 15.5473C3.26562 14.1922 4.36456 13.0938 5.72017 13.0938C7.07578 13.0938 8.17472 14.1922 8.17472 15.5473C8.17472 16.9023 7.07578 18.0008 5.72017 18.0008C4.36456 18.0008 3.26562 16.9023 3.26562 15.5473Z" fill="#7D8695"/>
<path fill-rule="evenodd" clip-rule="evenodd" d="M12.2749 14.7294C11.823 14.7294 11.4567 15.0956 11.4567 15.5473C11.4567 15.9989 11.823 16.3651 12.2749 16.3651C12.7267 16.3651 13.093 15.9989 13.093 15.5473C13.093 15.0956 12.7267 14.7294 12.2749 14.7294ZM9.82031 15.5473C9.82031 14.1922 10.9192 13.0938 12.2749 13.0938C13.6305 13.0938 14.7294 14.1922 14.7294 15.5473C14.7294 16.9023 13.6305 18.0008 12.2749 18.0008C10.9192 18.0008 9.82031 16.9023 9.82031 15.5473Z" fill="#7D8695"/>
<path fill-rule="evenodd" clip-rule="evenodd" d="M13.0859 7.36224C13.0859 6.46075 13.8204 5.72656 14.7223 5.72656H15.7778C16.0717 5.72656 16.343 5.88416 16.4886 6.13941L17.8877 8.59292C17.958 8.71631 17.995 8.85589 17.995 8.99792V10.6336C17.995 11.0853 17.6287 11.4514 17.1768 11.4514H14.7223C13.8204 11.4514 13.0859 10.7173 13.0859 9.81576V7.36224ZM15.3024 7.36224H14.7223V9.81576H16.3587V9.21464L15.3024 7.36224Z" fill="#7D8695"/>
</svg>
