<svg width="18" height="18" viewBox="0 0 18 18" fill="none" xmlns="http://www.w3.org/2000/svg">
<path fill-rule="evenodd" clip-rule="evenodd" d="M0 10.934C0 10.4462 0.366312 10.0508 0.818182 10.0508H13.3918C15.4227 10.0508 17.0736 11.8328 17.0736 14.0251C17.0736 16.2174 15.4227 17.9994 13.3918 17.9994C11.3608 17.9994 9.70996 16.2174 9.70996 14.0251V13.5835C9.70996 13.0957 10.0763 12.7003 10.5281 12.7003C10.98 12.7003 11.3463 13.0957 11.3463 13.5835V14.0251C11.3463 15.2419 12.2646 16.2331 13.3918 16.2331C14.519 16.2331 15.4372 15.2419 15.4372 14.0251C15.4372 12.8083 14.519 11.8171 13.3918 11.8171H0.818182C0.366312 11.8171 0 11.4217 0 10.934Z" fill="#7D8695"/>
<path fill-rule="evenodd" clip-rule="evenodd" d="M10.6364 5.19307C10.6364 2.99912 12.2969 1.21875 14.3182 1.21875C16.341 1.21875 18 3.00959 18 5.19307C18 7.38702 16.3394 9.16738 14.3182 9.16738H0.818182C0.366312 9.16738 0 8.77197 0 8.2842C0 7.79644 0.366312 7.40102 0.818182 7.40102H14.3182C15.4387 7.40102 16.3636 6.4082 16.3636 5.19307C16.3636 3.98513 15.4372 2.98511 14.3182 2.98511C13.1976 2.98511 12.2727 3.97793 12.2727 5.19307V5.63466C12.2727 6.12243 11.9064 6.51784 11.4545 6.51784C11.0027 6.51784 10.6364 6.12243 10.6364 5.63466V5.19307Z" fill="#7D8695"/>
<path fill-rule="evenodd" clip-rule="evenodd" d="M2.85359 3.25894C2.85359 1.4662 4.19975 0 5.87269 0C7.53348 0 8.89178 1.45309 8.89178 3.25894C8.89178 5.05168 7.54562 6.51788 5.87269 6.51788H0.818182C0.366312 6.51788 0 6.12247 0 5.6347C0 5.14693 0.366312 4.75152 0.818182 4.75152H5.87269C6.63793 4.75152 7.25541 4.08042 7.25541 3.25894C7.25541 2.4329 6.63371 1.76636 5.87269 1.76636C5.10744 1.76636 4.48996 2.43746 4.48996 3.25894V3.59455C4.48996 4.08232 4.12364 4.47773 3.67178 4.47773C3.21991 4.47773 2.85359 4.08232 2.85359 3.59455V3.25894Z" fill="#7D8695"/>
</svg>
