<svg width="18" height="18" viewBox="0 0 18 18" fill="none" xmlns="http://www.w3.org/2000/svg">
<path fill-rule="evenodd" clip-rule="evenodd" d="M9 1.63636C4.93551 1.63636 1.63636 4.93551 1.63636 9C1.63636 13.0645 4.93551 16.3636 9 16.3636C13.0645 16.3636 16.3636 13.0645 16.3636 9C16.3636 4.93551 13.0645 1.63636 9 1.63636ZM0 9C0 4.03177 4.03177 0 9 0C13.9682 0 18 4.03177 18 9C18 13.9682 13.9682 18 9 18C4.03177 18 0 13.9682 0 9Z" fill="#7D8695"/>
<path fill-rule="evenodd" clip-rule="evenodd" d="M8.69709 4.50977C9.14896 4.50977 9.51527 4.87608 9.51527 5.32795V8.68249C9.51527 8.76409 9.54923 8.91142 9.64305 9.07593C9.73689 9.24048 9.84636 9.34461 9.91602 9.38589L9.91819 9.38718L9.91819 9.38718L12.4546 10.9008C12.8426 11.1324 12.9694 11.6347 12.7379 12.0227C12.5063 12.4107 12.004 12.5375 11.616 12.306L9.08179 10.7936C9.08137 10.7934 9.08094 10.7931 9.08051 10.7929C8.70896 10.5723 8.41797 10.2309 8.22158 9.88656C8.02494 9.54175 7.87891 9.11635 7.87891 8.68249V5.32795C7.87891 4.87608 8.24522 4.50977 8.69709 4.50977Z" fill="#7D8695"/>
</svg>
