<svg width="32" height="32" viewBox="0 0 32 32" fill="none" xmlns="http://www.w3.org/2000/svg">
<path fill-rule="evenodd" clip-rule="evenodd" d="M0 16C0 7.19668 7.19668 0 16 0C24.8033 0 32 7.19668 32 16C32 24.8033 24.8033 32 16 32C7.19668 32 0 24.8033 0 16ZM16 2.90909C8.80332 2.90909 2.90909 8.80332 2.90909 16C2.90909 23.1967 8.80332 29.0909 16 29.0909C23.1967 29.0909 29.0909 23.1967 29.0909 16C29.0909 8.80332 23.1967 2.90909 16 2.90909Z" fill="#7D8695"/>
<path fill-rule="evenodd" clip-rule="evenodd" d="M21.1416 10.8557C21.7096 11.4237 21.7096 12.3447 21.1416 12.9128L12.9088 21.1455C12.3408 21.7135 11.4198 21.7135 10.8518 21.1455C10.2838 20.5774 10.2838 19.6565 10.8518 19.0884L19.0845 10.8557C19.6526 10.2877 20.5735 10.2877 21.1416 10.8557Z" fill="#7D8695"/>
<path fill-rule="evenodd" clip-rule="evenodd" d="M10.8518 10.8557C11.4198 10.2877 12.3408 10.2877 12.9088 10.8557L21.1416 19.0884C21.7096 19.6565 21.7096 20.5774 21.1416 21.1455C20.5735 21.7135 19.6526 21.7135 19.0845 21.1455L10.8518 12.9128C10.2838 12.3447 10.2838 11.4237 10.8518 10.8557Z" fill="#7D8695"/>
</svg>
