<svg width="11" height="20" viewBox="0 0 11 20" fill="none" xmlns="http://www.w3.org/2000/svg">
<path d="M3.99366 13.7193H6.99638C9.49864 13.7193 11 12.0449 11 9.99855V5.26395C11 4.28726 10.1392 3.4873 9.08827 3.4873H1.91178C0.860833 3.4873 4.97328e-05 4.28726 4.97328e-05 5.26395V9.99855C-0.00995933 12.0449 1.49139 13.7193 3.99366 13.7193Z" fill="#7D8695"/>
<path opacity="0.4" d="M3.7455 0.697634V3.48817H2.24414V0.697634C2.24414 0.316261 2.58445 0 2.99482 0C3.40519 0 3.7455 0.316261 3.7455 0.697634Z" fill="#7D8695"/>
<path opacity="0.4" d="M8.75331 0.697634V3.48817H7.25195V0.697634C7.25195 0.316261 7.59226 0 8.00263 0C8.413 0 8.75331 0.316261 8.75331 0.697634Z" fill="#7D8695"/>
<path opacity="0.4" d="M6.24355 13.7207V19.3018C6.24355 19.6831 5.90324 19.9994 5.49287 19.9994C5.0825 19.9994 4.74219 19.6831 4.74219 19.3018V13.7207H6.24355Z" fill="#7D8695"/>
</svg>
