<svg width="18" height="16" viewBox="0 0 18 16" fill="none" xmlns="http://www.w3.org/2000/svg">
<path fill-rule="evenodd" clip-rule="evenodd" d="M8.99995 5.77878C7.80854 5.77878 6.84696 6.77266 6.84696 8.00411C6.84696 9.23557 7.80854 10.2295 8.99995 10.2295C10.1914 10.2295 11.1529 9.23557 11.1529 8.00411C11.1529 6.77266 10.1914 5.77878 8.99995 5.77878ZM5.17798 8.00411C5.17798 5.81993 6.88678 4.05371 8.99995 4.05371C11.1131 4.05371 12.8219 5.81993 12.8219 8.00411C12.8219 10.1883 11.1131 11.9545 8.99995 11.9545C6.88678 11.9545 5.17798 10.1883 5.17798 8.00411Z" fill="#A3A3A3"/>
<path fill-rule="evenodd" clip-rule="evenodd" d="M0.694013 5.29822C2.71729 2.01097 5.70044 0 9 0C12.2997 0 15.2831 2.0112 17.3063 5.29878C17.7875 6.0786 18 7.06547 18 8C18 8.93475 17.7874 9.92187 17.306 10.7018C15.2827 13.989 12.2996 16 9 16C5.70025 16 2.71695 13.9888 0.693665 10.7012C0.212472 9.92139 0 8.93453 0 8C0 7.06524 0.212574 6.07813 0.694013 5.29822ZM9 1.72507C6.40823 1.72507 3.90058 3.30201 2.10188 6.22467L2.10119 6.2258C1.83183 6.66197 1.66898 7.30479 1.66898 8C1.66898 8.69521 1.83183 9.33803 2.10119 9.7742L2.10189 9.77533C3.90058 12.698 6.40823 14.2749 9 14.2749C11.5918 14.2749 14.0994 12.698 15.8981 9.77533L15.8988 9.7742C16.1682 9.33803 16.331 8.69521 16.331 8C16.331 7.30479 16.1682 6.66197 15.8988 6.2258L15.8981 6.22467C14.0994 3.30201 11.5918 1.72507 9 1.72507Z" fill="#A3A3A3"/>
</svg>
