<svg width="21" height="20" viewBox="0 0 21 20" fill="none" xmlns="http://www.w3.org/2000/svg">
<path opacity="0.4" d="M10.4876 0H4.63404C1.29753 0 0 1.52 0 5.42857V14.5714C0 17.2 1.21948 20 4.63404 20H10.4876C13.8241 20 15.1216 18.48 15.1216 14.5714V5.42857C15.1216 1.52 13.8241 0 10.4876 0Z" fill="#7D8695"/>
<path d="M9.02551 9.29031C10.0385 9.29031 10.8596 8.32836 10.8596 7.14174C10.8596 5.95511 10.0385 4.99316 9.02551 4.99316C8.01256 4.99316 7.19141 5.95511 7.19141 7.14174C7.19141 8.32836 8.01256 9.29031 9.02551 9.29031Z" fill="#7D8695"/>
<path d="M18.9298 3.33727C18.5298 3.09727 17.6908 2.82298 16.5493 3.76012L15.1055 4.9487C15.1152 5.1087 15.125 5.25727 15.125 5.4287V14.5716C15.125 14.743 15.1055 14.8916 15.1055 15.0516L16.5493 16.2401C17.1542 16.743 17.681 16.903 18.1005 16.903C18.4615 16.903 18.7444 16.7887 18.9298 16.6744C19.3298 16.4344 20.0029 15.783 20.0029 14.1487V5.86298C20.0029 4.2287 19.3298 3.57727 18.9298 3.33727Z" fill="#7D8695"/>
</svg>
