<svg width="18" height="18" viewBox="0 0 18 18" fill="none" xmlns="http://www.w3.org/2000/svg">
<path fill-rule="evenodd" clip-rule="evenodd" d="M9.03366 1.85063C9.0102 1.90086 8.98607 1.95828 8.96182 2.02345L7.52512 5.86502C7.33327 6.36692 6.95134 6.76539 6.43613 6.92412C5.92094 7.08286 5.38147 6.96836 4.93967 6.66145L4.92938 6.65419L1.75523 4.37569L5.1249 13.8332C5.12521 13.8336 5.12554 13.834 5.12591 13.8345C5.13313 13.8435 5.14624 13.8567 5.16483 13.8699C5.18342 13.883 5.20042 13.8912 5.21162 13.8951C5.21226 13.8954 5.21285 13.8956 5.2134 13.8957H12.8465C12.8475 13.8954 12.8487 13.895 12.8501 13.8945C12.8629 13.89 12.8822 13.8809 12.9034 13.8663C12.9247 13.8516 12.9406 13.8364 12.9501 13.8251C12.9508 13.8244 12.9513 13.8236 12.9519 13.823L16.2306 4.61281C16.2307 4.61249 16.2308 4.61216 16.2309 4.61184C16.2588 4.53259 16.2819 4.4596 16.3007 4.39275C16.2428 4.42907 16.1803 4.47107 16.1133 4.51935L16.1111 4.52087L13.1244 6.65806C12.684 6.96874 12.144 7.08311 11.6292 6.92384C11.1154 6.76487 10.7339 6.36652 10.5422 5.86501L10.5401 5.85948L9.10549 2.02345C9.08124 1.95828 9.05711 1.90086 9.03366 1.85063ZM10.6321 1.45114C10.4958 1.08471 10.3155 0.748529 10.0757 0.490242C9.8331 0.228927 9.47998 0 9.03366 0C8.58733 0 8.23421 0.228927 7.99158 0.490242C7.75176 0.748531 7.57155 1.08472 7.43518 1.45115C7.43513 1.45127 7.43522 1.45103 7.43518 1.45115L6.0027 5.28143C5.98391 5.32983 5.96495 5.3516 5.95792 5.35855C5.95761 5.35886 5.95732 5.35914 5.95704 5.35941C5.9563 5.3593 5.95548 5.35916 5.95458 5.35899C5.94383 5.35701 5.91493 5.34929 5.87117 5.31959L2.70095 3.04391C2.70073 3.04376 2.70117 3.04407 2.70095 3.04391C2.37027 2.80565 2.0281 2.61584 1.69097 2.52345C1.36292 2.43355 0.900127 2.40311 0.502702 2.70265C0.105029 3.00237 0.00523869 3.45725 0.000217926 3.79943C-0.00494194 4.15109 0.0819176 4.53454 0.219194 4.92209L0.219701 4.92352L3.59137 14.3866C3.59173 14.3876 3.59208 14.3886 3.59244 14.3897C3.71744 14.7456 3.96569 15.0219 4.22431 15.2053C4.4835 15.3891 4.82575 15.531 5.19978 15.531H12.8594C13.2329 15.531 13.5725 15.3895 13.8278 15.213C14.0828 15.0368 14.3313 14.7723 14.4648 14.4331C14.468 14.4247 14.4712 14.4163 14.4742 14.4079L17.7662 5.16043L17.7671 5.15796C17.9146 4.73941 18.0057 4.33001 17.9997 3.9581C17.9939 3.59575 17.8882 3.1278 17.4822 2.81973C17.0751 2.51087 16.5968 2.53744 16.2472 2.6325C15.8894 2.72977 15.5231 2.93155 15.1639 3.19019C15.1635 3.19045 15.1632 3.19071 15.1628 3.19097L12.187 5.32034C12.1864 5.32073 12.1859 5.32112 12.1853 5.3215C12.1457 5.34915 12.1195 5.35682 12.1096 5.35891C12.1024 5.35176 12.0834 5.32979 12.0646 5.28141L10.6321 1.45114C10.6322 1.45126 10.6321 1.45102 10.6321 1.45114Z" fill="#171D25"/>
<path fill-rule="evenodd" clip-rule="evenodd" d="M3.7334 17.1819C3.7334 16.7303 4.09822 16.3643 4.54825 16.3643H13.5116C13.9617 16.3643 14.3265 16.7303 14.3265 17.1819C14.3265 17.6335 13.9617 17.9995 13.5116 17.9995H4.54825C4.09822 17.9995 3.7334 17.6335 3.7334 17.1819Z" fill="#171D25"/>
<path fill-rule="evenodd" clip-rule="evenodd" d="M6.17676 10.6409C6.17676 10.1893 6.54158 9.82324 6.99161 9.82324H11.0659C11.5159 9.82324 11.8807 10.1893 11.8807 10.6409C11.8807 11.0924 11.5159 11.4585 11.0659 11.4585H6.99161C6.54158 11.4585 6.17676 11.0924 6.17676 10.6409Z" fill="#171D25"/>
</svg>
