<svg width="18" height="18" viewBox="0 0 18 18" fill="none" xmlns="http://www.w3.org/2000/svg">
<path fill-rule="evenodd" clip-rule="evenodd" d="M9 1.63636C7.34357 1.63636 5.81234 2.18804 4.58119 3.10956C4.21944 3.38034 3.70667 3.30658 3.43589 2.94483C3.16512 2.58307 3.23887 2.0703 3.60063 1.79953C5.1022 0.675598 6.97462 0 9 0C13.9682 0 18 4.03177 18 9C18 13.9682 13.9682 18 9 18C4.03177 18 0 13.9682 0 9C0 7.37251 0.432021 5.84068 1.19806 4.51589C1.42379 4.1255 1.92284 3.99137 2.31387 4.21597L9.40752 8.29053C9.79935 8.51559 9.93454 9.01569 9.70947 9.40752C9.48441 9.79935 8.98431 9.93454 8.59248 9.70947L2.24595 6.06406C1.85264 6.96397 1.63636 7.95618 1.63636 9C1.63636 13.0645 4.93551 16.3636 9 16.3636C13.0645 16.3636 16.3636 13.0645 16.3636 9C16.3636 4.93551 13.0645 1.63636 9 1.63636Z" fill="#292D32"/>
<path fill-rule="evenodd" clip-rule="evenodd" d="M6.55849 3.81955C7.30158 3.46248 8.1348 3.27246 8.9992 3.27246C12.1593 3.27246 14.7265 5.83968 14.7265 8.99973C14.7265 12.1598 12.1593 14.727 8.9992 14.727C5.83915 14.727 3.27193 12.1598 3.27193 8.99973C3.27193 8.95231 3.27182 8.90501 3.27171 8.85783C3.27083 8.48759 3.26997 8.12562 3.32357 7.78303C3.39032 7.35643 3.53501 6.97388 3.79597 6.53565C4.02718 6.14741 4.52933 6.0201 4.91758 6.2513C5.30582 6.4825 5.43313 6.98466 5.20193 7.3729C5.02925 7.66286 4.96953 7.84895 4.94027 8.03598C4.90781 8.24341 4.90796 8.46778 4.90824 8.87644C4.90827 8.91578 4.90829 8.95683 4.90829 8.99973C4.90829 11.256 6.74289 13.0906 8.9992 13.0906C11.2555 13.0906 13.0901 11.256 13.0901 8.99973C13.0901 6.74342 11.2555 4.90882 8.9992 4.90882C8.37451 4.90882 7.78412 5.04609 7.26721 5.29447C6.85993 5.49018 6.3711 5.31866 6.17539 4.91138C5.97968 4.50409 6.1512 4.01526 6.55849 3.81955Z" fill="#292D32"/>
</svg>
