<svg width="40" height="40" viewBox="0 0 40 40" fill="none" xmlns="http://www.w3.org/2000/svg">
<rect x="0.5" y="0.5" width="39" height="39" rx="7.5" fill="#0064FA" fill-opacity="0.1" stroke="#0064FA"/>
<path opacity="0.4" d="M29.0353 22.9881L27.8353 20.9961C27.5833 20.5521 27.3553 19.7121 27.3553 19.2201V16.1841C27.3553 12.2721 24.1753 9.08008 20.2513 9.08008C16.3273 9.08008 13.1473 12.2721 13.1473 16.1841V19.2201C13.1473 19.7121 12.9193 20.5521 12.6673 20.9841L11.4553 22.9881C10.9753 23.7921 10.8673 24.6801 11.1673 25.4961C11.4553 26.3001 12.1393 26.9241 13.0273 27.2241C15.3553 28.0161 17.8033 28.4001 20.2513 28.4001C22.6993 28.4001 25.1473 28.0161 27.4753 27.2361C28.3153 26.9601 28.9633 26.3241 29.2753 25.4961C29.5873 24.6681 29.5033 23.7561 29.0353 22.9881Z" fill="#0064FA"/>
<path d="M22.9298 9.584C22.1018 9.26 21.2018 9.08 20.2538 9.08C19.3178 9.08 18.4178 9.248 17.5898 9.584C18.1058 8.612 19.1258 8 20.2538 8C21.3938 8 22.4018 8.612 22.9298 9.584Z" fill="#0064FA"/>
<path d="M23.6237 29.6116C23.1197 31.0036 21.7877 31.9996 20.2277 31.9996C19.2797 31.9996 18.3437 31.6156 17.6837 30.9316C17.2997 30.5716 17.0117 30.0916 16.8438 29.5996C16.9997 29.6236 17.1557 29.6356 17.3237 29.6596C17.5997 29.6956 17.8877 29.7316 18.1757 29.7556C18.8597 29.8156 19.5557 29.8516 20.2517 29.8516C20.9357 29.8516 21.6197 29.8156 22.2917 29.7556C22.5437 29.7316 22.7957 29.7196 23.0357 29.6836C23.2277 29.6596 23.4197 29.6356 23.6237 29.6116Z" fill="#0064FA"/>
</svg>
