<svg width="18" height="18" viewBox="0 0 18 18" fill="none" xmlns="http://www.w3.org/2000/svg">
<path fill-rule="evenodd" clip-rule="evenodd" d="M1.43064 7.54492C1.89715 7.54492 2.27534 7.91122 2.27534 8.36308V12.0366C2.27534 13.7922 2.64377 14.8097 3.26225 15.4087C3.88073 16.0078 4.93122 16.3646 6.7438 16.3646H11.2967C13.1093 16.3646 14.1598 16.0078 14.7783 15.4087C15.3968 14.8097 15.7652 13.7922 15.7652 12.0366V8.36308C15.7652 7.91122 16.1434 7.54492 16.6099 7.54492C17.0764 7.54492 17.4546 7.91122 17.4546 8.36308V12.0366C17.4546 13.9545 17.0628 15.5101 15.9729 16.5658C14.8829 17.6215 13.2769 18.001 11.2967 18.001H6.7438C4.76368 18.001 3.15759 17.6215 2.06766 16.5658C0.977736 15.5101 0.585938 13.9545 0.585938 12.0366V8.36308C0.585938 7.91122 0.964123 7.54492 1.43064 7.54492Z" fill="#7D8695"/>
<path fill-rule="evenodd" clip-rule="evenodd" d="M6.21273 0.736505C6.25603 0.318367 6.61935 0 7.05322 0H10.998C11.4323 0 11.7959 0.31905 11.8386 0.737712L12.3961 6.20299C12.5968 8.17954 11.0683 9.81787 9.02137 9.81787C6.97444 9.81787 5.4459 8.17989 5.64662 6.20335L6.21273 0.736505ZM7.81743 1.63631L7.32791 6.36352C7.32789 6.36376 7.32794 6.36329 7.32791 6.36352C7.22496 7.3811 7.97694 8.18156 9.02137 8.18156C10.0659 8.18156 10.818 7.38161 10.7149 6.36388L10.2326 1.63631H7.81743Z" fill="#7D8695"/>
<path fill-rule="evenodd" clip-rule="evenodd" d="M10.3395 0.269126C10.4997 0.0977632 10.7272 0 10.9658 0H13.5421C14.7352 0 15.7574 0.216946 16.5121 0.892136C17.2557 1.55737 17.5801 2.52765 17.7408 3.6513C17.7422 3.66106 17.7434 3.67084 17.7444 3.68064L17.9811 5.93244C18.1993 8.05679 16.5606 9.81787 14.353 9.81787C12.5264 9.81787 10.9048 8.40456 10.7168 6.63728L10.7166 6.63472L10.1253 0.89945C10.1016 0.669461 10.1794 0.440489 10.3395 0.269126ZM11.899 1.63631L12.3973 6.46958C12.3974 6.46996 12.3974 6.47035 12.3975 6.47074C12.4973 7.40285 13.3925 8.18156 14.353 8.18156C15.5578 8.18156 16.4193 7.25951 16.3001 6.09525C16.3001 6.09498 16.3001 6.09552 16.3001 6.09525L16.0653 3.86142C15.9215 2.8674 15.6725 2.36846 15.3658 2.09413C15.0689 1.82844 14.5622 1.63631 13.5421 1.63631H11.899Z" fill="#7D8695"/>
<path fill-rule="evenodd" clip-rule="evenodd" d="M1.48004 0.892136C2.23473 0.216946 3.25694 0 4.45003 0H7.02637C7.26502 0 7.49254 0.0977801 7.65267 0.269169C7.81281 0.440558 7.89062 0.66956 7.86688 0.899565L7.27583 6.63239C7.2758 6.63274 7.27576 6.63309 7.27573 6.63344C7.09776 8.40523 5.47276 9.81787 3.64757 9.81787C1.44019 9.81787 -0.198439 8.0571 0.0194474 5.933C0.019428 5.93319 0.0194668 5.93281 0.0194474 5.933L0.247466 3.68357C0.248559 3.67279 0.249873 3.66203 0.251406 3.6513C0.412038 2.52765 0.736491 1.55737 1.48004 0.892136ZM1.92711 3.85999L1.7006 6.09445C1.58096 7.25909 2.44255 8.18156 3.64757 8.18156C4.60953 8.18156 5.50145 7.4021 5.59432 6.47446L5.59453 6.47238L6.09298 1.63631H4.45003C3.43 1.63631 2.92332 1.82844 2.62634 2.09413C2.31986 2.36833 2.07092 2.86692 1.92711 3.85999Z" fill="#7D8695"/>
<path fill-rule="evenodd" clip-rule="evenodd" d="M6.8407 13.0214C7.40723 12.4727 8.18861 12.2715 9.02286 12.2715C9.85711 12.2715 10.6385 12.4727 11.205 13.0214C11.7715 13.5702 11.9793 14.327 11.9793 15.135V17.1804C11.9793 17.6323 11.6011 17.9986 11.1346 17.9986H6.91111C6.44459 17.9986 6.06641 17.6323 6.06641 17.1804V15.135C6.06641 14.327 6.27417 13.5702 6.8407 13.0214ZM8.03528 14.1785C7.8986 14.3109 7.75581 14.5767 7.75581 15.135V16.3623H10.2899V15.135C10.2899 14.5767 10.1471 14.3109 10.0104 14.1785C9.87375 14.0461 9.59926 13.9078 9.02286 13.9078C8.44646 13.9078 8.17196 14.0461 8.03528 14.1785Z" fill="#7D8695"/>
</svg>
