<svg width="16" height="18" viewBox="0 0 16 18" fill="none" xmlns="http://www.w3.org/2000/svg">
<path fill-rule="evenodd" clip-rule="evenodd" d="M7.99375 0C8.51681 0 9.08019 0.0707443 9.5522 0.239779L9.55911 0.242256L13.7169 1.77225C13.7168 1.77222 13.7169 1.77227 13.7169 1.77225C14.3871 2.01837 14.9494 2.50812 15.3405 3.06327C15.7318 3.61857 16 4.30771 16 5.00987V11.0896C16 11.7349 15.7887 12.4203 15.4872 13.009C15.1855 13.598 14.7508 14.1733 14.2239 14.56L10.6424 17.1853C10.642 17.1856 10.6416 17.1859 10.6412 17.1862C9.88401 17.7446 8.92249 18 8 18C7.0775 18 6.11597 17.7446 5.35878 17.1861C5.35838 17.1859 5.35798 17.1856 5.35758 17.1853L1.7765 14.5602C1.24957 14.1735 0.814547 13.598 0.512839 13.009C0.211277 12.4203 0 11.7349 0 11.0896V5.00987C0 4.30771 0.268244 3.61857 0.659462 3.06327C1.0505 2.50822 1.61252 2.01863 2.28257 1.77246L6.44176 0.24197C6.90938 0.0704712 7.4717 0 7.99375 0ZM7.0249 1.77508C7.02478 1.77512 7.02502 1.77503 7.0249 1.77508L2.86743 3.30493C2.57939 3.41069 2.27022 3.65353 2.03012 3.99433C1.79009 4.33504 1.66667 4.70556 1.66667 5.00987V11.0896C1.66667 11.4099 1.7804 11.8415 2.00176 12.2736C2.22295 12.7054 2.50909 13.0547 2.7738 13.249C2.77378 13.249 2.77383 13.249 2.7738 13.249L6.3591 15.8771C6.77672 16.1854 7.36882 16.3635 8 16.3635C8.63118 16.3635 9.22328 16.1854 9.64091 15.8771L9.64315 15.8755L13.2261 13.2491C13.4909 13.0548 13.777 12.7054 13.9983 12.2736C14.2196 11.8415 14.3333 11.4099 14.3333 11.0896V5.00987C14.3333 4.70556 14.2099 4.33504 13.9699 3.99433C13.7298 3.65353 13.4212 3.4109 13.1331 3.30514L8.97808 1.77618C8.74174 1.69216 8.38567 1.63655 7.99375 1.63655C7.59935 1.63655 7.24896 1.69298 7.0249 1.77508Z" fill="#7D8695"/>
<path fill-rule="evenodd" clip-rule="evenodd" d="M7.94064 6.05647C7.59254 6.05647 7.30729 6.33656 7.30729 6.67837C7.30729 7.01661 7.57576 7.28466 7.89843 7.30026H7.97446C8.29739 7.28477 8.56806 7.02339 8.57396 6.67418C8.57164 6.33428 8.28731 6.05647 7.94064 6.05647ZM5.64062 6.67837C5.64062 5.43272 6.67206 4.41992 7.94064 4.41992C9.20921 4.41992 10.2406 5.43272 10.2406 6.67837V6.68689C10.2277 7.90281 9.255 8.89761 8.01722 8.9364C8.00836 8.93668 7.9995 8.93681 7.99063 8.93681H7.8823C7.87343 8.93681 7.86457 8.93668 7.85571 8.9364C6.61635 8.89756 5.64062 7.8912 5.64062 6.67837Z" fill="#7D8695"/>
<path fill-rule="evenodd" clip-rule="evenodd" d="M10.1046 9.73143C10.6775 10.1073 11.0734 10.6839 11.0734 11.3641C11.0734 12.0449 10.6768 12.6219 10.1031 12.9977C9.48307 13.4052 8.71235 13.5837 7.98594 13.5837C7.25925 13.5837 6.4882 13.4051 5.86806 12.9973C5.29473 12.6214 4.89844 12.0446 4.89844 11.3641C4.89844 10.683 5.2954 10.1058 5.86952 9.72997L5.87098 9.72901L5.87098 9.72901C6.49371 9.32322 7.26517 9.14453 7.99219 9.14453C8.71769 9.14453 9.48739 9.32257 10.1046 9.73143ZM6.79331 11.0921C6.56813 11.2398 6.56511 11.3537 6.56511 11.3641C6.56511 11.3745 6.56814 11.4887 6.79402 11.6365L6.79549 11.6375C7.08367 11.827 7.51263 11.9471 7.98594 11.9471C8.45925 11.9471 8.88821 11.827 9.17639 11.6375L9.17786 11.6365C9.40374 11.4887 9.40678 11.3745 9.40678 11.3641C9.40678 11.3537 9.40374 11.2395 9.17786 11.0917L9.17343 11.0888L9.17344 11.0887C8.89102 10.9013 8.46584 10.7811 7.99219 10.7811C7.51961 10.7811 7.08724 10.9009 6.79331 11.0921Z" fill="#7D8695"/>
</svg>
