<svg width="18" height="18" viewBox="0 0 18 18" fill="none" xmlns="http://www.w3.org/2000/svg">
<path fill-rule="evenodd" clip-rule="evenodd" d="M6.5217 1.65062C4.89754 1.65062 3.59076 2.92227 3.59076 4.48968C3.59076 6.01225 4.8149 7.24676 6.36181 7.31923C6.46412 7.31286 6.57159 7.3125 6.67488 7.31914C8.21979 7.24583 9.44518 6.01238 9.45265 4.48795C9.45168 2.92254 8.138 1.65062 6.5217 1.65062ZM1.88672 4.48968C1.88672 2.01308 3.95393 0 6.5217 0C9.07971 0 11.1567 2.01187 11.1567 4.48968V4.49312H11.1567C11.1463 6.91446 9.17541 8.88962 6.68665 8.97065C6.64881 8.97188 6.61092 8.97067 6.57325 8.96702C6.54686 8.96446 6.49909 8.96375 6.454 8.96772C6.41884 8.97082 6.38352 8.9718 6.34824 8.97065C3.8601 8.88964 1.88672 6.9143 1.88672 4.48968Z" fill="#7D8695"/>
<path fill-rule="evenodd" clip-rule="evenodd" d="M11.9858 2.4757C11.9858 2.01989 12.3673 1.65039 12.8379 1.65039C14.9629 1.65039 16.6719 3.31717 16.6719 5.36428C16.6719 7.37029 15.0291 9.00331 12.9805 9.0776C12.9353 9.07924 12.89 9.07739 12.8451 9.07206C12.8444 9.07203 12.843 9.07199 12.8411 9.07199C12.8358 9.07199 12.8289 9.0723 12.8212 9.07313C12.3535 9.12346 11.9323 8.79703 11.8803 8.34401C11.8283 7.89099 12.1653 7.48294 12.633 7.43261C12.7407 7.42102 12.8541 7.41782 12.9676 7.4257C14.0817 7.35965 14.9679 6.4613 14.9679 5.36428C14.9679 4.2257 14.0186 3.30101 12.8379 3.30101C12.3673 3.30101 11.9858 2.93151 11.9858 2.4757Z" fill="#7D8695"/>
<path fill-rule="evenodd" clip-rule="evenodd" d="M6.66918 9.23242C8.34393 9.23242 10.0626 9.63895 11.3997 10.5038C12.6082 11.2827 13.3256 12.393 13.3256 13.6097C13.3256 14.826 12.6085 15.9379 11.4011 16.7209L11.4009 16.721C10.0599 17.5901 8.3388 17.9993 6.66279 17.9993C4.98716 17.9993 3.26647 17.5903 1.92557 16.7216C0.717312 15.9426 0 14.8324 0 13.6158C0 12.3995 0.71705 11.2876 1.92447 10.5046L1.9276 10.5026L1.9276 10.5026C3.27201 9.63916 4.9939 9.23242 6.66918 9.23242ZM2.87086 11.8773C2.01755 12.4311 1.70404 13.0767 1.70404 13.6158C1.70404 14.1548 2.0173 14.7982 2.87037 15.3479L2.87224 15.3491C3.87425 15.9985 5.24597 16.3487 6.66279 16.3487C8.07952 16.3487 9.45118 15.9986 10.4532 15.3492M2.87086 11.8773C3.87788 11.2311 5.25238 10.883 6.66918 10.883C8.08699 10.883 9.45658 11.2315 10.4539 11.8768L10.4552 11.8776C11.3083 12.4274 11.6215 13.0707 11.6215 13.6097C11.6215 14.1491 11.3077 14.7951 10.4533 15.3491" fill="#7D8695"/>
<path fill-rule="evenodd" clip-rule="evenodd" d="M13.6755 10.5484C13.7789 10.1037 14.2349 9.82446 14.694 9.92467C15.3892 10.0764 16.079 10.3486 16.6652 10.7815C17.5128 11.3984 17.9999 12.2693 17.9999 13.2016C17.9999 14.1335 17.5131 15.0041 16.6661 15.621C16.0738 16.0606 15.3732 16.3446 14.6549 16.4896C14.1942 16.5826 13.743 16.2962 13.647 15.85C13.551 15.4037 13.8467 14.9666 14.3073 14.8737C14.8143 14.7714 15.2711 14.5776 15.6322 14.309L15.6398 14.3033L15.6398 14.3034C16.1196 13.9548 16.2959 13.5474 16.2959 13.2016C16.2959 12.8557 16.1196 12.4483 15.6398 12.0998L15.6339 12.0955L15.634 12.0955C15.2836 11.8363 14.8329 11.647 14.3194 11.5349C13.8603 11.4347 13.572 10.993 13.6755 10.5484Z" fill="#7D8695"/>
</svg>
