<svg width="56" height="56" viewBox="0 0 56 56" fill="none" xmlns="http://www.w3.org/2000/svg">
<path opacity="0.4" d="M47.8407 14.5368V31.5517C47.8407 41.7275 43.0539 46.0885 35.8737 46.0885H11.967C10.7431 46.0885 9.57357 45.9565 8.48566 45.6592C7.80572 45.527 7.153 45.2957 6.55465 45.0314C2.475 43.1813 0 38.8862 0 31.5517V14.5368C0 4.36095 4.78677 0 11.967 0H35.8737C41.966 0 46.3448 3.13864 47.5143 10.308C47.7047 11.6295 47.8407 12.984 47.8407 14.5368Z" fill="#F08E61"/>
<path d="M55.9987 24.4489V41.4638C55.9987 51.6397 51.2119 56.0006 44.0317 56.0006H20.125C18.1123 56.0006 16.2901 55.6704 14.7127 54.9436C11.4761 53.4899 9.27311 50.4834 8.48438 45.6598C9.57228 45.9571 10.7418 46.0891 11.9657 46.0891H35.8724C43.0526 46.0891 47.8394 41.7281 47.8394 31.5523V14.5374C47.8394 12.9846 47.7306 11.5971 47.5131 10.3086C52.6806 11.6301 55.9987 16.0572 55.9987 24.4489Z" fill="#F08E61"/>
<path d="M24.2661 31.1102C28.5616 31.1102 32.0438 27.628 32.0438 23.3325C32.0438 19.0369 28.5616 15.5547 24.2661 15.5547C19.9705 15.5547 16.4883 19.0369 16.4883 23.3325C16.4883 27.628 19.9705 31.1102 24.2661 31.1102Z" fill="#F08E61"/>
<path d="M8.55599 15.5547C7.28043 15.5547 6.22266 16.678 6.22266 18.0326V27.9441C6.22266 29.2987 7.28043 30.422 8.55599 30.422C9.83154 30.422 10.8893 29.2987 10.8893 27.9441V18.0326C10.8893 16.678 9.86266 15.5547 8.55599 15.5547Z" fill="#F08E61"/>
<path d="M39.6654 15.5547C38.3898 15.5547 37.332 16.678 37.332 18.0326V27.9441C37.332 29.2987 38.3898 30.422 39.6654 30.422C40.9409 30.422 41.9987 29.2987 41.9987 27.9441V18.0326C41.9987 16.678 40.972 15.5547 39.6654 15.5547Z" fill="#F08E61"/>
</svg>
