<svg width="14" height="14" viewBox="0 0 14 14" fill="none" xmlns="http://www.w3.org/2000/svg">
<path d="M12.1316 2.56271L7.74256 0.18957C7.28056 -0.06319 6.72056 -0.06319 6.25856 0.18957L1.86956 2.56271C1.54756 2.73823 1.35156 3.07525 1.35156 3.46141C1.35156 3.84055 1.54756 4.18458 1.86956 4.36011L6.25856 6.73325C6.48956 6.85963 6.74856 6.92282 7.00056 6.92282C7.25256 6.92282 7.51156 6.85963 7.74256 6.73325L12.1316 4.36011C12.4536 4.18458 12.6496 3.84757 12.6496 3.46141C12.6496 3.07525 12.4536 2.73823 12.1316 2.56271Z" fill="#0064FA"/>
<path opacity="0.4" d="M5.537 7.5548L1.449 5.50463C1.134 5.35017 0.77 5.36421 0.476 5.54676C0.175 5.73633 0 6.05228 0 6.40333V10.272C0 10.939 0.371 11.5428 0.966 11.8447L5.047 13.8949C5.187 13.9651 5.341 14.0002 5.495 14.0002C5.677 14.0002 5.859 13.951 6.02 13.8527C6.321 13.6702 6.496 13.3472 6.496 12.9962V9.12752C6.503 8.4535 6.132 7.84968 5.537 7.5548Z" fill="#0064FA"/>
<path opacity="0.4" d="M13.5239 5.5496C13.2229 5.36705 12.8589 5.34599 12.5509 5.50747L8.46991 7.55764C7.87491 7.85954 7.50391 8.45634 7.50391 9.13037V12.999C7.50391 13.3501 7.67891 13.673 7.97991 13.8556C8.14091 13.9539 8.32291 14.003 8.50491 14.003C8.65891 14.003 8.81291 13.9679 8.95291 13.8977L13.0339 11.8475C13.6289 11.5456 13.9999 10.9488 13.9999 10.2748V6.40618C13.9999 6.05512 13.8249 5.73917 13.5239 5.5496Z" fill="#0064FA"/>
</svg>
