<svg width="18" height="18" viewBox="0 0 18 18" fill="none" xmlns="http://www.w3.org/2000/svg">
<path fill-rule="evenodd" clip-rule="evenodd" d="M8.63431 1.73306C8.63395 1.73326 8.63358 1.73345 8.63322 1.73365L3.30964 4.61003C3.30159 4.61441 3.2957 4.61951 3.28929 4.63126C3.28116 4.64615 3.273 4.67163 3.273 4.70424C3.273 4.73685 3.28116 4.76233 3.28929 4.77723C3.2957 4.78897 3.30142 4.79398 3.30948 4.79836L8.63322 7.67484C8.63361 7.67505 8.63401 7.67526 8.6344 7.67547C8.86728 7.79972 9.13326 7.79973 9.36614 7.67547C9.36654 7.67526 9.36693 7.67505 9.36733 7.67484L14.6909 4.79845C14.699 4.79405 14.7048 4.78905 14.7113 4.77723C14.7194 4.76233 14.7275 4.73685 14.7275 4.70424C14.7275 4.67163 14.7194 4.64615 14.7113 4.63126C14.7048 4.61943 14.699 4.61444 14.6909 4.61003L9.36733 1.73365C9.36696 1.73345 9.36659 1.73326 9.36623 1.73306C9.13329 1.60874 8.86725 1.60874 8.63431 1.73306ZM7.86187 0.287435C8.5774 -0.0958117 9.42314 -0.0958117 10.1387 0.287435L10.1413 0.288841L15.4677 3.16674C16.6624 3.81265 16.6626 5.59575 15.4678 6.24166L10.1413 9.11964L10.1387 9.12105C9.42314 9.5043 8.5774 9.5043 7.86187 9.12105L7.85925 9.11964L2.53288 6.24175C1.33811 5.59584 1.33794 3.81274 2.53271 3.16683L7.86187 0.287435Z" fill="#7D8695"/>
<path fill-rule="evenodd" clip-rule="evenodd" d="M1.76942 8.19894C1.70111 8.16482 1.63636 8.21412 1.63636 8.27737V12.9673C1.63636 13.3417 1.85084 13.6924 2.19291 13.8668C2.19339 13.867 2.19386 13.8673 2.19433 13.8675L7.14045 16.3499C7.14038 16.3498 7.14051 16.3499 7.14045 16.3499C7.20873 16.3839 7.27364 16.3347 7.27364 16.2715V11.5816C7.27364 11.2072 7.05917 10.8565 6.71711 10.6821L1.76942 8.19894C1.76947 8.19896 1.76938 8.19892 1.76942 8.19894ZM0 8.27737C0 6.9796 1.35881 6.15982 2.50136 6.7323L7.45525 9.21859C8.33962 9.66761 8.91 10.5791 8.91 11.5816V16.2715C8.91 17.5693 7.55119 18.389 6.40864 17.8166L1.45816 15.332L1.45476 15.3303C0.570387 14.8812 0 13.9698 0 12.9673V8.27737Z" fill="#7D8695"/>
<path fill-rule="evenodd" clip-rule="evenodd" d="M15.4985 6.7323C16.641 6.15982 17.9998 6.9796 17.9998 8.27737V12.9673C17.9998 13.9698 17.4295 14.8812 16.5451 15.3303L16.5417 15.332L11.5917 17.8163C10.4491 18.3888 9.08984 17.5693 9.08984 16.2715V11.5816C9.08984 10.5791 9.66023 9.66762 10.5446 9.2186L10.548 9.21687L15.4985 6.7323ZM16.2303 8.199C16.2303 8.19902 16.2303 8.19899 16.2303 8.199L11.2828 10.6821C10.9407 10.8564 10.7262 11.2072 10.7262 11.5816V16.2715C10.7262 16.3347 10.7909 16.384 10.8592 16.3499C10.8592 16.35 10.8593 16.3499 10.8592 16.3499L15.8055 13.8675C15.806 13.8673 15.8065 13.867 15.8069 13.8668C16.149 13.6924 16.3635 13.3417 16.3635 12.9673V8.27737C16.3635 8.2141 16.2986 8.16483 16.2303 8.199Z" fill="#7D8695"/>
</svg>
