<svg width="16" height="14" viewBox="0 0 16 14" fill="none" xmlns="http://www.w3.org/2000/svg">
<path opacity="0.4" d="M12.8 0H3.2C1.432 0 0 1.38444 0 3.08778V10.9122C0 12.6156 1.432 14 3.2 14H12.8C14.568 14 16 12.6156 16 10.9122V3.08778C16 1.38444 14.568 0 12.8 0Z" fill="#0064FA"/>
<path d="M13.6 4.47135H9.6C9.272 4.47135 9 4.20691 9 3.88802C9 3.56913 9.272 3.30469 9.6 3.30469H13.6C13.928 3.30469 14.2 3.56913 14.2 3.88802C14.2 4.20691 13.928 4.47135 13.6 4.47135Z" fill="#0064FA"/>
<path d="M13.6008 7.58073H10.4008C10.0728 7.58073 9.80078 7.31628 9.80078 6.9974C9.80078 6.67851 10.0728 6.41406 10.4008 6.41406H13.6008C13.9288 6.41406 14.2008 6.67851 14.2008 6.9974C14.2008 7.31628 13.9288 7.58073 13.6008 7.58073Z" fill="#0064FA"/>
<path d="M13.5984 10.6979H11.9984C11.6704 10.6979 11.3984 10.4335 11.3984 10.1146C11.3984 9.79569 11.6704 9.53125 11.9984 9.53125H13.5984C13.9264 9.53125 14.1984 9.79569 14.1984 10.1146C14.1984 10.4335 13.9264 10.6979 13.5984 10.6979Z" fill="#0064FA"/>
<path d="M5.19956 6.83552C6.22018 6.83552 7.04756 6.03113 7.04756 5.03885C7.04756 4.04658 6.22018 3.24219 5.19956 3.24219C4.17894 3.24219 3.35156 4.04658 3.35156 5.03885C3.35156 6.03113 4.17894 6.83552 5.19956 6.83552Z" fill="#0064FA"/>
<path d="M5.84119 7.8651C5.41719 7.82622 4.97719 7.82622 4.55319 7.8651C3.20919 7.98955 2.12919 9.02399 2.00119 10.3307C1.99319 10.4395 2.02519 10.5484 2.10519 10.6262C2.18519 10.704 2.28919 10.7584 2.40119 10.7584H8.00119C8.11319 10.7584 8.22519 10.7118 8.29719 10.634C8.36919 10.5562 8.40919 10.4473 8.40119 10.3384C8.26519 9.02399 7.19319 7.98955 5.84119 7.8651Z" fill="#0064FA"/>
</svg>
