<svg width="16" height="14" viewBox="0 0 16 14" fill="none" xmlns="http://www.w3.org/2000/svg">
<path opacity="0.4" d="M12 14H4C1.6 14 0 12.7647 0 9.88235V4.11765C0 1.23529 1.6 0 4 0H12C14.4 0 16 1.23529 16 4.11765V9.88235C16 12.7647 14.4 14 12 14Z" fill="#0064FA"/>
<path d="M3.20156 10.9095C2.87356 10.9095 2.60156 10.6295 2.60156 10.2918V3.70358C2.60156 3.36594 2.87356 3.08594 3.20156 3.08594C3.52956 3.08594 3.80156 3.36594 3.80156 3.70358V10.2918C3.80156 10.6295 3.52956 10.9095 3.20156 10.9095Z" fill="#0064FA"/>
<path d="M5.6 7.61535C5.272 7.61535 5 7.33535 5 6.9977V3.70358C5 3.36594 5.272 3.08594 5.6 3.08594C5.928 3.08594 6.2 3.36594 6.2 3.70358V6.9977C6.2 7.33535 5.928 7.61535 5.6 7.61535Z" fill="#0064FA"/>
<path d="M5.6 10.9104C5.272 10.9104 5 10.6304 5 10.2927V9.46921C5 9.13156 5.272 8.85156 5.6 8.85156C5.928 8.85156 6.2 9.13156 6.2 9.46921V10.2927C6.2 10.6304 5.928 10.9104 5.6 10.9104Z" fill="#0064FA"/>
<path d="M10.4008 5.14476C10.0728 5.14476 9.80078 4.86476 9.80078 4.52711V3.70358C9.80078 3.36594 10.0728 3.08594 10.4008 3.08594C10.7288 3.08594 11.0008 3.36594 11.0008 3.70358V4.52711C11.0008 4.86476 10.7288 5.14476 10.4008 5.14476Z" fill="#0064FA"/>
<path d="M7.99844 10.9095C7.67044 10.9095 7.39844 10.6295 7.39844 10.2918V3.70358C7.39844 3.36594 7.67044 3.08594 7.99844 3.08594C8.32644 3.08594 8.59844 3.36594 8.59844 3.70358V10.2918C8.59844 10.6295 8.32644 10.9095 7.99844 10.9095Z" fill="#0064FA"/>
<path d="M10.4008 10.9122C10.0728 10.9122 9.80078 10.6322 9.80078 10.2946V7.00046C9.80078 6.66281 10.0728 6.38281 10.4008 6.38281C10.7288 6.38281 11.0008 6.66281 11.0008 7.00046V10.2946C11.0008 10.6322 10.7288 10.9122 10.4008 10.9122Z" fill="#0064FA"/>
<path d="M12.7992 10.9095C12.4712 10.9095 12.1992 10.6295 12.1992 10.2918V3.70358C12.1992 3.36594 12.4712 3.08594 12.7992 3.08594C13.1272 3.08594 13.3992 3.36594 13.3992 3.70358V10.2918C13.3992 10.6295 13.1272 10.9095 12.7992 10.9095Z" fill="#0064FA"/>
</svg>
