<svg width="20" height="18" viewBox="0 0 20 18" fill="none" xmlns="http://www.w3.org/2000/svg">
<path fill-rule="evenodd" clip-rule="evenodd" d="M2.77768 2.76659C2.21865 3.30755 1.81818 4.20688 1.81818 5.68421V12.3158C1.81818 13.7931 2.21865 14.6924 2.77768 15.2334C3.34891 15.7862 4.23027 16.1053 5.45455 16.1053H14.5455C15.7697 16.1053 16.6511 15.7862 17.2223 15.2334C17.7814 14.6924 18.1818 13.7931 18.1818 12.3158V5.68421C18.1818 4.20688 17.7814 3.30755 17.2223 2.76659C16.6511 2.21383 15.7697 1.89474 14.5455 1.89474H5.45455C4.23027 1.89474 3.34891 2.21383 2.77768 2.76659ZM1.5405 1.37814C2.56018 0.391432 3.95155 0 5.45455 0H14.5455C16.0484 0 17.4398 0.391432 18.4595 1.37814C19.4914 2.37666 20 3.84575 20 5.68421V12.3158C20 14.1543 19.4914 15.6233 18.4595 16.6219C17.4398 17.6086 16.0484 18 14.5455 18H5.45455C3.95155 18 2.56018 17.6086 1.5405 16.6219C0.508625 15.6233 0 14.1543 0 12.3158V5.68421C0 3.84575 0.508625 2.37666 1.5405 1.37814Z" fill="#7D8695"/>
<path fill-rule="evenodd" clip-rule="evenodd" d="M4.54581 4.26562C5.04789 4.26562 5.4549 4.68978 5.4549 5.21299V12.7919C5.4549 13.3152 5.04789 13.7393 4.54581 13.7393C4.04373 13.7393 3.63672 13.3152 3.63672 12.7919V5.21299C3.63672 4.68978 4.04373 4.26562 4.54581 4.26562Z" fill="#7D8695"/>
<path fill-rule="evenodd" clip-rule="evenodd" d="M7.27237 4.26562C7.77445 4.26562 8.18146 4.68978 8.18146 5.21299V9.00247C8.18146 9.52568 7.77445 9.94984 7.27237 9.94984C6.7703 9.94984 6.36328 9.52568 6.36328 9.00247V5.21299C6.36328 4.68978 6.7703 4.26562 7.27237 4.26562Z" fill="#7D8695"/>
<path fill-rule="evenodd" clip-rule="evenodd" d="M7.27237 10.8906C7.77445 10.8906 8.18146 11.3148 8.18146 11.838V12.7854C8.18146 13.3086 7.77445 13.7327 7.27237 13.7327C6.7703 13.7327 6.36328 13.3086 6.36328 12.7854V11.838C6.36328 11.3148 6.7703 10.8906 7.27237 10.8906Z" fill="#7D8695"/>
<path fill-rule="evenodd" clip-rule="evenodd" d="M12.7294 4.26562C13.2315 4.26562 13.6385 4.68978 13.6385 5.21299V6.16036C13.6385 6.68358 13.2315 7.10773 12.7294 7.10773C12.2273 7.10773 11.8203 6.68358 11.8203 6.16036V5.21299C11.8203 4.68978 12.2273 4.26562 12.7294 4.26562Z" fill="#7D8695"/>
<path fill-rule="evenodd" clip-rule="evenodd" d="M10.0028 4.26562C10.5049 4.26562 10.9119 4.68978 10.9119 5.21299V12.7919C10.9119 13.3152 10.5049 13.7393 10.0028 13.7393C9.50076 13.7393 9.09375 13.3152 9.09375 12.7919V5.21299C9.09375 4.68978 9.50076 4.26562 10.0028 4.26562Z" fill="#7D8695"/>
<path fill-rule="evenodd" clip-rule="evenodd" d="M12.7294 8.05469C13.2315 8.05469 13.6385 8.47884 13.6385 9.00206V12.7915C13.6385 13.3147 13.2315 13.7389 12.7294 13.7389C12.2273 13.7389 11.8203 13.3147 11.8203 12.7915V9.00206C11.8203 8.47884 12.2273 8.05469 12.7294 8.05469Z" fill="#7D8695"/>
<path fill-rule="evenodd" clip-rule="evenodd" d="M15.456 4.26562C15.958 4.26562 16.3651 4.68978 16.3651 5.21299V12.7919C16.3651 13.3152 15.958 13.7393 15.456 13.7393C14.9539 13.7393 14.5469 13.3152 14.5469 12.7919V5.21299C14.5469 4.68978 14.9539 4.26562 15.456 4.26562Z" fill="#7D8695"/>
</svg>
