<svg width="14" height="14" viewBox="0 0 14 14" fill="none" xmlns="http://www.w3.org/2000/svg">
<path opacity="0.4" d="M7 14C10.866 14 14 10.866 14 7C14 3.13401 10.866 0 7 0C3.13401 0 0 3.13401 0 7C0 10.866 3.13401 14 7 14Z" fill="#DF525B"/>
<path d="M8.58563 7.07021L7.52863 6.69921V4.32621H7.78063C8.34763 4.32621 8.80963 4.82321 8.80963 5.43221C8.80963 5.71921 9.04763 5.95721 9.33463 5.95721C9.62163 5.95721 9.85963 5.71921 9.85963 5.43221C9.85963 4.24221 8.92863 3.27621 7.78063 3.27621H7.52863V2.87021C7.52863 2.58321 7.29063 2.34521 7.00363 2.34521C6.71663 2.34521 6.47863 2.58321 6.47863 2.87021V3.27621H6.02363C4.98763 3.27621 4.14062 4.15121 4.14062 5.22221C4.14062 6.47521 4.86862 6.87421 5.42163 7.07021L6.47863 7.44121V9.80721H6.22663C5.65963 9.80721 5.19763 9.31021 5.19763 8.70121C5.19763 8.41421 4.95963 8.17621 4.67263 8.17621C4.38563 8.17621 4.14763 8.41421 4.14763 8.70121C4.14763 9.89121 5.07863 10.8572 6.22663 10.8572H6.47863V11.2702C6.47863 11.5572 6.71663 11.7952 7.00363 11.7952C7.29063 11.7952 7.52863 11.5572 7.52863 11.2702V10.8642H7.98363C9.01963 10.8642 9.86663 9.98921 9.86663 8.91821C9.85963 7.65821 9.13163 7.25921 8.58563 7.07021ZM5.77163 6.08321C5.41463 5.95721 5.19763 5.83821 5.19763 5.22921C5.19763 4.73221 5.56862 4.33321 6.03062 4.33321H6.48563V6.33521L5.77163 6.08321ZM7.98363 9.81421H7.52863V7.81221L8.23563 8.05721C8.59263 8.18321 8.80963 8.30221 8.80963 8.91121C8.80963 9.40821 8.43863 9.81421 7.98363 9.81421Z" fill="#DF525B"/>
</svg>
