<svg width="12" height="14" viewBox="0 0 12 14" fill="none" xmlns="http://www.w3.org/2000/svg">
<path d="M0.606737 14C0.275054 14 0 13.762 0 13.475V0.525C0 0.238 0.275054 0 0.606737 0C0.93842 0 1.21347 0.238 1.21347 0.525V13.475C1.21347 13.762 0.93842 14 0.606737 14Z" fill="#DF525B"/>
<path opacity="0.4" d="M11.0179 7.23095L10.0309 6.37695C9.79629 6.20195 9.65876 5.94295 9.65067 5.65595C9.63449 5.34095 9.78011 5.02595 10.0471 4.79495L11.0179 3.95495C11.8592 3.22695 12.1747 2.52695 11.9077 1.97395C11.6489 1.42795 10.848 1.12695 9.66685 1.12695H0.606242C0.436355 1.13395 0.298828 1.25295 0.298828 1.39995V9.79995C0.298828 9.94695 0.436355 10.066 0.606242 10.066H9.66685C10.8318 10.066 11.6165 9.75795 11.8835 9.20495C12.1504 8.64495 11.843 7.95195 11.0179 7.23095Z" fill="#DF525B"/>
</svg>
