<svg width="12" height="12" viewBox="0 0 12 12" fill="none" xmlns="http://www.w3.org/2000/svg">
<path d="M7.03736 0.866507L8.09336 2.99572C8.23736 3.29212 8.62136 3.57642 8.94536 3.63086L10.8594 3.95145C12.0834 4.15712 12.3714 5.05236 11.4894 5.9355L10.0014 7.43563C9.74936 7.68968 9.61136 8.17964 9.68936 8.53048L10.1154 10.3875C10.4514 11.8574 9.67736 12.426 8.38736 11.6578L6.59336 10.5871C6.26936 10.3935 5.73536 10.3935 5.40536 10.5871L3.61136 11.6578C2.32736 12.426 1.54736 11.8513 1.88336 10.3875L2.30936 8.53048C2.38736 8.17964 2.24936 7.68968 1.99736 7.43563L0.509359 5.9355C-0.366641 5.05236 -0.0846404 4.15712 1.13936 3.95145L3.05336 3.63086C3.37136 3.57642 3.75536 3.29212 3.89936 2.99572L4.95536 0.866507C5.53136 -0.288836 6.46736 -0.288836 7.03736 0.866507Z" fill="#D1A60B"/>
</svg>
