<svg xmlns="http://www.w3.org/2000/svg" width="80" height="80" viewBox="0 0 80 80" fill="none">
  <path d="M68.7346 56.0391V63.9991C68.7346 72.7991 62.5798 79.9991 52.3216 79.9991H27.7021C17.4439 79.9991 11.2891 72.7991 11.2891 63.9991V56.0391H68.7346Z" fill="#DF525B"/>
  <path d="M68.7346 16V56.04H11.2891V16C11.2891 7.20001 17.4439 0 27.7021 0H52.3216C62.5798 0 68.7346 7.20001 68.7346 16Z" fill="#ED8063"/>
  <path d="M3.0772 75.0001C1.395 75.0001 0 73.6401 0 72.0001V8C0 6.36 1.395 5 3.0772 5C4.7594 5 6.15439 6.36 6.15439 8V72.0001C6.15439 73.6401 4.7594 75.0001 3.0772 75.0001Z" fill="#DF525B"/>
  <path d="M76.917 75.0001C75.2348 75.0001 73.8398 73.6401 73.8398 72.0001V8C73.8398 6.36 75.2348 5 76.917 5C78.5992 5 79.9942 6.36 79.9942 8V72.0001C79.9942 73.6401 78.5992 75.0001 76.917 75.0001Z" fill="#DF525B"/>
</svg>