<svg width="14" height="14" viewBox="0 0 14 14" fill="none" xmlns="http://www.w3.org/2000/svg">
<path d="M9.88418 4.27201C11.4736 5.91593 11.4736 8.58392 9.88418 10.2278C8.29473 11.8718 5.71512 11.8718 4.12568 10.2278C2.53623 8.58392 2.53623 5.91593 4.12568 4.27201C5.71512 2.62808 8.29473 2.62808 9.88418 4.27201Z" fill="#0064FA"/>
<path opacity="0.4" d="M4.56182 14.0006C4.50319 14.0006 4.43805 13.9871 4.37942 13.9669C2.91374 13.3605 1.72817 12.2893 0.933446 10.8744C0.164779 9.49325 -0.141382 7.93019 0.0605559 6.34016C0.0931265 6.06393 0.347175 5.86853 0.60774 5.90221C0.874819 5.9359 1.06372 6.19194 1.03115 6.46817C0.861786 7.82913 1.12237 9.17659 1.78029 10.3624C2.45776 11.5751 3.48046 12.4981 4.73769 13.0169C4.98523 13.1247 5.109 13.4144 5.01129 13.6772C4.93964 13.8793 4.75073 14.0006 4.56182 14.0006Z" fill="#0064FA"/>
<path opacity="0.4" d="M2.99765 2.43894C2.85433 2.43894 2.71103 2.37158 2.61331 2.24357C2.44395 2.02123 2.48304 1.70458 2.698 1.53615C3.9422 0.532274 5.42741 0 7.00383 0C8.54116 0 10.0068 0.512051 11.238 1.48224C11.453 1.65067 11.4921 1.96732 11.3292 2.18966C11.1664 2.41199 10.8602 2.45242 10.6452 2.28399C9.58993 1.44855 8.33271 1.01061 7.00383 1.01061C5.64889 1.01061 4.3656 1.46877 3.29729 2.33116C3.20609 2.40527 3.10187 2.43894 2.99765 2.43894Z" fill="#0064FA"/>
<path opacity="0.4" d="M9.44732 14.0016C9.25189 14.0016 9.06949 13.8804 8.99132 13.685C8.89361 13.4289 9.01087 13.1325 9.26492 13.0247C10.5221 12.4992 11.5449 11.5829 12.2223 10.3702C12.8868 9.1844 13.1473 7.8369 12.9715 6.47594C12.9389 6.19971 13.1278 5.94371 13.3949 5.91003C13.6554 5.87634 13.9095 6.07174 13.9421 6.34797C14.1375 7.93126 13.8378 9.50106 13.0692 10.8822C12.281 12.2971 11.0889 13.3616 9.62319 13.9747C9.57108 13.9881 9.51246 14.0016 9.44732 14.0016Z" fill="#0064FA"/>
</svg>
