<svg width="27" height="18" viewBox="0 0 27 18" fill="none" xmlns="http://www.w3.org/2000/svg">
<path d="M26.5416 18H0V0H27V18H26.5416Z" fill="#1D5B99"/>
<path d="M26.5418 17.5456H0.458984V0.454102H26.5418V17.5456Z" fill="white"/>
<path d="M9.8866 11.7747L11.5805 6.24347H13.0922L11.398 11.7747H9.8866ZM9.21093 6.24493L7.85139 8.58991C7.50534 9.20406 7.3029 9.51423 7.20563 9.90218H7.18492C7.20908 9.4104 7.13974 8.80618 7.13333 8.46477L6.98315 6.24493H4.43905L4.41309 6.39367C5.06657 6.39367 5.45419 6.71914 5.56083 7.38406L6.05673 11.7747H7.6225L10.7885 6.24493H9.21093ZM20.9646 11.7747L20.923 10.9528L19.036 10.9512L18.6499 11.7752H17.009L19.9844 6.25437H21.9983L22.5021 11.7752L20.9646 11.7747ZM20.7916 8.5118C20.7751 8.10301 20.7607 7.54826 20.7884 7.21221H20.7663C20.6744 7.48691 20.2792 8.31147 20.1054 8.717L19.5428 9.92952H20.8678L20.7916 8.5118ZM14.679 11.9319C13.612 11.9319 12.9044 11.5967 12.3983 11.2973L13.118 10.2089C13.572 10.4604 13.9283 10.7505 14.7484 10.7505C15.0113 10.7505 15.266 10.6828 15.4104 10.4353C15.6204 10.0757 15.3611 9.882 14.7715 9.55101L14.48 9.36321C13.6047 8.77103 13.2262 8.20781 13.6381 7.22637C13.902 6.59839 14.597 6.12207 15.7444 6.12207C16.5355 6.12207 17.2774 6.46104 17.7093 6.7922L16.8809 7.75346C16.4591 7.41563 16.1096 7.24476 15.7094 7.24476C15.3905 7.24476 15.1481 7.36665 15.0643 7.53101C14.9069 7.8402 15.1155 8.05045 15.5754 8.33312L15.9219 8.55167C16.9847 9.21545 17.2376 9.91146 16.9716 10.5619C16.5131 11.6821 15.6161 11.9319 14.678 11.9319H14.679ZM22.9522 6.99301H22.8864V6.59839H23.0376C23.1339 6.59839 23.1828 6.63175 23.1828 6.7123C23.1828 6.7839 23.1386 6.81352 23.079 6.82003L23.1906 6.9935H23.1166L23.0136 6.82491H22.9518V6.9935L22.9522 6.99301ZM23.0253 6.76893C23.0746 6.76893 23.1178 6.76421 23.1178 6.70693C23.1178 6.65941 23.0706 6.65355 23.0315 6.65355H22.9522V6.76893H23.0253ZM23.0235 7.14566C22.8164 7.14566 22.669 6.99204 22.669 6.78895C22.669 6.57463 22.8333 6.43256 23.0235 6.43256C23.2136 6.43256 23.3758 6.57463 23.3758 6.78895C23.3758 7.00327 23.2116 7.14566 23.0231 7.14566H23.0235ZM23.0235 6.49473C22.8674 6.49473 22.7463 6.6158 22.7463 6.78927C22.7463 6.95201 22.8521 7.08382 23.0235 7.08382C23.1774 7.08382 23.2987 6.96372 23.2987 6.78927C23.2987 6.61482 23.1771 6.49391 23.0231 6.49391L23.0235 6.49473Z" fill="#1D5B99"/>
<path d="M25.8987 13.4941H1.14648V16.774H25.8987V13.4941Z" fill="#E7A83A"/>
<path d="M25.8547 1.27148H1.10254V4.55152H25.8547V1.27148ZM25.289 16.5395H25.2232V16.1443H25.3744C25.4707 16.1443 25.5195 16.1768 25.5195 16.2582C25.5195 16.3294 25.4755 16.3591 25.4157 16.3657L25.5274 16.5392H25.4533L25.3504 16.3706H25.2886V16.5392L25.289 16.5395ZM25.3623 16.3154C25.4115 16.3154 25.4548 16.3107 25.4548 16.2534C25.4548 16.2059 25.4076 16.2002 25.3683 16.2002H25.2891V16.3154H25.3623ZM25.3604 16.692C25.1532 16.692 25.006 16.5387 25.006 16.3355C25.006 16.1211 25.1703 15.9791 25.3604 15.9791C25.5506 15.9791 25.7127 16.1211 25.7127 16.3355C25.7127 16.5498 25.5492 16.692 25.36 16.692H25.3604ZM25.3604 16.0411C25.2043 16.0411 25.0831 16.1623 25.0831 16.3356C25.0831 16.4984 25.1889 16.6302 25.3604 16.6302C25.5144 16.6302 25.6355 16.5101 25.6355 16.3356C25.6355 16.1612 25.5144 16.0409 25.36 16.0409L25.3604 16.0411Z" fill="#1D5B99"/>
</svg>
